<?xml version="1.0" encoding="UTF-8" standalone="no"?>
<svg
   xmlns:dc="http://purl.org/dc/elements/1.1/"
   xmlns:cc="http://creativecommons.org/ns#"
   xmlns:rdf="http://www.w3.org/1999/02/22-rdf-syntax-ns#"
   xmlns:svg="http://www.w3.org/2000/svg"
   xmlns="http://www.w3.org/2000/svg"
   xmlns:sodipodi="http://sodipodi.sourceforge.net/DTD/sodipodi-0.dtd"
   xmlns:inkscape="http://www.inkscape.org/namespaces/inkscape"
   id="svg4530"
   version="1.1"
   viewBox="0 0 352.32052 472.79848"
   height="47.27985cm"
   width="35.232052cm"
   sodipodi:docname="collabora.svg"
   inkscape:version="0.92.3 (2405546, 2018-03-11)">
  <sodipodi:namedview
     pagecolor="#ffffff"
     bordercolor="#666666"
     borderopacity="1"
     objecttolerance="10"
     gridtolerance="10"
     guidetolerance="10"
     inkscape:pageopacity="0"
     inkscape:pageshadow="2"
     inkscape:window-width="1920"
     inkscape:window-height="1052"
     id="namedview4588"
     showgrid="false"
     inkscape:zoom="0.059310764"
     inkscape:cx="1349.6494"
     inkscape:cy="1297.1428"
     inkscape:window-x="1920"
     inkscape:window-y="0"
     inkscape:window-maximized="1"
     inkscape:current-layer="layer1"
     fit-margin-top="0"
     fit-margin-left="0"
     fit-margin-right="0"
     fit-margin-bottom="0" />
  <defs
     id="defs4524" />
  <metadata
     id="metadata4527">
    <rdf:RDF>
      <cc:Work
         rdf:about="">
        <dc:format>image/svg+xml</dc:format>
        <dc:type
           rdf:resource="http://purl.org/dc/dcmitype/StillImage" />
        <dc:title></dc:title>
      </cc:Work>
    </rdf:RDF>
  </metadata>
  <g
     transform="translate(-413.4349,236.56433)"
     id="layer1">
    <polygon
       id="polygon14"
       points="17.258,20.718 17.772,20.172 30.958,32.599 17.914,44.893 17.358,44.386 "
       style="fill:#ffffff"
       transform="matrix(10.216927,0,0,10.216927,237.11117,-332.2152)" />
    <polygon
       style="fill:#504999;fill-opacity:1"
       id="polygon16"
       points="30.958,32.599 30.379,33.145 17.914,44.893 28.654,55.638 51.742,32.55 28.561,9.362 17.763,20.162 17.772,20.172 30.379,32.053 "
       transform="matrix(10.216927,0,0,10.216927,237.11117,-332.2152)" />
    <polygon
       id="polygon18"
       points="29.864,32.599 17.358,44.386 17.258,20.718 "
       style="fill:#c8c8c8"
       transform="matrix(10.216927,0,0,10.216927,237.11117,-332.2152)" />
    <polygon
       style="fill:#38257a;fill-opacity:1"
       id="polygon20"
       points="31.847,41.483 27.743,35.628 18.807,44.052 "
       transform="matrix(10.216927,0,0,10.216927,237.11117,-332.2152)" />
  </g>
</svg>
