<?xml version="1.0" encoding="UTF-8" standalone="no"?>
<svg
   xmlns:dc="http://purl.org/dc/elements/1.1/"
   xmlns:cc="http://creativecommons.org/ns#"
   xmlns:rdf="http://www.w3.org/1999/02/22-rdf-syntax-ns#"
   xmlns:svg="http://www.w3.org/2000/svg"
   xmlns="http://www.w3.org/2000/svg"
   xmlns:sodipodi="http://sodipodi.sourceforge.net/DTD/sodipodi-0.dtd"
   xmlns:inkscape="http://www.inkscape.org/namespaces/inkscape"
   height="450.01196"
   viewBox="0 0 1994.6472 450.01198"
   width="1994.6471"
   version="1.1"
   id="svg22"
   sodipodi:docname="cryptpad.svg"
   inkscape:version="0.92.3 (2405546, 2018-03-11)">
  <metadata
     id="metadata28">
    <rdf:RDF>
      <cc:Work
         rdf:about="">
        <dc:format>image/svg+xml</dc:format>
        <dc:type
           rdf:resource="http://purl.org/dc/dcmitype/StillImage" />
        <dc:title></dc:title>
      </cc:Work>
    </rdf:RDF>
  </metadata>
  <defs
     id="defs26" />
  <sodipodi:namedview
     pagecolor="#ffffff"
     bordercolor="#666666"
     borderopacity="1"
     objecttolerance="10"
     gridtolerance="10"
     guidetolerance="10"
     inkscape:pageopacity="0"
     inkscape:pageshadow="2"
     inkscape:window-width="1702"
     inkscape:window-height="849"
     id="namedview24"
     showgrid="false"
     inkscape:snap-global="false"
     fit-margin-top="0"
     fit-margin-left="0"
     fit-margin-right="0"
     fit-margin-bottom="0"
     inkscape:zoom="0.24666013"
     inkscape:cx="361.10527"
     inkscape:cy="187.27072"
     inkscape:window-x="67"
     inkscape:window-y="48"
     inkscape:window-maximized="0"
     inkscape:current-layer="svg22" />
  <rect
     style="opacity:1;fill:#ffffff;fill-opacity:1;stroke:none;stroke-width:2.89133859;stroke-linecap:round;stroke-linejoin:round;stroke-miterlimit:4;stroke-dasharray:none;stroke-dashoffset:0;stroke-opacity:1"
     id="rect824"
     width="1994.6471"
     height="450.01196"
     x="0"
     y="0"
     ry="127.70609" />
  <g
     id="g839"
     transform="translate(150.5284,55.869198)">
    <g
       id="g20"
       transform="matrix(3.5720546,0,0,3.5720546,0.96217084,0)">
      <path
         style="fill:#4591c4"
         inkscape:connector-curvature="0"
         id="path2"
         d="M 39.2,0 9.9,5.4 A 6.3,6.3 0 1 0 3.2,16 v 42.2 c 0,4 1.8,8.3 5.3,12.7 A 65.5,65.5 0 0 0 21.6,83 128.2,128.2 0 0 0 39.2,93.5 128.1,128.1 0 0 0 56.7,83 65.4,65.4 0 0 0 69.8,70.9 c 3.5,-4.5 5.3,-8.8 5.3,-12.7 V 16 A 6.3,6.3 0 0 0 72,4.2 6.2,6.2 0 0 0 68.4,5.4 Z m -0.1,6.2 26.7,4.9 A 5.9,5.9 0 0 0 66,12.2 L 50.3,22.5 a 15.3,15.3 0 0 0 -22.6,0.1 l -15.5,-10 a 6.3,6.3 0 0 0 0.3,-1.4 z m 28.8,9 a 6.5,6.5 0 0 0 1.8,1.1 v 41 a 10.4,10.4 0 0 1 -0.1,1.7 21.5,21.5 0 0 1 -4.1,7.8 56.1,56.1 0 0 1 -11.3,10.4 110.6,110.6 0 0 1 -15,9 110.8,110.8 0 0 1 -15,-9 A 55.8,55.8 0 0 1 13,66.8 19.8,19.8 0 0 1 8.6,57.5 V 16.4 a 6.3,6.3 0 0 0 1.7,-1 l 19.8,12.7 a 10.1,10.1 0 0 1 9,-5.4 10,10 0 0 1 9,5.4 z" />
      <g
         style="fill:#999999"
         id="g12">
        <path
           inkscape:connector-curvature="0"
           id="path4"
           d="m 23,54.8 a 4.65,4.65 0 1 0 0,9.3 4.65,4.65 0 0 0 0,-9.3 z" />
        <path
           inkscape:connector-curvature="0"
           id="path6"
           d="m 24.3,28.5 a 14.9,14.9 0 0 0 4.2,15.4 l -7.3,14.8 a 2.8,2.8 0 0 0 2.3,3.8 h 11 V 57.3 H 27.7 L 34.1,44.5 A 2.7,2.7 0 0 0 33.3,41.2 9.7,9.7 0 0 1 29,31.6 Z" />
        <path
           inkscape:connector-curvature="0"
           id="path8"
           d="m 55.3,54.8 a 4.65,4.65 0 1 0 0,9.3 4.65,4.65 0 0 0 0,-9.3 z" />
        <path
           inkscape:connector-curvature="0"
           id="path10"
           d="m 53.8,28.6 -4.7,3.1 a 10.2,10.2 0 0 1 0.1,1.2 10,10 0 0 1 -4.3,8.3 2.7,2.7 0 0 0 -0.8,3.3 l 6.3,12.8 h -6.8 v 5.2 h 11 a 2.8,2.8 0 0 0 2.3,-3.8 L 49.6,43.9 a 15.2,15.2 0 0 0 4.8,-11 15.3,15.3 0 0 0 -0.6,-4.3 z" />
      </g>
      <g
         style="fill:#4591c4"
         id="g18">
        <path
           inkscape:connector-curvature="0"
           id="path14"
           d="M 43.2,33.3 A 4.2,4.2 0 1 1 39,29.1 4.2,4.2 0 0 1 43.2,33.3 Z" />
        <path
           inkscape:connector-curvature="0"
           id="path16"
           d="M 45.3,88.4 A 6.3,6.3 0 1 1 39,82.1 6.3,6.3 0 0 1 45.3,88.4 Z" />
      </g>
    </g>
    <g
       transform="matrix(4.0670911,0,0,4.0670911,-1947.684,-791.6184)"
       id="g886">
      <path
         style="fill:#4591c4;fill-opacity:1"
         d="m 652.11376,257.74855 v -3.95619 l 7.25,-0.29381 c 6.65277,-0.26961 7.27632,-0.47916 7.56955,-2.54381 0.31563,-2.22241 0.17726,-2.25 -11.28212,-2.25 -12.46411,0 -17.53839,-1.26475 -19.45694,-4.8496 -0.59427,-1.11041 -1.08049,-6.7735 -1.08049,-12.58466 v -10.56575 h 3.86374 3.86374 l 0.50258,9.60837 c 0.34766,6.64653 0.92911,9.8785 1.88626,10.48469 0.76102,0.48198 5.99618,0.88321 11.63368,0.89163 l 10.25,0.0153 v -10.5 -10.50001 h 4.5 4.5 l -0.0997,16.25001 c -0.0548,8.9375 -0.40529,17.375 -0.77881,18.75 -1.06881,3.93447 -6.35328,5.99664 -15.37151,5.99844 l -7.74998,0.002 z m 30.09968,-11.79381 c 0.0548,-8.6625 0.40304,-16.83443 0.7738,-18.15985 0.37077,-1.32543 1.93497,-3.35043 3.476,-4.50001 2.53003,-1.88736 4.16083,-2.09015 16.80912,-2.09015 h 14.00726 l 2.91707,3.26578 c 2.70226,3.02529 2.91707,3.84894 2.91707,11.18491 0,14.53191 -1.88624,16.04932 -19.95034,16.04932 h -12.04966 v 5 5 h -4.5 -4.5 l 0.0997,-15.75 z m 30.98482,-2.93218 c 1.47927,-1.48218 1.33667,-11.10542 -0.19186,-12.94718 -0.81488,-0.98187 -3.7874,-1.37064 -10.4799,-1.37064 -11.00284,0 -11.41274,0.36006 -11.41274,10.02528 v 6.15677 l 10.45233,-0.34103 c 6.268,-0.2045 10.92465,-0.81428 11.63217,-1.5232 z m -146.19645,7.18254 c -4.19368,-2.27923 -5.09679,-5.98716 -4.72376,-19.39441 0.32404,-11.64661 0.43199,-12.16227 3.10592,-14.83597 l 2.77022,-2.76999 17.97978,-0.31312 17.97979,-0.31312 v 4.06312 4.06312 h -15.3 c -10.56667,0 -15.67124,0.37125 -16.5,1.2 -1.44843,1.44843 -1.63117,18.56883 -0.22202,20.80001 0.77577,1.2283 3.76111,1.5 16.48167,1.5 h 15.53431 l 0.003,3.75 0.003,3.75 -17.25,-0.04 c -12.94388,-0.03 -17.90202,-0.3944 -19.86195,-1.4596 z m 43.11195,-10.27786 c 0,-13.21538 0.81248,-15.41056 6.59857,-17.82814 1.83546,-0.7669 5.62881,-1.39437 8.42968,-1.39437 h 5.09248 l -0.31036,3.75 c -0.30744,3.71466 -0.35751,3.75472 -5.31037,4.25001 l -5,0.5 -0.28275,11.25 -0.28275,11.25 h -4.46725 -4.46725 z m 121,-0.11139 c 0,-10.709 -0.17368,-11.87511 -1.75,-11.75 -1.33165,0.10569 -1.82419,-0.75758 -2.06037,-3.61112 -0.26653,-3.22038 -0.0194,-3.75 1.75,-3.75 1.77525,0 2.06037,-0.62271 2.06037,-4.5 v -4.5 h 4.5 4.5 v 4.5 4.5 h 5 5 v 3.5 3.50001 h -5 -5 v 12 12 h -4.5 -4.5 z"
         id="path846"
         inkscape:connector-curvature="0"
         sodipodi:nodetypes="ccscscscccscscccccccccccccscssscccccccccssccccsccccccsccsccccccscsccscccccssscsscccccccccccccccs" />
      <path
         style="fill:#999999;fill-opacity:1"
         d="m 755.13667,232.24809 v -19.50001 h 18.59887 c 25.78661,0 28.05996,1.33463 27.23201,15.98721 -0.31708,5.61152 -0.84751,7.47442 -2.63892,9.268 -2.10564,2.10821 -3.2141,2.2642 -18.21701,2.56361 l -15.97495,0.31881 v 5.43119 5.43119 h -4.5 -4.5 z m 35.06574,0.46481 c 1.44817,-0.77503 1.93426,-2.10695 1.93426,-5.3 0,-2.34565 -0.54,-4.80482 -1.2,-5.46482 -0.80833,-0.80833 -5.37778,-1.2 -14,-1.2 h -12.8 v 6.5 6.50001 h 12.06574 c 6.63616,0 12.93616,-0.46583 14,-1.03519 z m 17.38881,16.58064 c -1.89319,-1.89319 -2.45455,-3.50449 -2.45455,-7.04545 0,-3.54097 0.56136,-5.15227 2.45455,-7.04546 2.38106,-2.38106 2.89001,-2.45454 17,-2.45454 10.97786,0 14.54169,-0.30659 14.53014,-1.25 -0.0366,-2.98745 -2.01154,-4.12433 -7.90523,-4.55064 -5.9301,-0.42894 -6.07946,-0.5105 -6.07946,-3.31956 0,-2.87916 10e-4,-2.87981 6.53212,-2.87981 6.90578,0 12.03905,1.57023 14.38647,4.4007 0.84212,1.01542 1.59979,4.84057 1.86448,9.41303 0.53248,9.19823 -1.25322,14.65413 -5.2998,16.19264 -1.43741,0.5465 -9.35463,0.99364 -17.59382,0.99364 -14.57174,0 -15.04731,-0.0669 -17.4349,-2.45455 z m 30.34545,-4.74545 c 0.66,-0.66 1.2,-2.46 1.2,-4 v -2.8 h -11.3 c -7.45556,0 -11.70826,0.40826 -12.5,1.2 -1.29351,1.29351 -1.61988,5.04678 -0.53333,6.13333 1.22489,1.2249 21.85062,0.74938 23.13333,-0.53333 z m 21.557,6.20842 c -4.09371,-1.65202 -5.357,-4.87896 -5.357,-13.68387 0,-14.40166 1.46595,-15.6317 19.25,-16.15222 l 12.75,-0.37318 v -4.89958 -4.89958 h 4.5826 4.58261 l -0.33261,17.5838 -0.3326,17.58378 -3.26578,2.91622 -3.26577,2.91621 -13.23423,-0.0634 c -7.27882,-0.0349 -14.19857,-0.45255 -15.37722,-0.92819 z m 24.70874,-7.04361 c 1.62811,-0.87134 1.93426,-2.13754 1.93426,-8 v -6.96481 h -10.3 c -6.67778,0 -10.72201,0.422 -11.5,1.2 -0.66,0.66 -1.2,3.78764 -1.2,6.95031 0,4.42152 0.40439,5.98585 1.75,6.76959 2.29803,1.33848 16.83553,1.37229 19.31574,0.0449 z"
         id="path846-7"
         inkscape:connector-curvature="0"
         sodipodi:nodetypes="ccsscscccccccssscccsccssscssscccscsscsscscssccccccccccaccscscsccc" />
    </g>
  </g>
</svg>
