<?xml version="1.0" encoding="UTF-8" standalone="no"?>
<!-- Created with Inkscape (http://www.inkscape.org/) -->

<svg
   width="135.41498mm"
   height="135.41499mm"
   viewBox="0 0 135.41498 135.41499"
   version="1.1"
   id="svg5"
   inkscape:version="1.1.1 (3bf5ae0d25, 2021-09-20)"
   sodipodi:docname="element_logo.svg"
   xmlns:inkscape="http://www.inkscape.org/namespaces/inkscape"
   xmlns:sodipodi="http://sodipodi.sourceforge.net/DTD/sodipodi-0.dtd"
   xmlns="http://www.w3.org/2000/svg"
   xmlns:svg="http://www.w3.org/2000/svg">
  <sodipodi:namedview
     id="namedview7"
     pagecolor="#ffffff"
     bordercolor="#666666"
     borderopacity="1.0"
     inkscape:pageshadow="2"
     inkscape:pageopacity="0.0"
     inkscape:pagecheckerboard="0"
     inkscape:document-units="mm"
     showgrid="false"
     fit-margin-top="0"
     fit-margin-left="0"
     fit-margin-right="0"
     fit-margin-bottom="0"
     inkscape:zoom="0.44535922"
     inkscape:cx="446.83031"
     inkscape:cy="632.07403"
     inkscape:window-width="1851"
     inkscape:window-height="1020"
     inkscape:window-x="69"
     inkscape:window-y="28"
     inkscape:window-maximized="1"
     inkscape:current-layer="layer1" />
  <defs
     id="defs2" />
  <g
     inkscape:label="Ebene 1"
     inkscape:groupmode="layer"
     id="layer1"
     transform="translate(-9.238267,357.93412)">
    <g
       id="g980"
       transform="translate(12.679085,-32.720912)">
      <path
         style="fill:#cef0e7;stroke-width:0.264583"
         d="m 70.308792,-189.95944 c 0.190994,-0.0764 0.4192,-0.067 0.507119,0.0209 0.08792,0.0879 -0.06835,0.15045 -0.347266,0.13896 -0.308226,-0.0127 -0.370919,-0.0754 -0.159853,-0.15985 z m 10.50065,-2.20051 c 0.26339,-0.29104 0.538422,-0.52917 0.611182,-0.52917 0.07276,0 -0.08321,0.23813 -0.346598,0.52917 -0.263391,0.29104 -0.538422,0.52917 -0.611183,0.52917 -0.07276,0 0.08321,-0.23813 0.346599,-0.52917 z m -42.879143,-12.23698 -0.777105,-0.85989 0.859896,0.7771 c 0.801545,0.72437 0.981512,0.94269 0.777105,0.94269 -0.04553,0 -0.432488,-0.38696 -0.859896,-0.8599 z m -2.645833,-2.64583 -0.777105,-0.8599 0.859896,0.77711 c 0.472943,0.42741 0.859896,0.81436 0.859896,0.85989 0,0.20441 -0.218316,0.0245 -0.942687,-0.7771 z m 46.401408,-7.25834 c 0.190995,-0.0764 0.419201,-0.067 0.507119,0.0209 0.08792,0.0879 -0.06835,0.15045 -0.347265,0.13897 -0.308227,-0.0127 -0.37092,-0.0754 -0.159854,-0.15986 z m 33.122526,-14.50364 c 0.34177,-0.3638 0.68094,-0.66146 0.7537,-0.66146 0.0728,0 -0.14734,0.29766 -0.48912,0.66146 -0.34177,0.3638 -0.68094,0.66146 -0.7537,0.66146 -0.0728,0 0.14734,-0.29766 0.48912,-0.66146 z m 1.85208,-1.80258 c 0,-0.0455 0.38696,-0.43249 0.8599,-0.8599 l 0.85989,-0.7771 -0.7771,0.85989 c -0.72437,0.80155 -0.94269,0.98151 -0.94269,0.77711 z m -117.8970058,-10.30211 -0.5040279,-0.59531 0.5953125,0.50403 c 0.55944683,0.47366 0.7157616,0.6866 0.504028,0.6866 -0.0502065,0 -0.31809723,-0.26789 -0.5953126,-0.59532 z m 107.3136758,-2.415 c 0,-0.0549 0.20836,-0.2633 0.46302,-0.46302 0.41965,-0.3291 0.429,-0.31975 0.0999,0.0999 -0.34565,0.44073 -0.56292,0.58089 -0.56292,0.36312 z m -109.5166071,-7.99194 c 0.012696,-0.30823 0.07539,-0.37092 0.1598524,-0.15985 0.07643,0.19099 0.067031,0.4192 -0.020888,0.50712 -0.087919,0.0879 -0.1504527,-0.0684 -0.1389644,-0.34727 z M 131.76262,-263.75179 c 0.0127,-0.30822 0.0754,-0.37092 0.15985,-0.15985 0.0764,0.191 0.067,0.4192 -0.0209,0.50712 -0.0879,0.0879 -0.15046,-0.0684 -0.13897,-0.34727 z m -16.40417,-0.79375 c 0.0127,-0.30822 0.0754,-0.37092 0.15986,-0.15985 0.0764,0.191 0.067,0.4192 -0.0209,0.50712 -0.0879,0.0879 -0.15045,-0.0684 -0.13897,-0.34727 z m 14.10919,-9.70139 -0.50403,-0.59531 0.59531,0.50403 c 0.32742,0.27722 0.59531,0.54511 0.59531,0.59531 0,0.21174 -0.21293,0.0554 -0.68659,-0.50403 z m -22.04669,-0.88194 c 0.0127,-0.30822 0.0754,-0.37092 0.15986,-0.15985 0.0764,0.19099 0.067,0.4192 -0.0209,0.50712 -0.0879,0.0879 -0.15045,-0.0684 -0.13896,-0.34727 z m -97.122963,-7.86595 c 0,-0.0455 0.386953,-0.43249 0.859896,-0.8599 l 0.859896,-0.7771 -0.777105,0.8599 c -0.724372,0.80154 -0.942687,0.98151 -0.942687,0.7771 z m 2.645834,-2.64583 c 0,-0.0455 0.386953,-0.43249 0.859895,-0.8599 l 0.859896,-0.7771 -0.777105,0.85989 c -0.724371,0.80155 -0.942686,0.98151 -0.942686,0.77711 z m 69.022496,-10.16982 c -0.329107,-0.41964 -0.319749,-0.429 0.0999,-0.0999 0.44073,0.34564 0.580887,0.56292 0.363125,0.56292 -0.05494,0 -0.2633,-0.20836 -0.463021,-0.46303 z m -35.470024,-5.00938 c 0.190995,-0.0764 0.419198,-0.067 0.507119,0.0209 0.08792,0.0879 -0.06835,0.15045 -0.347266,0.13896 -0.308226,-0.0127 -0.370919,-0.0754 -0.159853,-0.15985 z m 46.467337,-7.29374 -0.777105,-0.8599 0.859896,0.77711 c 0.801544,0.72437 0.981511,0.94269 0.777105,0.94269 -0.04554,0 -0.432488,-0.38696 -0.859896,-0.8599 z m -2.645833,-2.64583 -0.777105,-0.8599 0.859896,0.77711 c 0.472942,0.4274 0.859895,0.81436 0.859895,0.85989 0,0.20441 -0.218315,0.0244 -0.942686,-0.7771 z m -42.845853,-12.10469 c 0.26339,-0.29104 0.538422,-0.52917 0.611182,-0.52917 0.07276,0 -0.08321,0.23813 -0.346599,0.52917 -0.26339,0.29104 -0.538422,0.52917 -0.611182,0.52917 -0.07276,0 0.08321,-0.23813 0.346599,-0.52917 z m 10.401432,-2.29741 c 0.190994,-0.0764 0.419198,-0.067 0.507119,0.0209 0.08792,0.0879 -0.06835,0.15045 -0.347266,0.13897 -0.308226,-0.0127 -0.370919,-0.0754 -0.159853,-0.15986 z"
         id="path994" />
      <path
         style="fill:#a0e4d1;stroke-width:0.264583"
         d="m 36.59889,-205.71985 -0.504029,-0.59531 0.595313,0.50403 c 0.559445,0.47366 0.715761,0.6866 0.504028,0.6866 -0.05021,0 -0.318098,-0.26789 -0.595312,-0.59532 z m 38.736985,-0.37917 c 0.190995,-0.0764 0.4192,-0.067 0.507119,0.0209 0.08792,0.0879 -0.06835,0.15046 -0.347266,0.13897 -0.308226,-0.0127 -0.370919,-0.0754 -0.159853,-0.15985 z m -5.750335,-15.58402 c 0.0127,-0.30822 0.07539,-0.37092 0.159851,-0.15985 0.07643,0.19099 0.06703,0.4192 -0.02088,0.50712 -0.08792,0.0879 -0.150453,-0.0684 -0.138964,-0.34727 z m 46.41348,-8.31232 c 0.26339,-0.29105 0.53843,-0.52917 0.61119,-0.52917 0.0728,0 -0.0832,0.23812 -0.3466,0.52917 -0.26339,0.29104 -0.53842,0.52916 -0.61119,0.52916 -0.0728,0 0.0832,-0.23812 0.3466,-0.52916 z m -95.096812,-10.47309 c 0.01269,-0.30823 0.07539,-0.37092 0.159853,-0.15986 0.07643,0.191 0.06703,0.4192 -0.02089,0.50712 -0.08792,0.0879 -0.150453,-0.0683 -0.138965,-0.34726 z m -8.181194,-5.93108 c 0,-0.3638 0.06005,-0.51263 0.133452,-0.33073 0.0734,0.1819 0.0734,0.47956 0,0.66146 -0.0734,0.1819 -0.133452,0.0331 -0.133452,-0.33073 z m 15.51903,-5.73699 c 0.190995,-0.0764 0.419198,-0.067 0.507119,0.0209 0.08792,0.0879 -0.06835,0.15045 -0.347266,0.13896 -0.308226,-0.0127 -0.370919,-0.0754 -0.159853,-0.15985 z m 71.70208,-10.84792 c 0.190996,-0.0764 0.419196,-0.067 0.507116,0.0209 0.0879,0.0879 -0.0684,0.15045 -0.34726,0.13896 -0.308229,-0.0127 -0.370922,-0.0754 -0.159856,-0.15985 z m 15.701796,-5.64009 c 0,-0.3638 0.0601,-0.51263 0.13346,-0.33073 0.0734,0.1819 0.0734,0.47956 0,0.66146 -0.0734,0.1819 -0.13346,0.0331 -0.13346,-0.33073 z M 12.282362,-285.0287 c 0.263389,-0.29104 0.538421,-0.52916 0.611181,-0.52916 0.07276,0 -0.08321,0.23812 -0.346597,0.52916 -0.263389,0.29105 -0.538421,0.52917 -0.611181,0.52917 -0.07276,0 0.08321,-0.23812 0.346597,-0.52917 z m 46.455262,-8.35642 c 0.0127,-0.30822 0.07539,-0.37092 0.15985,-0.15985 0.07643,0.19099 0.06703,0.4192 -0.02088,0.50712 -0.08792,0.0879 -0.150453,-0.0684 -0.138965,-0.34727 z m -5.891331,-15.63681 c 0.190994,-0.0764 0.419197,-0.067 0.507118,0.0209 0.08792,0.0879 -0.06835,0.15046 -0.347265,0.13897 -0.308226,-0.0127 -0.370919,-0.0754 -0.159853,-0.15985 z m 38.785927,-0.41458 -0.504028,-0.59531 0.595312,0.50403 c 0.327422,0.27721 0.595313,0.5451 0.595313,0.59531 0,0.21174 -0.212934,0.0554 -0.686597,-0.50403 z"
         id="path992" />
      <path
         style="fill:#7ddbc0;stroke-width:0.264583"
         d="m 74.133748,-206.10164 c 0.257432,-0.0671 0.61462,-0.0627 0.79375,0.01 0.179131,0.0725 -0.03149,0.12736 -0.468055,0.12197 -0.436563,-0.005 -0.583126,-0.0647 -0.325695,-0.13177 z m 30.091322,-35.10612 c 0,-0.0549 0.20836,-0.2633 0.46302,-0.46302 0.41964,-0.32911 0.429,-0.31975 0.0999,0.0999 -0.34564,0.44072 -0.56291,0.58088 -0.56291,0.36312 z m -91.504056,-6.2501 c 0,-0.36381 0.06005,-0.51263 0.133452,-0.33073 0.0734,0.1819 0.0734,0.47955 0,0.66146 -0.0734,0.1819 -0.133452,0.0331 -0.133452,-0.33073 z M 115.64392,-267.5662 c 0,-0.3638 0.0601,-0.51263 0.13346,-0.33073 0.0734,0.18191 0.0734,0.47956 0,0.66146 -0.0734,0.1819 -0.13346,0.0331 -0.13346,-0.33073 z m -64.649711,-17.11407 c 0.190995,-0.0764 0.419198,-0.067 0.507119,0.0209 0.08792,0.0879 -0.06835,0.15045 -0.347265,0.13896 -0.308227,-0.0127 -0.37092,-0.0754 -0.159854,-0.15985 z m 29.120025,-13.24686 c -0.329108,-0.41965 -0.319749,-0.42901 0.0999,-0.0999 0.440729,0.34565 0.580887,0.56292 0.363124,0.56292 -0.05494,0 -0.2633,-0.20836 -0.46302,-0.46302 z m -26.353401,-11.09742 c 0.257431,-0.0671 0.614619,-0.0627 0.79375,0.01 0.179131,0.0725 -0.03149,0.12737 -0.468056,0.12197 -0.436563,-0.005 -0.583126,-0.0647 -0.325694,-0.13177 z"
         id="path990" />
      <path
         style="fill:#6dd6b8;stroke-width:0.264583"
         d="m 83.100176,-197.98078 c 0,-0.3638 0.06005,-0.51263 0.133453,-0.33073 0.0734,0.1819 0.0734,0.47956 0,0.66146 -0.0734,0.1819 -0.133453,0.0331 -0.133453,-0.33073 z m -9.880968,-8.11824 c 0.190995,-0.0764 0.419201,-0.067 0.507119,0.0209 0.08792,0.0879 -0.06835,0.15046 -0.347265,0.13897 -0.308227,-0.0127 -0.37092,-0.0754 -0.159854,-0.15985 z m 6.47079,-8.2047 c 0.257432,-0.0671 0.614619,-0.0627 0.79375,0.01 0.179131,0.0725 -0.03149,0.12736 -0.468056,0.12197 -0.436562,-0.005 -0.583126,-0.0647 -0.325694,-0.13178 z m -31.061179,-2.39633 c -0.329108,-0.41965 -0.319749,-0.42901 0.0999,-0.0999 0.440729,0.34564 0.580887,0.56292 0.363124,0.56292 -0.05494,0 -0.2633,-0.20836 -0.46302,-0.46302 z m -1.058334,-1.05834 c -0.329107,-0.41964 -0.319749,-0.429 0.0999,-0.0999 0.254662,0.19972 0.463021,0.40808 0.463021,0.46302 0,0.21776 -0.217273,0.0776 -0.562917,-0.36313 z m 30.26743,-12.68491 c 0.257432,-0.0671 0.614619,-0.0627 0.79375,0.01 0.179131,0.0725 -0.03149,0.12737 -0.468056,0.12197 -0.436562,-0.005 -0.583126,-0.0647 -0.325694,-0.13177 z m -73.4269065,-8.19396 c 0.181901,-0.0734 0.4795572,-0.0734 0.6614583,0 0.181901,0.0734 0.033073,0.13345 -0.3307292,0.13345 -0.363802,0 -0.5126302,-0.0601 -0.3307291,-0.13345 z m 16.4911995,-2.88953 c 0.01269,-0.30822 0.07539,-0.37092 0.159853,-0.15985 0.07643,0.19099 0.06703,0.4192 -0.02089,0.50712 -0.08792,0.0879 -0.150453,-0.0684 -0.138965,-0.34727 z m 16.16047,-1.96232 c 0,-0.36381 0.06005,-0.51263 0.133453,-0.33073 0.0734,0.1819 0.0734,0.47955 0,0.66146 -0.0734,0.1819 -0.133453,0.0331 -0.133453,-0.33073 z m -24.362553,-4.91684 c 0.0127,-0.30823 0.07539,-0.37092 0.159853,-0.15986 0.07643,0.191 0.06703,0.4192 -0.02089,0.50712 -0.08792,0.0879 -0.150453,-0.0683 -0.138963,-0.34726 z M 115.62304,-266.6622 c 0.0127,-0.30823 0.0754,-0.37092 0.15985,-0.15986 0.0764,0.191 0.067,0.4192 -0.0209,0.50712 -0.0879,0.0879 -0.15045,-0.0684 -0.13896,-0.34726 z m -24.341668,-4.7625 c 0.0127,-0.30823 0.07539,-0.37092 0.159851,-0.15986 0.07643,0.191 0.06703,0.4192 -0.02088,0.50712 -0.08792,0.0879 -0.150452,-0.0683 -0.138964,-0.34726 z m 16.160468,-1.96233 c 0,-0.3638 0.0601,-0.51263 0.13345,-0.33073 0.0734,0.1819 0.0734,0.47956 0,0.66146 -0.0734,0.1819 -0.13345,0.0331 -0.13345,-0.33073 z m -83.38552,-0.36448 c 0,-0.0549 0.208359,-0.2633 0.463021,-0.46302 0.419645,-0.32911 0.429003,-0.31975 0.0999,0.0999 -0.345644,0.44073 -0.562917,0.58088 -0.562917,0.36312 z m 99.55451,-2.72929 c 0.25743,-0.0671 0.61462,-0.0627 0.79375,0.01 0.17913,0.0725 -0.0315,0.12736 -0.46806,0.12197 -0.43656,-0.005 -0.58312,-0.0647 -0.32569,-0.13178 z m -73.69149,-8.19396 c 0.181901,-0.0734 0.479557,-0.0734 0.661458,0 0.181901,0.0734 0.03307,0.13346 -0.330729,0.13346 -0.363802,0 -0.51263,-0.0601 -0.330729,-0.13346 z m -1.714757,-16.14771 c 0.257432,-0.0671 0.614619,-0.0627 0.79375,0.01 0.179131,0.0725 -0.03149,0.12736 -0.468056,0.12197 -0.436562,-0.005 -0.583126,-0.0647 -0.325694,-0.13178 z m 6.758376,-8.19946 c 0.190995,-0.0764 0.419198,-0.067 0.507119,0.0209 0.08792,0.0879 -0.06835,0.15046 -0.347266,0.13897 -0.308226,-0.0127 -0.370919,-0.0754 -0.159853,-0.15985 z m -9.698198,-8.02135 c 0,-0.3638 0.06005,-0.51263 0.133453,-0.33073 0.0734,0.1819 0.0734,0.47956 0,0.66146 -0.0734,0.1819 -0.133453,0.0331 -0.133453,-0.33073 z"
         id="path988" />
      <path
         style="fill:#4ecda9;stroke-width:0.264583"
         d="m 72.408922,-189.95393 c 0.181901,-0.0734 0.479557,-0.0734 0.661458,0 0.181901,0.0734 0.03307,0.13345 -0.330729,0.13345 -0.363802,0 -0.51263,-0.06 -0.330729,-0.13345 z m 4.779036,-24.34717 c 0.190995,-0.0764 0.419201,-0.067 0.507119,0.0209 0.08792,0.0879 -0.06835,0.15045 -0.347266,0.13897 -0.308226,-0.0127 -0.370919,-0.0754 -0.159853,-0.15986 z m 1.179124,-0.003 c 0.257431,-0.0671 0.614619,-0.0627 0.793749,0.01 0.179131,0.0725 -0.03149,0.12736 -0.468055,0.12197 -0.436563,-0.005 -0.583126,-0.0647 -0.325694,-0.13178 z m -6.454931,-2.3963 c -0.329108,-0.41965 -0.319749,-0.42901 0.0999,-0.0999 0.440729,0.34564 0.580887,0.56292 0.363125,0.56292 -0.05494,0 -0.263301,-0.20836 -0.463021,-0.46302 z m 7.111354,-13.73513 c 0.181901,-0.0734 0.479557,-0.0734 0.661458,0 0.181901,0.0734 0.03307,0.13346 -0.330729,0.13346 -0.363802,0 -0.51263,-0.0601 -0.330729,-0.13346 z m -58.080801,-12.26018 c 0,-0.50933 0.05445,-0.71769 0.121,-0.46302 0.06655,0.25466 0.06655,0.67138 0,0.92604 -0.06655,0.25466 -0.121,0.0463 -0.121,-0.46302 z m 16.119974,0.26458 c 0,-0.3638 0.06005,-0.51263 0.133453,-0.33073 0.0734,0.1819 0.0734,0.47956 0,0.66146 -0.0734,0.1819 -0.133453,0.0331 -0.133453,-0.33073 z m -40.481247,-6.87917 c 0,-0.3638 0.060053,-0.51263 0.1334521,-0.33073 0.073399,0.1819 0.073399,0.47956 0,0.66146 -0.073399,0.1819 -0.1334521,0.0331 -0.1334521,-0.33073 z m 26.548847,-0.26458 c 0.26339,-0.29104 0.538422,-0.52917 0.611183,-0.52917 0.07276,0 -0.08321,0.23813 -0.346599,0.52917 -0.26339,0.29104 -0.538421,0.52917 -0.611181,0.52917 -0.07276,0 0.08321,-0.23813 0.346597,-0.52917 z m 81.623952,-15.44573 c 0,-0.0549 0.20836,-0.2633 0.46302,-0.46302 0.41965,-0.32911 0.42901,-0.31975 0.0999,0.0999 -0.34564,0.44073 -0.56292,0.58088 -0.56292,0.36312 z m 27.00839,-0.84819 c 0.0127,-0.30823 0.0754,-0.37092 0.15985,-0.15986 0.0764,0.191 0.067,0.4192 -0.0209,0.50712 -0.0879,0.0879 -0.15046,-0.0684 -0.13897,-0.34726 z m -24.31097,-6.32795 c 0.005,-0.43657 0.0647,-0.58313 0.13177,-0.3257 0.0671,0.25743 0.0627,0.61462 -0.01,0.79375 -0.0725,0.17913 -0.12736,-0.0315 -0.12197,-0.46805 z m -16.139586,-0.26459 c 0.0054,-0.43656 0.06469,-0.58312 0.131773,-0.32569 0.06708,0.25743 0.06267,0.61462 -0.0098,0.79375 -0.07248,0.17913 -0.127363,-0.0315 -0.12197,-0.46806 z m -42.451058,-12.21377 c 0.181901,-0.0734 0.479558,-0.0734 0.661459,0 0.181901,0.0734 0.03307,0.13346 -0.33073,0.13346 -0.363802,0 -0.51263,-0.0601 -0.330729,-0.13346 z m 7.440729,-13.78154 c -0.329107,-0.41964 -0.319749,-0.429 0.0999,-0.0999 0.44073,0.34564 0.580887,0.56291 0.363125,0.56291 -0.05494,0 -0.2633,-0.20836 -0.463021,-0.46302 z m 22.489582,-0.79375 c -0.329107,-0.41964 -0.319749,-0.429 0.0999,-0.0999 0.44073,0.34564 0.580888,0.56291 0.363125,0.56291 -0.05494,0 -0.2633,-0.20836 -0.463021,-0.46302 z M 49.5275,-300.82247 c 0.257431,-0.0671 0.614619,-0.0627 0.79375,0.01 0.17913,0.0725 -0.03149,0.12736 -0.468056,0.12197 -0.436563,-0.005 -0.583126,-0.0647 -0.325694,-0.13178 z m 1.466709,0.003 c 0.190995,-0.0764 0.419198,-0.067 0.507119,0.0209 0.08792,0.0879 -0.06835,0.15046 -0.347265,0.13897 -0.308227,-0.0127 -0.37092,-0.0754 -0.159854,-0.15985 z m 4.618707,-24.34428 c 0.257432,-0.0671 0.614619,-0.0627 0.79375,0.01 0.179131,0.0725 -0.03149,0.12737 -0.468056,0.12197 -0.436562,-0.005 -0.583126,-0.0647 -0.325694,-0.13177 z"
         id="path986" />
      <path
         style="fill:#2bc499;stroke-width:0.264583"
         d="m 73.604582,-189.96205 c 0.257431,-0.0671 0.614619,-0.0627 0.79375,0.01 0.179131,0.0725 -0.03149,0.12736 -0.468056,0.12197 -0.436563,-0.005 -0.583126,-0.0647 -0.325694,-0.13177 z m -35.153609,-14.1703 -0.504029,-0.59531 0.595313,0.50403 c 0.559445,0.47366 0.715761,0.6866 0.504028,0.6866 -0.05021,0 -0.318098,-0.26789 -0.595312,-0.59532 z m -3.439583,-3.43958 -0.504029,-0.59531 0.595313,0.50403 c 0.559445,0.47366 0.715761,0.68659 0.504028,0.68659 -0.05021,0 -0.318098,-0.26789 -0.595312,-0.59531 z m 79.00326,-20.67125 c 0,-0.0549 0.20836,-0.2633 0.46302,-0.46302 0.41964,-0.32911 0.429,-0.31975 0.0999,0.0999 -0.34565,0.44073 -0.56292,0.58089 -0.56292,0.36312 z m 3.57187,-3.60427 c 0.26339,-0.29104 0.53843,-0.52916 0.61119,-0.52916 0.0728,0 -0.0832,0.23812 -0.3466,0.52916 -0.26339,0.29104 -0.53842,0.52917 -0.61119,0.52917 -0.0728,0 0.0832,-0.23813 0.3466,-0.52917 z m -96.684312,-12.06059 c 0.01269,-0.30822 0.07539,-0.37092 0.159853,-0.15985 0.07643,0.19099 0.06703,0.4192 -0.02089,0.50712 -0.08792,0.0879 -0.150453,-0.0684 -0.138965,-0.34727 z m -24.3109731,-4.21128 c 0.00539,-0.43656 0.06469,-0.58313 0.1317736,-0.3257 0.067083,0.25744 0.062672,0.61462 -0.0098,0.79375 -0.072475,0.17913 -0.1273618,-0.0315 -0.1219697,-0.46805 z M 131.80311,-267.03703 c 0,-0.50932 0.0545,-0.71768 0.12101,-0.46302 0.0665,0.25466 0.0665,0.67138 0,0.92604 -0.0665,0.25466 -0.12101,0.0463 -0.12101,-0.46302 z m -24.38216,-4.12309 c 0.0127,-0.30823 0.0754,-0.37092 0.15986,-0.15985 0.0764,0.19099 0.067,0.4192 -0.0209,0.50712 -0.0879,0.0879 -0.15045,-0.0684 -0.13896,-0.34727 z m -96.726088,-12.01649 c 0.263389,-0.29104 0.538421,-0.52917 0.611181,-0.52917 0.07276,0 -0.08321,0.23813 -0.346597,0.52917 -0.263389,0.29104 -0.538421,0.52916 -0.611181,0.52916 -0.07276,0 0.08321,-0.23812 0.346597,-0.52916 z m 3.439584,-3.43959 c 0.263388,-0.29104 0.53842,-0.52916 0.61118,-0.52916 0.07276,0 -0.08321,0.23812 -0.346597,0.52916 -0.263389,0.29105 -0.538421,0.52917 -0.611181,0.52917 -0.07276,0 0.08321,-0.23812 0.346598,-0.52917 z m 79.085274,-20.96822 -0.504028,-0.59532 0.595312,0.50403 c 0.559446,0.47366 0.715761,0.6866 0.504029,0.6866 -0.05021,0 -0.318098,-0.26789 -0.595313,-0.59531 z m -3.580487,-3.57188 c -0.329107,-0.41964 -0.319749,-0.429 0.0999,-0.0999 0.44073,0.34564 0.580888,0.56291 0.363125,0.56291 -0.05494,0 -0.2633,-0.20836 -0.463021,-0.46302 z m -35.349234,-14.00783 c 0.257432,-0.0671 0.614619,-0.0627 0.79375,0.01 0.179131,0.0725 -0.03149,0.12737 -0.468055,0.12197 -0.436563,-0.005 -0.583126,-0.0647 -0.325695,-0.13177 z"
         id="path984" />
      <path
         style="fill:#0cbc8a;stroke-width:0.264583"
         d="m 71.549026,-190.06325 c -12.920524,-0.77148 -25.327154,-6.40518 -34.695859,-15.75497 -9.745884,-9.72621 -15.707264,-23.72678 -15.707264,-36.88922 0,-3.37981 0.40893,-4.76791 1.905463,-6.46806 3.700886,-4.20443 10.343491,-3.46082 13.020415,1.45757 0.661721,1.2158 0.781125,1.79306 0.977358,4.72514 0.122947,1.83707 0.350737,4.11404 0.506198,5.05993 2.310098,14.05546 12.337195,25.75234 25.822991,30.12324 3.222522,1.04445 6.214713,1.58123 10.349438,1.85662 2.965802,0.19753 3.722204,0.34112 4.942843,0.93833 1.57458,0.77036 2.737416,1.93799 3.65276,3.66781 0.85325,1.61247 0.854811,5.10346 0.003,6.83208 -1.212583,2.46091 -3.781345,4.27452 -6.411774,4.52688 -0.654844,0.0628 -2.619375,0.0289 -4.365625,-0.0754 z m 3.393077,-24.75496 c -0.607663,-0.21532 -1.655095,-0.87585 -2.327629,-1.46783 -4.2072,-3.70333 -3.468727,-10.34626 1.447623,-13.02207 1.191514,-0.64851 1.818883,-0.7828 4.592849,-0.98314 5.662495,-0.40895 8.991091,-1.09263 13.257577,-2.72309 8.385937,-3.20472 16.340527,-10.66726 20.239577,-18.98761 2.20489,-4.70512 3.29066,-9.12055 3.67991,-14.96486 0.19753,-2.9658 0.34113,-3.7222 0.93833,-4.94284 0.77037,-1.57458 1.938,-2.73742 3.66781,-3.65276 1.61247,-0.85325 5.10347,-0.85482 6.83209,-0.003 1.65936,0.81764 3.09024,2.29303 3.88448,4.00534 0.60622,1.30696 0.6598,1.71543 0.62253,4.74627 -0.0465,3.77723 -0.5675,7.73429 -1.51267,11.48792 -5.50639,21.8678 -23.68431,37.88795 -46.140906,40.66385 -3.213926,0.39728 -7.841869,0.31859 -9.181571,-0.15612 z M 1.9876181,-239.12699 c -2.07166301,-0.79085 -3.5543608,-2.19886 -4.583227,-4.35238 -0.6403323,-1.34028 -0.6872656,-1.68458 -0.6449492,-4.73138 0.2130332,-15.33843 7.8768,-30.83018 20.0530671,-40.53584 9.443808,-7.52762 21.42947,-11.89252 32.655883,-11.89252 3.379808,0 4.767913,0.40893 6.468064,1.90546 4.204428,3.70089 3.460822,10.34349 -1.457568,13.02042 -1.2158,0.66172 -1.793068,0.78112 -4.725141,0.97735 -1.837076,0.12295 -4.114043,0.35074 -5.059928,0.5062 -14.08381,2.31476 -25.708794,12.29504 -30.149418,25.88387 -1.050574,3.21488 -1.558687,6.06673 -1.832296,10.28398 -0.192894,2.97317 -0.332854,3.71367 -0.934232,4.94284 -0.777551,1.58926 -1.9577541,2.76006 -3.6700545,3.64083 -1.439406,0.7404 -4.6221857,0.92302 -6.1202004,0.35117 z m 94.6767999,-24.46932 c -1.790647,-0.71052 -3.271808,-2.02237 -4.191733,-3.71258 -0.672682,-1.23593 -0.78177,-1.78186 -0.997064,-4.98973 -0.713068,-10.62467 -4.194645,-18.58723 -11.182563,-25.57515 -4.4571,-4.45709 -9.296948,-7.44229 -15.186297,-9.36684 -3.214878,-1.05058 -6.066726,-1.55869 -10.283975,-1.8323 -2.973168,-0.19289 -3.713668,-0.33285 -4.94284,-0.93423 -1.578869,-0.77247 -2.741327,-1.93897 -3.657346,-3.67006 -0.85325,-1.61247 -0.854811,-5.10346 -0.003,-6.83208 0.817634,-1.65937 2.293027,-3.09024 4.005342,-3.88449 1.306954,-0.60622 1.715429,-0.6598 4.746262,-0.62252 15.328984,0.1885 30.819083,7.85342 40.555665,20.06805 7.506981,9.41758 11.873241,21.41751 11.873241,32.63162 0,3.37981 -0.40893,4.76791 -1.90547,6.46806 -2.18802,2.48573 -5.873021,3.42564 -8.830179,2.25225 z"
         id="path982" />
    </g>
  </g>
</svg>
