<?xml version="1.0" encoding="UTF-8" standalone="no"?>
<!-- Created with Inkscape (http://www.inkscape.org/) -->

<svg
   width="34.55423mm"
   height="34.552616mm"
   viewBox="0 0 34.55423 34.552616"
   version="1.1"
   id="svg5"
   xml:space="preserve"
   xmlns="http://www.w3.org/2000/svg"
   xmlns:svg="http://www.w3.org/2000/svg"><defs
     id="defs2" /><g
     id="layer1"
     transform="translate(-70.445828,-46.649115)"><path
       style="fill:#008551;fill-opacity:1;stroke-width:0.00873917"
       d="m 87.251113,81.195436 c -3.167213,-0.0845 -6.213714,-1.0243 -8.878005,-2.73888 -0.822288,-0.52918 -1.590387,-1.12303 -2.350612,-1.817365 -0.205555,-0.187741 -0.82603,-0.808153 -1.014549,-1.014444 -0.809083,-0.885362 -1.483578,-1.784117 -2.079425,-2.770804 -1.818688,-3.011648 -2.662363,-6.451585 -2.450801,-9.992713 0.227559,-3.808886 1.715437,-7.42889 4.238477,-10.312186 0.476554,-0.544601 1.093877,-1.162141 1.633798,-1.63438 2.889382,-2.52717 6.505566,-4.010187 10.334035,-4.238051 0.466502,-0.02777 1.28613,-0.03612 1.725979,-0.01758 2.753323,0.11596 5.332433,0.837918 7.703107,2.156297 3.458036,1.923079 6.163963,4.987044 7.642623,8.65387 0.68552,1.699976 1.09212,3.493988 1.2102,5.339616 0.0421,0.658118 0.0454,1.439065 0.009,2.08865 -0.15204,2.694295 -0.91468,5.27355 -2.24809,7.603054 -0.9734,1.700551 -2.24594,3.241465 -3.734,4.521468 -0.847455,0.728958 -1.728685,1.352138 -2.695468,1.906128 -2.744781,1.57284 -5.855033,2.35241 -9.045972,2.26733 z m 12.247312,-8.618631 c 0.785075,-0.157274 1.350155,-0.733856 1.429815,-1.458925 0.0126,-0.115167 0.013,-14.387437 3.6e-4,-14.500764 -0.0279,-0.250058 -0.11319,-0.486216 -0.25106,-0.695262 -0.27105,-0.410943 -0.709593,-0.686372 -1.233646,-0.774783 -0.08852,-0.01494 -0.595036,-0.01561 -11.680629,-0.01561 -11.085596,0 -11.592116,7.08e-4 -11.680633,0.01561 -0.808723,0.136437 -1.401364,0.72323 -1.484705,1.470045 -0.01265,0.113327 -0.01226,14.385597 3.52e-4,14.500764 0.05277,0.480324 0.316966,0.89984 0.746614,1.185557 0.223481,0.148618 0.533231,0.259824 0.815693,0.292859 0.03203,0.0037 5.268934,0.0064 11.637584,0.0057 l 11.579363,-0.001 0.12079,-0.02421 z m -23.168642,-0.94026 c -0.0081,-0.0052 1.147227,-1.129938 3.992444,-3.88662 2.202153,-2.133628 4.008454,-3.880347 4.013999,-3.881598 0.0055,-0.0014 0.778909,0.668031 1.718587,1.487286 1.678422,1.463325 1.708807,1.489271 1.72598,1.473698 0.0096,-0.0087 0.850133,-0.741421 1.867821,-1.628225 l 1.850344,-1.61237 0.392023,0.394376 c 0.215613,0.216912 1.924963,1.945798 3.798552,3.841971 1.873589,1.896177 3.477562,3.519219 3.564384,3.60676 0.08682,0.08754 0.155241,0.161784 0.152042,0.164983 -0.0032,0.0032 -0.03644,0.01413 -0.07387,0.02431 l -0.06806,0.0185 -11.461381,0.0021 c -6.30376,10e-4 -11.466548,-0.001 -11.472858,-0.0052 z m -0.598265,-0.346963 c -0.04019,-0.06655 -0.06671,-0.138763 -0.08064,-0.219669 -0.01177,-0.06838 -0.013,-0.871368 -0.01089,-7.238638 0.0021,-6.777274 0.0032,-7.164692 0.01758,-7.216978 0.0161,-0.05845 0.06584,-0.166414 0.09298,-0.201827 0.0161,-0.021 0.01631,-0.02103 0.03737,-0.0044 0.07514,0.05944 8.090602,7.052228 8.088762,7.056741 -0.0028,0.0073 -8.107827,7.859526 -8.115374,7.86245 -0.0032,0.001 -0.01653,-0.01575 -0.02981,-0.03771 z m 20.175858,-4.102671 c -2.167297,-2.192421 -3.940538,-3.990662 -3.940538,-3.996092 0,-0.0099 7.780648,-6.796554 7.792053,-6.796554 0.0094,0 0.05728,0.08128 0.0809,0.137487 0.01167,0.02773 0.02646,0.07597 0.03294,0.107212 0.0098,0.04734 0.01177,1.251457 0.01177,7.227267 0,7.362606 3.53e-4,7.246928 -0.02991,7.296089 -0.0044,0.0072 -1.320674,-1.318418 -3.947215,-3.975409 z m -13.848691,-6.11013 c -3.137445,-2.734803 -5.70222,-4.975974 -5.6995,-4.980378 0.0067,-0.01075 22.801589,-0.01078 22.808238,0 0.0028,0.0044 -2.550233,2.235163 -5.673219,4.957279 -3.122978,2.722115 -5.690055,4.959693 -5.70461,4.972399 l -0.02646,0.02311 -5.704446,-4.972371 z m 1.365644,-1.16064 v -0.157306 h -0.646695 -0.646697 v -0.502501 -0.5025 h 0.576783 0.576783 V 58.596532 58.439225 H 82.70772 82.130937 v -0.428218 -0.428218 h 0.646697 0.646695 v -0.157302 -0.157306 h -0.830215 -0.83022 v 1.402633 1.402633 h 0.83022 0.830215 z m 2.010006,0.144593 c 0,-0.007 0.03344,-0.488456 0.07428,-1.069918 0.04085,-0.581465 0.0744,-1.064368 0.07455,-1.073128 2.18e-4,-0.01328 0.0014,-0.01374 0.0079,-0.0028 0.0059,0.01001 0.729335,1.791433 0.853018,2.100386 l 0.02329,0.05819 h 0.123673 0.123672 l 0.435885,-1.077099 c 0.239737,-0.592405 0.439288,-1.080837 0.443442,-1.085403 0.0044,-0.0048 0.0076,0.0043 0.0076,0.02184 0,0.03308 0.135895,1.986474 0.144808,2.081663 l 0.0055,0.05899 h 0.17896 0.17896 l -0.0053,-0.05462 c -0.0028,-0.03005 -0.04634,-0.636644 -0.0965,-1.348011 -0.05015,-0.711367 -0.09363,-1.318045 -0.09661,-1.348176 l -0.0054,-0.05479 -0.193219,0.0024 -0.193216,0.0024 -0.462944,1.164512 c -0.254617,0.640477 -0.464713,1.162737 -0.466879,1.16057 -0.0021,-0.0021 -0.211605,-0.526192 -0.465425,-1.164509 l -0.461485,-1.160573 -0.192737,-0.0024 -0.192733,-0.0024 -0.0039,0.01984 c -0.0021,0.01089 -0.04565,0.613655 -0.09664,1.339443 -0.05099,0.725784 -0.09508,1.34812 -0.09799,1.382969 l -0.0053,0.06336 h 0.180359 c 0.151989,0 0.180356,-0.0021 0.180356,-0.01272 z m 3.368462,-0.321563 c 0.07128,-0.183847 0.15304,-0.394271 0.181677,-0.467605 l 0.05207,-0.133337 0.563782,0.0021 0.563785,0.0021 0.183863,0.465361 0.183865,0.465357 h 0.200639 c 0.187413,0 0.20027,-10e-4 0.194999,-0.01529 -0.0032,-0.0084 -0.265909,-0.649427 -0.584009,-1.424477 l -0.578363,-1.409187 h -0.155076 c -0.138755,0 -0.155935,0.0017 -0.163246,0.01529 -0.0045,0.0084 -0.264546,0.636644 -0.577893,1.396076 -0.31335,0.759432 -0.575063,1.393567 -0.581585,1.409186 l -0.01187,0.0284 h 0.19887 0.198871 z m 0.375939,-0.939457 c 0.0032,-0.0084 0.10069,-0.269918 0.216519,-0.581133 0.115833,-0.311209 0.212094,-0.564342 0.213923,-0.562518 0.0017,0.0017 0.09495,0.263334 0.206946,0.581131 l 0.203627,0.577815 h -0.423465 c -0.399736,0 -0.423138,-7.08e-4 -0.41755,-0.01529 z m 2.416691,-0.1289 v -1.402633 h -0.183523 -0.183523 v 1.402633 1.402633 h 0.183523 0.183523 z m 2.333351,1.245327 V 59.758835 H 93.242754 92.556731 V 58.513507 57.268181 H 92.36884 92.180947 v 1.402633 1.402633 h 0.873916 0.873915 z m -9.097447,-0.92635 v -0.157303 h -0.589889 -0.589893 v 0.157303 0.157306 h 0.589893 0.589889 z"
       id="path302" /></g></svg>
