<?xml version="1.0" encoding="UTF-8" standalone="no"?>
<!-- Created with Inkscape (http://www.inkscape.org/) -->

<svg
   width="8mm"
   height="8.0182619mm"
   viewBox="0 0 8 8.0182619"
   version="1.1"
   id="svg841"
   inkscape:version="1.1.1 (3bf5ae0d25, 2021-09-20)"
   sodipodi:docname="weglogo_white_bg.svg"
   inkscape:export-filename="/home/lukas/nextcloud/NAS/Schule/Planer/weglogo/weglogo_white_bg.png"
   inkscape:export-xdpi="4000.3701"
   inkscape:export-ydpi="4000.3701"
   xmlns:inkscape="http://www.inkscape.org/namespaces/inkscape"
   xmlns:sodipodi="http://sodipodi.sourceforge.net/DTD/sodipodi-0.dtd"
   xmlns="http://www.w3.org/2000/svg"
   xmlns:svg="http://www.w3.org/2000/svg"
   xmlns:rdf="http://www.w3.org/1999/02/22-rdf-syntax-ns#"
   xmlns:cc="http://creativecommons.org/ns#"
   xmlns:dc="http://purl.org/dc/elements/1.1/">
  <defs
     id="defs835" />
  <sodipodi:namedview
     id="base"
     pagecolor="#ffffff"
     bordercolor="#666666"
     borderopacity="1.0"
     inkscape:pageopacity="0.0"
     inkscape:pageshadow="2"
     inkscape:zoom="16.834533"
     inkscape:cx="7.7222218"
     inkscape:cy="14.820726"
     inkscape:document-units="mm"
     inkscape:current-layer="layer1"
     showgrid="false"
     fit-margin-top="0"
     fit-margin-left="0"
     fit-margin-right="0"
     fit-margin-bottom="0"
     inkscape:window-width="1851"
     inkscape:window-height="1020"
     inkscape:window-x="69"
     inkscape:window-y="28"
     inkscape:window-maximized="1"
     inkscape:pagecheckerboard="0" />
  <metadata
     id="metadata838">
    <rdf:RDF>
      <cc:Work
         rdf:about="">
        <dc:format>image/svg+xml</dc:format>
        <dc:type
           rdf:resource="http://purl.org/dc/dcmitype/StillImage" />
      </cc:Work>
    </rdf:RDF>
  </metadata>
  <g
     inkscape:label="Ebene 1"
     inkscape:groupmode="layer"
     id="layer1"
     transform="translate(-44.559997,-87.228607)">
    <path
       style="fill:#ffffff;fill-opacity:1;stroke:none;stroke-width:0.264583px;stroke-linecap:butt;stroke-linejoin:miter;stroke-opacity:1"
       d="m 44.559997,88.630087 6.593588,-1.40148 1.406259,6.616071 -6.593435,1.402191 z"
       id="path856"
       sodipodi:nodetypes="cccccc" />
    <path
       style="display:inline;opacity:1;fill:#008551;fill-opacity:1;fill-rule:nonzero;stroke:none;stroke-width:0.05381816;stroke-miterlimit:4;stroke-dasharray:none;stroke-dashoffset:0;stroke-opacity:1"
       d="m 51.153585,87.228607 -1.496563,0.318098 c -0.189094,0.843105 -0.542575,1.78973 -1.202078,2.64197 0.932529,0.909616 2.182519,1.33518 3.62481,1.397385 z m 0.955239,4.493888 c -5.032551,2.349609 -2.516275,1.174803 0,0 z m 0,0 c -1.474794,-0.05773 -2.769031,-0.497138 -3.73532,-1.431076 -0.08787,0.108388 -0.181018,0.21499 -0.279477,0.319568 1.026602,0.979422 2.409093,1.573704 4.157527,1.783282 z m 0.172536,0.811774 c -5.147575,1.808427 -2.573788,0.904214 0,0 z m 0,0 c -1.791891,-0.207214 -3.219203,-0.819719 -4.278638,-1.828934 -0.08346,0.08467 -0.169624,0.168254 -0.260692,0.249672 1.37743,1.323695 3.091302,2.023248 4.69077,2.292176 z m 0.227003,1.068268 c -5.29891,1.096248 -2.649455,0.548125 0,0 z m 0,0 c -1.701802,-0.263333 -3.551545,-1.003276 -5.02566,-2.430391 -0.569202,0.452138 -1.273111,0.839043 -2.145354,1.115285 l 0.62906,2.959438 6.593588,-1.40148 z M 45.266719,91.95506 c -0.471148,2.194566 -0.235574,1.097283 0,0 z m 0,0 c 0.803928,-0.258213 1.453791,-0.610533 1.980585,-1.020309 -0.09905,-0.103891 -0.196217,-0.21102 -0.291232,-0.321666 -0.51003,0.320984 -1.116492,0.568925 -1.824526,0.705777 z m -0.163405,-0.768537 c -0.362211,2.706925 -0.181105,1.353461 0,0 z m 0,0 c 0.68527,-0.132168 1.271605,-0.369991 1.764916,-0.677232 -0.09136,-0.109955 -0.180426,-0.223378 -0.267513,-0.339928 -0.455452,0.205728 -0.995866,0.34661 -1.629113,0.397335 z m -0.159941,-0.752689 c -0.255583,3.208716 -0.127792,1.604358 0,0 z m 0,0 c 0.615032,-0.0474 1.137244,-0.180145 1.577163,-0.373721 -0.354324,-0.490414 -0.66949,-1.038571 -0.935089,-1.648004 l -1.02545,0.217978 z m 0.979273,-2.093404 c -0.908432,4.60432 -0.454216,2.30216 0,0 z m 0,0 c 0.258182,0.580492 0.563035,1.101879 0.904445,1.568242 0.116486,-0.0646 0.225757,-0.134076 0.328803,-0.207482 -0.296315,-0.438742 -0.546501,-0.92683 -0.750906,-1.463295 z m 0.616256,-0.130976 c -1.319269,4.691636 -0.659635,2.345818 0,0 z m 0,0 c 0.198709,0.517731 0.439595,0.988811 0.724039,1.412394 0.122423,-0.09485 0.234639,-0.195823 0.337304,-0.301621 C 47.38,88.960181 47.19138,88.555306 47.037512,88.103457 Z m 0.631369,-0.134228 c -1.740182,4.781122 -0.870091,2.39056 0,0 z m 0,0 c 0.145206,0.423447 0.320649,0.804061 0.524007,1.143725 0.375697,-0.422913 0.6077,-0.914342 0.721625,-1.408405 z m 1.390671,-0.295535 c -2.667296,4.978145 -1.333648,2.489072 0,0 z m 0,0 c -0.115774,0.545568 -0.371976,1.091237 -0.794564,1.554705 0.05481,0.08633 0.110875,0.170797 0.169386,0.251666 0.484069,-0.576791 0.783686,-1.234479 0.913366,-1.867661 z m 0.431652,-0.09172 c -2.955064,5.039294 -1.477532,2.519646 0,0 z m 0,0 c -0.129163,0.681086 -0.449256,1.390779 -0.97413,2.007555 0.06692,0.08715 0.135967,0.171091 0.207273,0.251666 0.565932,-0.745357 0.882399,-1.566334 1.066379,-2.322926 z m 0.299522,-0.0637 c -3.154745,5.081764 -1.577372,2.540883 0,0 z m -1.619982,1.809099 c -0.102605,0.103609 -0.214087,0.202466 -0.334785,0.295746 0.06514,0.09276 0.132157,0.183542 0.201606,0.271605 0.109544,-0.100549 0.212688,-0.204747 0.308758,-0.312326 -0.06054,-0.08214 -0.118862,-0.167393 -0.175579,-0.255025 z m 0.257963,0.363331 c -0.09584,0.106107 -0.198022,0.209026 -0.306554,0.30834 0.07694,0.09317 0.156454,0.183497 0.238443,0.271186 0.09986,-0.106121 0.193583,-0.214552 0.281681,-0.324816 -0.07334,-0.08169 -0.144703,-0.166454 -0.21357,-0.25471 z m -0.699585,0.01166 c -0.102083,0.07284 -0.209524,0.142253 -0.323976,0.206749 0.07907,0.104379 0.1599,0.205996 0.242536,0.304769 0.101483,-0.07408 0.198411,-0.151204 0.290812,-0.231095 -0.07214,-0.09094 -0.141767,-0.184616 -0.209372,-0.280423 z m 0.294065,0.384426 c -0.09184,0.07933 -0.187952,0.156004 -0.288398,0.229733 0.08853,0.102279 0.179065,0.201337 0.271186,0.297527 0.09202,-0.08121 0.179178,-0.164491 0.262896,-0.249146 -0.08448,-0.08993 -0.16642,-0.182577 -0.245684,-0.278114 z"
       id="rect11362"
       inkscape:connector-curvature="0"
       sodipodi:nodetypes="cccccccccccccccccccccccccccccccccccccccccccccccccccccccccccccccccccccccccccccccccccccccccccccccccccccccc" />
  </g>
</svg>
