<?xml version="1.0" encoding="UTF-8" standalone="no"?>
<svg
   xmlns:dc="http://purl.org/dc/elements/1.1/"
   xmlns:cc="http://creativecommons.org/ns#"
   xmlns:rdf="http://www.w3.org/1999/02/22-rdf-syntax-ns#"
   xmlns:svg="http://www.w3.org/2000/svg"
   xmlns="http://www.w3.org/2000/svg"
   xmlns:sodipodi="http://sodipodi.sourceforge.net/DTD/sodipodi-0.dtd"
   xmlns:inkscape="http://www.inkscape.org/namespaces/inkscape"
   version="1.0"
   width="1377.9629pt"
   height="858.96405pt"
   viewBox="0 0 1377.9629 858.96405"
   preserveAspectRatio="xMidYMid meet"
   id="svg14"
   sodipodi:docname="gears.svg"
   inkscape:version="0.92.3 (2405546, 2018-03-11)">
  <defs
     id="defs18" />
  <sodipodi:namedview
     pagecolor="#ffffff"
     bordercolor="#666666"
     borderopacity="1"
     objecttolerance="10"
     gridtolerance="10"
     guidetolerance="10"
     inkscape:pageopacity="0"
     inkscape:pageshadow="2"
     inkscape:window-width="1853"
     inkscape:window-height="1025"
     id="namedview16"
     showgrid="false"
     inkscape:snap-global="false"
     fit-margin-top="0"
     fit-margin-left="0"
     fit-margin-right="0"
     fit-margin-bottom="0"
     inkscape:zoom="0.40689655"
     inkscape:cx="591.39834"
     inkscape:cy="793.70073"
     inkscape:window-x="67"
     inkscape:window-y="48"
     inkscape:window-maximized="1"
     inkscape:current-layer="g12" />
  <metadata
     id="metadata2">
Created by potrace 1.15, written by Peter Selinger 2001-2017
<rdf:RDF>
  <cc:Work
     rdf:about="">
    <dc:format>image/svg+xml</dc:format>
    <dc:type
       rdf:resource="http://purl.org/dc/dcmitype/StillImage" />
    <dc:title></dc:title>
  </cc:Work>
</rdf:RDF>
</metadata>
  <g
     transform="matrix(0.1,0,0,-0.1,-148.51483,858.86407)"
     id="g12"
     style="fill:#000000;stroke:none">
    <path
       d="m 2987.8065,7413.5254 c -8.6995,-92.7379 -18.7059,-189.7526 -22.4372,-215.7348 l -5.1695,-47.5213 -60.9588,-17.3791 c -32.8614,-9.5982 -88.3909,-29.1041 -123.5454,-43.1455 -34.9882,-15.0275 -68.8356,-24.792 -74.265,-22.6652 -5.5955,3.1128 -72.3017,67.9224 -147.4188,146.5254 -75.9368,77.4506 -141.9894,144.3987 -146.5988,147.6779 -5.9282,5.0849 -242.2099,-145.301 -253.6869,-161.4341 -1.806,-1.3188 37.6578,-91.0049 87.1835,-198.2626 48.706,-108.4099 88.0034,-197.1102 86.1975,-198.4288 -22.4784,-23.0591 -114.6734,-125.8213 -142.3915,-159.9052 l -37.888,-45.9401 -205.778,59.6105 -205.7779,59.6106 -63.8614,-132.464 c -35.3703,-72.8969 -63.3625,-135.4224 -62.6973,-139.3666 0.6651,-3.9444 79.3589,-61.6618 174.0195,-129.8701 l 172.8554,-122.9675 -19.2371,-84.3738 c -11.4186,-46.5469 -21.6614,-106.0791 -24.2404,-132.8812 -5.645,-56.7286 6.5088,-50.6224 -216.4756,-105.4668 -71.972,-18.2222 -149.694,-38.4282 -170.8888,-45.0448 l -39.5977,-11.7484 11.1272,-144.1569 c 6.4009,-80.0502 13.7645,-147.7684 18.2077,-150.0616 3.4572,-2.4594 96.6939,-14.117 207.0266,-24.9198 110.3327,-10.8029 206.3614,-20.9756 212.943,-23.9222 6.5816,-2.9466 14.8379,-21.8366 18.1637,-41.5582 3.3258,-19.7214 21.6793,-74.4312 39.8547,-122.072 18.0091,-46.655 32.2285,-88.8782 30.9216,-93.155 -2.2931,-4.4433 -69.8946,-72.6343 -150.957,-151.2086 -82.0484,-78.7403 -147.5115,-147.585 -146.68,-152.5154 1.8291,-10.8468 149.0555,-228.3932 159.5932,-236.7573 6.9141,-4.9187 290.7639,115.9667 376.4942,160.848 15.9319,7.7573 30.58,-0.9277 86.9033,-52.2765 36.2339,-34.4543 82.3404,-73.3284 101.7643,-86.2787 19.5903,-13.9362 36.0561,-27.3853 36.7212,-31.3297 0.6653,-3.9442 -24.7975,-99.5092 -55.6546,-211.1956 -31.6767,-112.8386 -56.486,-206.2651 -54.3475,-206.9186 28.3103,-17.5364 259.1663,-123.6237 267.0549,-122.2935 5.9164,0.9978 64.7862,78.8718 132.0085,173.366 l 122.1477,171.7031 54.1147,-14.1988 c 29.6057,-7.1768 87.1657,-17.7521 126.7983,-24.252 40.4526,-5.3475 76.3072,-13.4986 81.7366,-15.6254 4.6094,-3.2792 30.268,-95.2935 57.9337,-205.2235 27.4996,-108.9438 53.1582,-200.9582 57.7676,-204.2374 3.6235,-3.4453 72.1733,-1.0121 151.2374,5.2225 117.2002,8.6095 143.9906,12.1133 146.1056,23.6253 1.7941,7.4014 11.9669,103.4302 22.936,212.7768 l 19.3479,197.9738 32.3625,12.5565 c 18.0701,7.1038 76.3916,28.0946 130.9351,47.4341 l 97.4201,35.6973 150.7213,-154.0815 c 144.6269,-148.0104 150.555,-153.0955 172.3915,-138.2575 12.8075,8.2446 68.3019,45.9985 124.6161,84.905 l 101.7933,69.9007 -80.5669,177.0677 c -43.7521,97.0759 -84.0356,185.6098 -88.9894,196.9439 -6.7713,16.0981 0.1079,29.4276 37.5204,66.1605 25.1041,25.5301 64.7979,72.789 88.9043,104.2355 l 43.1276,56.9651 208.5698,-58.1257 c 113.9913,-32.4966 209.3898,-56.9732 211.0293,-54.6685 11.1445,18.1053 118.7168,246.1693 120.1784,255.5429 0.8081,7.2351 -75.7589,70.3818 -169.7659,140.7286 -152.9443,113.1418 -172.0473,130.2025 -165.1798,149.6149 4.0872,11.8446 15.4824,70.557 26.545,131.2416 l 19.0241,109.6908 119.4582,31.3009 c 65.8891,18.2105 160.2081,42.2295 208.8469,54.4884 l 88.5688,22.0353 -8.2886,121.3107 c -5.2251,67.0649 -11.769,135.9357 -14.4297,151.7128 l -4.9887,29.5824 -211.2918,20.1441 c -182.3514,16.9117 -212.6105,21.95 -218.5618,39.2005 -3.8015,10.5142 -21.656,62.2658 -38.6907,115.1696 -18.0209,52.7376 -35.5427,102.517 -40.8175,109.7404 -5.7735,10.1817 35.2392,55.6345 148.4626,165.9995 l 156.0537,151.0538 -83.42,121.8241 c -51.2731,75.5253 -88.1841,120.0066 -97.225,119.496 -7.8887,-1.3303 -93.7969,-39.1428 -190.8728,-82.8949 -179.8597,-82.052 -205.6523,-91.4722 -207.9803,-77.6672 -0.8315,4.9304 -44.146,45.2895 -96.5133,91.2207 l -96.0025,82.1797 54.5372,193.7671 c 30.7024,106.5896 56.664,199.1964 58.6244,205.6116 0.8082,7.2352 -58.7708,41.809 -133.6397,76.8467 l -134.6026,64.5149 -124.7733,-174.1742 -124.607,-175.1601 -93.7474,20.6987 c -50.4913,10.7534 -112.162,21.6497 -134.8534,23.9078 -49.4934,4.8369 -41.2372,-14.0533 -111.1558,268.2505 l -37.9409,152.8184 -41.427,-0.9015 c -40.2745,-1.7214 -241.8017,-15.4247 -255.6068,-17.7528 -2.9582,-0.4989 -13.4986,-76.3072 -22.3643,-168.0591 z m 284.9802,-553.3139 c 394.381,6.6759 764.5308,-209.7848 950.6373,-555.6524 54.6108,-101.3294 90.6524,-206.8045 111.4391,-330.0641 40.908,-242.5748 1.0774,-475.4406 -117.3768,-687.0856 -114.5216,-204.897 -281.2559,-358.7661 -496.9236,-456.9979 -107.2576,-49.5258 -336.8353,-95.3409 -455.2112,-90.9651 -411.0248,13.8423 -769.0441,248.5744 -940.8935,618.1428 -56.7842,120.2313 -99.9153,321.8664 -97.5349,452.0752 4.819,230.0039 75.4428,436.625 213.3444,623.1543 198.2446,267.6939 499.619,422.9723 832.5192,427.3928 z"
       id="path4"
       style="fill:#008551;fill-opacity:1"
       inkscape:connector-curvature="0" />
    <path
       d="m 12854.42,8572.4125 c -2.732,-10.0762 -35.494,-132.986 -73.772,-274.0486 -37.308,-140.0366 -68.253,-255.896 -68.198,-257.8955 0.03,-0.9997 -32.856,-5.8714 -71.738,-10.9024 -39.877,-5.0575 -121.506,-20.2231 -182.141,-34.8334 -59.634,-14.5835 -109.351,-25.9035 -110.377,-24.9302 -1.002,-0.026 -72.625,98.1126 -159.796,216.8465 -86.176,118.7611 -160.877,219.8192 -164.981,223.7119 -6.155,5.839 -350.091,-152.3196 -365.688,-167.7378 -1.918,-3.0522 30.324,-125.2411 71.281,-274.2093 65.176,-232.3565 73.204,-271.1575 60.395,-278.4992 -26.593,-15.7095 -132.359,-101.539 -186.069,-150.9777 -28.301,-26.7588 -58.576,-54.5696 -67.389,-61.8055 -13.704,-11.3663 -52.062,1.6227 -270.604,94.871 -139.621,59.3255 -257.955,108.2101 -262.953,108.0778 -6.998,-0.185 -199.993,-267.3871 -225.793,-313.0857 -4.761,-9.129 55.914,-71.5454 197.439,-202.8454 l 204.118,-190.6646 -31.084,-72.8477 c -16.936,-40.4623 -44.939,-116.23 -61.556,-168.6886 -16.617,-52.4582 -30.449,-96.8397 -31.395,-98.8655 -1.947,-2.052 -129.583,-17.4357 -285.159,-35.5598 -155.572,-18.1245 -286.133,-36.5859 -289.051,-39.6647 -5.813,-7.1564 -41.844,-384.2421 -36.74,-388.1084 2.027,-0.9472 127.831,-29.6227 279.807,-64.6166 l 276.758,-62.6969 8.955,-73.7886 c 8.823,-68.7904 36.469,-206.1071 50.736,-253.7467 5.499,-18.8605 -22.882,-42.6199 -223.183,-184.9716 -125.653,-90.357 -232.656,-167.2166 -236.55,-171.3208 -6.837,-6.1835 142.74,-328.3369 161.265,-347.8538 3.105,-3.919 131.265,29.4847 284.125,74.547 151.863,45.0351 276.947,81.3577 277.998,79.3852 15.631,-23.5948 142.635,-173.2853 181.733,-214.2647 l 52.492,-55.6302 -121.31,-254.3002 -122.287,-255.3258 31.625,-23.1712 c 17.339,-12.5455 91.687,-62.5949 164.961,-109.6719 l 133.336,-86.5017 201.713,202.41 c 110.077,111.9524 208.713,202.5949 217.708,202.8332 9.022,-0.7644 50.405,-14.6706 91.869,-31.5795 41.434,-15.9083 112.072,-39.0472 156.402,-50.8783 l 80.578,-20.8738 7.322,-49.824 c 4.713,-26.8845 15.939,-148.6301 26.139,-269.4025 10.228,-121.772 21.978,-225.4977 26.134,-231.3893 7.314,-11.8103 387.134,-37.7663 396.868,-27.5053 2.92,3.078 24.819,82.6858 50.375,175.3942 95.513,359.6543 98.353,365.7319 122.213,371.3652 11.943,2.317 61.714,11.6375 109.54,18.906 48.797,8.2942 119.427,23.169 157.149,34.1712 l 69.524,18.8469 70.518,-94.1663 c 38.392,-52.0025 113.092,-153.0603 166.005,-224.6848 78.86,-106.9505 99.462,-129.4132 115.322,-123.9912 24.779,8.659 335.831,161.9456 342.673,168.1283 2.917,3.0788 -28.277,123.2953 -69.076,266.2656 -39.821,143.996 -73.016,264.1595 -73.095,267.1586 -0.106,3.9986 34.116,33.9147 76.28,66.042 41.136,33.1009 103.737,86.7765 138.879,119.7179 l 63.47,58.7005 101.154,-42.3372 c 55.644,-23.5357 173.033,-74.4467 261.061,-112.1298 l 159.876,-68.7926 115.698,164.1196 115.669,165.1197 -204.225,194.6629 -205.25,195.6358 36.871,81.0042 c 19.824,44.5407 46.885,118.2826 60.662,164.6633 13.802,45.3816 27.739,85.7645 31.683,87.8697 3.947,2.1055 133.529,19.5412 289.109,37.6649 155.574,18.1241 284.182,34.5344 285.157,35.5602 1.918,3.0521 29.724,350.9094 29.164,371.9023 -0.448,16.9938 -36.727,27.0374 -277.286,82.6899 l -276.782,63.6964 -14.723,102.6464 c -7.504,56.821 -22.565,134.4495 -31.541,171.2249 -10.004,37.7485 -17.873,70.5512 -17.954,73.5508 -0.05,1.9993 105.925,79.8316 235.522,172.2942 129.624,91.463 235.63,168.2952 235.576,170.2946 -0.03,0.9998 -38.132,80.0189 -84.657,174.8208 -66.657,137.2837 -87.55,170.7424 -101.492,168.3724 -9.944,-2.264 -136.025,-38.6138 -279.969,-80.4382 -143.918,-42.8241 -262.082,-75.9634 -264.134,-74.0172 -2.052,1.9463 -23.811,30.3804 -49.703,63.7071 -25.865,32.3267 -78.434,90.9553 -116.453,128.9626 l -68.884,70.2014 120.392,251.2744 c 65.351,138.7783 119.26,256.2464 119.1,262.2445 -0.262,9.9962 -308.769,213.9023 -323.762,213.5052 -7.999,-0.2115 -137.67,-127.6884 -358.796,-352.6197 l -50.683,-50.3595 -107.048,38.1801 c -58.588,21.4565 -136.25,45.4096 -171.474,53.48 l -64.429,15.3001 -6.48,55.848 c -4.794,29.884 -16.046,152.6289 -25.195,271.4286 -10.172,119.7725 -20.87,221.525 -25,226.4174 -3.157,5.9183 -89.419,14.6384 -190.597,19.9625 -225.425,13.038 -208.454,14.4875 -213.897,-6.664 z m 310.865,-973.1131 c 550.222,-114.4765 951.354,-491.9917 1077.237,-1014.8428 32.566,-134.1854 41.757,-368.0238 19.366,-504.6646 -93.477,-587.6803 -541.142,-1059.6941 -1130.81,-1193.3485 -453.46,-102.0378 -935.918,22.2362 -1266.115,327.6034 -116.899,107.9438 -202.938,221.7061 -278.778,365.7493 -70.602,135.1788 -107.53,245.24 -133.491,394.6051 -74.199,422.1837 68.991,870.1312 383.437,1197.5684 200.556,208.3811 481.564,362.8732 773.004,425.6091 117.404,24.1158 439.476,25.6408 556.15,1.7206 z"
       id="path6"
       style="fill:#008551;fill-opacity:1"
       inkscape:connector-curvature="0" />
    <path
       d="m 6221,6112 c -30,-111 -60,-202 -69,-209 -9,-7 -32,-13 -51,-13 -20,0 -75,-8 -124,-18 l -87,-18 -121,178 c -67,99 -127,177 -133,175 -6,-3 -68,-31 -139,-62 -112,-51 -127,-60 -121,-78 3,-11 28,-105 54,-209 l 48,-189 -56,-41 c -32,-23 -78,-62 -104,-86 l -48,-45 -62,28 c -35,15 -120,56 -190,91 -70,35 -132,64 -137,64 -5,0 -48,-55 -96,-121 l -87,-121 152,-153 152,-152 -28,-64 c -14,-35 -37,-93 -49,-129 -20,-59 -25,-65 -51,-68 -16,-1 -111,-8 -211,-15 -101,-8 -185,-16 -187,-18 -4,-4 -36,-292 -32,-296 1,-1 94,-28 208,-59 l 206,-57 7,-66 c 3,-36 13,-94 21,-129 8,-35 14,-67 14,-71 0,-4 -79,-61 -175,-126 -96,-65 -175,-123 -175,-127 0,-8 109,-257 117,-267 1,-2 93,19 203,47 109,29 203,52 208,52 5,0 29,-26 53,-57 24,-32 63,-79 86,-104 l 43,-46 -94,-196 -94,-195 116,-83 c 63,-46 120,-86 125,-88 5,-2 77,64 161,147 l 151,151 45,-20 c 25,-12 81,-34 125,-50 49,-17 82,-35 87,-46 3,-10 12,-107 19,-215 7,-109 15,-198 18,-198 3,0 65,-7 136,-15 72,-8 137,-15 146,-15 11,0 28,47 69,193 29,105 57,200 62,210 6,11 21,17 46,17 20,0 80,9 132,19 52,11 95,18 96,17 0,0 53,-79 118,-174 65,-96 116,-175 114,-177 -2,-2 -67,25 -145,61 -79,35 -144,64 -146,64 -7,0 -167,-238 -167,-247 0,-4 68,-73 151,-152 105,-101 149,-149 145,-160 -3,-9 -23,-68 -45,-131 -30,-85 -45,-116 -58,-118 -10,-1 -105,-11 -211,-21 -107,-11 -195,-21 -197,-23 -6,-6 -27,-289 -22,-294 3,-3 96,-29 208,-57 l 202,-53 23,-119 c 12,-66 25,-127 28,-135 4,-11 -43,-50 -169,-139 -96,-68 -175,-128 -175,-132 0,-4 26,-62 59,-127 32,-66 60,-125 62,-131 3,-7 80,11 214,48 115,33 210,59 210,58 2,-9 89,-113 128,-153 l 49,-52 -90,-198 -90,-198 121,-83 c 67,-46 124,-83 128,-83 4,0 73,68 154,152 141,144 148,151 174,141 14,-6 71,-26 126,-44 55,-18 101,-34 103,-35 2,-1 13,-98 25,-216 l 22,-213 65,-6 c 36,-4 103,-9 150,-13 l 85,-7 29,113 c 15,62 40,156 53,210 l 26,96 78,12 c 43,6 102,17 131,25 29,7 56,11 60,9 3,-2 62,-81 129,-175 67,-93 125,-168 129,-167 83,33 260,125 260,134 0,8 -25,102 -56,210 -30,108 -54,197 -52,199 2,1 30,24 63,50 33,26 79,66 102,87 l 41,40 189,-86 c 103,-47 193,-86 198,-86 6,0 49,55 95,122 l 84,122 -156,151 -156,150 24,55 c 13,30 33,87 45,125 11,39 23,72 25,74 2,2 99,13 216,25 l 213,21 11,145 c 6,80 9,148 5,152 -3,3 -96,29 -205,57 -110,28 -201,53 -203,55 -2,2 -8,32 -13,67 -6,35 -17,95 -26,132 -9,37 -15,69 -13,71 2,1 81,58 176,125 l 172,122 -23,52 c -66,146 -102,216 -112,217 -6,0 -100,-25 -210,-56 l -199,-55 -18,23 c -10,13 -49,58 -85,101 -37,43 -68,82 -70,86 -1,4 36,92 83,195 47,103 85,191 85,194 -1,4 -56,44 -123,90 l -122,83 -152,-155 -151,-155 -70,29 c -39,16 -97,36 -130,45 l -59,17 -20,209 c -11,115 -23,212 -27,216 -9,10 -284,28 -292,20 -4,-3 -30,-98 -59,-209 l -52,-203 -59,-7 c -32,-3 -90,-13 -127,-22 -38,-9 -72,-16 -77,-16 -8,0 -250,332 -250,343 0,3 68,-28 151,-69 83,-41 152,-74 154,-74 1,0 42,54 90,120 l 87,120 -149,157 -149,156 37,91 c 20,50 40,106 44,124 4,19 12,35 18,37 7,3 104,11 216,20 113,8 206,17 208,18 6,6 34,290 29,295 -3,3 -97,31 -208,62 l -203,57 -3,34 c -3,36 -28,180 -38,215 -5,17 21,38 175,142 l 179,122 -60,135 c -34,74 -66,135 -73,135 -7,0 -99,-22 -206,-50 -107,-27 -197,-50 -200,-50 -3,0 -20,20 -38,45 -18,25 -57,73 -86,106 l -53,61 89,184 c 49,101 90,189 91,195 3,12 -218,179 -237,179 -5,0 -75,-65 -155,-145 -80,-80 -151,-145 -158,-145 -7,0 -29,8 -50,19 -20,10 -74,31 -118,46 l -82,27 -6,62 c -3,33 -11,129 -17,211 -6,83 -14,153 -17,156 -7,6 -233,29 -277,29 -17,0 -27,-25 -74,-198 z m 210,-557 c 443,-77 791,-430 864,-876 82,-508 -216,-1005 -706,-1172 -531,-183 -1115,86 -1329,610 -82,204 -97,459 -39,673 25,89 92,236 146,317 117,178 337,344 546,413 152,50 357,64 518,35 z m 840,-2050 30,-16 -133,-65 c -73,-36 -134,-67 -135,-68 -1,-1 24,-94 56,-208 l 58,-207 -76,-60 c -42,-33 -89,-73 -105,-90 l -28,-30 -44,22 c -24,11 -44,23 -44,26 0,4 61,33 135,65 74,32 135,61 135,63 0,3 -22,92 -50,199 -27,107 -50,200 -50,208 0,7 30,36 68,64 37,27 80,64 96,81 34,35 45,37 87,16 z m 954,-679 c 176,-52 320,-133 444,-251 244,-232 364,-547 331,-872 -38,-374 -253,-685 -585,-848 -191,-93 -384,-129 -578,-108 -604,69 -1029,606 -946,1199 55,397 332,735 706,860 137,46 195,54 373,50 143,-3 177,-7 255,-30 z"
       id="path8"
       style="fill:#008551;fill-opacity:1"
       inkscape:connector-curvature="0" />
    <path
       d="m 10930,4412 -53,-210 -76,-12 c -42,-6 -102,-18 -135,-26 -32,-8 -59,-14 -61,-12 -1,2 -55,77 -120,168 -64,91 -121,169 -125,173 -11,12 -281,-119 -275,-135 10,-28 114,-402 112,-404 -71,-55 -131,-105 -164,-137 l -42,-40 -191,87 c -105,47 -194,86 -199,86 -5,0 -46,-55 -91,-121 l -83,-122 153,-151 152,-151 -17,-45 c -10,-25 -29,-81 -43,-125 -14,-44 -27,-82 -29,-84 -2,-3 -99,-14 -216,-25 l -212,-21 -7,-80 c -4,-44 -9,-112 -13,-151 l -6,-71 210,-53 210,-53 7,-46 c 6,-43 25,-146 38,-201 5,-23 -9,-35 -170,-149 -96,-68 -174,-127 -172,-131 35,-86 125,-260 135,-260 8,0 102,25 211,56 l 197,55 25,-32 c 14,-18 54,-66 89,-107 l 63,-73 -86,-188 c -47,-104 -86,-192 -86,-197 0,-5 55,-47 123,-93 l 122,-83 151,157 c 145,151 152,157 175,144 13,-7 71,-29 129,-49 l 105,-36 20,-205 c 11,-112 23,-209 27,-215 5,-7 60,-14 135,-18 71,-4 135,-9 144,-12 13,-3 25,34 69,206 47,183 56,211 74,214 12,2 62,11 111,20 50,9 101,18 115,22 24,5 35,-8 145,-162 66,-92 123,-171 126,-176 3,-5 66,21 140,57 101,50 133,70 131,83 -2,9 -28,103 -58,207 l -53,190 32,25 c 17,14 64,53 104,88 40,34 75,62 78,62 3,0 91,-39 196,-86 105,-48 194,-82 198,-78 4,5 43,60 86,123 l 78,113 -153,153 -153,153 36,99 c 20,54 40,112 45,128 l 9,30 211,21 c 117,12 214,23 216,25 5,6 27,291 23,295 -2,3 -96,28 -210,57 l -205,52 -12,77 c -6,43 -18,104 -26,135 -8,31 -11,59 -7,63 4,4 80,58 168,120 88,62 164,116 168,120 13,11 -119,281 -135,275 -7,-3 -94,-28 -193,-55 -99,-28 -187,-53 -196,-55 -11,-4 -25,7 -41,32 -14,21 -54,69 -88,106 l -62,68 86,189 c 47,105 86,194 86,199 0,5 -55,46 -121,91 l -121,82 -153,-152 -153,-153 -44,18 c -23,10 -81,30 -128,45 l -85,27 -20,214 -20,214 -85,7 c -47,3 -115,9 -151,13 l -66,6 z m 285,-557 c 232,-48 462,-191 611,-378 75,-94 163,-265 193,-377 102,-378 -4,-770 -283,-1043 -412,-403 -1081,-400 -1486,5 -210,210 -312,454 -314,748 -2,270 81,494 259,704 155,182 413,321 660,355 93,13 261,6 360,-14 z"
       id="path10"
       style="fill:#008551;fill-opacity:1"
       inkscape:connector-curvature="0" />
  </g>
</svg>
