<?xml version="1.0" encoding="UTF-8" standalone="no"?>
<!-- Created with Inkscape (http://www.inkscape.org/) -->

<svg
   xmlns:dc="http://purl.org/dc/elements/1.1/"
   xmlns:cc="http://creativecommons.org/ns#"
   xmlns:rdf="http://www.w3.org/1999/02/22-rdf-syntax-ns#"
   xmlns:svg="http://www.w3.org/2000/svg"
   xmlns="http://www.w3.org/2000/svg"
   xmlns:sodipodi="http://sodipodi.sourceforge.net/DTD/sodipodi-0.dtd"
   xmlns:inkscape="http://www.inkscape.org/namespaces/inkscape"
   width="124.54315mm"
   height="67.46875mm"
   viewBox="0 0 124.54315 67.46875"
   version="1.1"
   id="svg8"
   inkscape:version="0.92.3 (2405546, 2018-03-11)"
   sodipodi:docname="gitea.svg">
  <defs
     id="defs2" />
  <sodipodi:namedview
     id="base"
     pagecolor="#ffffff"
     bordercolor="#666666"
     borderopacity="1.0"
     inkscape:pageopacity="0.0"
     inkscape:pageshadow="2"
     inkscape:zoom="0.98994949"
     inkscape:cx="350.00137"
     inkscape:cy="124.6619"
     inkscape:document-units="mm"
     inkscape:current-layer="layer1"
     showgrid="false"
     fit-margin-top="0"
     fit-margin-left="0"
     fit-margin-right="0"
     fit-margin-bottom="0"
     inkscape:window-width="1920"
     inkscape:window-height="1052"
     inkscape:window-x="1920"
     inkscape:window-y="0"
     inkscape:window-maximized="1" />
  <metadata
     id="metadata5">
    <rdf:RDF>
      <cc:Work
         rdf:about="">
        <dc:format>image/svg+xml</dc:format>
        <dc:type
           rdf:resource="http://purl.org/dc/dcmitype/StillImage" />
        <dc:title />
      </cc:Work>
    </rdf:RDF>
  </metadata>
  <g
     inkscape:label="Ebene 1"
     inkscape:groupmode="layer"
     id="layer1"
     transform="translate(-59.241573,-108.90902)">
    <rect
       style="opacity:1;fill:#ffffff;fill-opacity:1;stroke:none;stroke-width:0.76499999;stroke-linecap:round;stroke-linejoin:round;stroke-miterlimit:4;stroke-dasharray:none;stroke-dashoffset:0;stroke-opacity:1"
       id="rect816"
       width="124.54315"
       height="67.46875"
       x="59.241573"
       y="108.90902"
       ry="18.23735" />
    <path
       style="fill:#5f9825;fill-opacity:1;stroke-width:0.26458335"
       d="m 110.94875,165.03138 c -3.23498,-1.20593 -8.45747,-6.97391 -10.68704,-11.80333 l -0.689037,-1.4925 -2.019608,-0.18023 c -12.04474,-1.07485 -18.531298,-7.29417 -18.647023,-17.87882 -0.02688,-2.45859 0.07813,-3.39827 0.547022,-4.8948 1.26116,-4.02519 4.149323,-6.94447 8.230719,-8.31939 1.997608,-0.67295 4.815512,-0.70081 14.199657,-0.14041 3.63802,0.21725 9.73997,0.47219 13.55989,0.56653 l 6.94532,0.17153 v 6.43518 6.43518 l 1.05833,0.53993 1.05833,0.53992 v -6.97646 -6.97646 l 6.15156,-0.15634 c 3.38336,-0.086 9.21525,-0.30555 12.95975,-0.48792 l 6.80817,-0.33159 0.62725,0.58927 c 2.31148,2.17152 1.77411,11.45887 -1.26889,21.93008 -3.25169,11.18935 -8.22963,19.58411 -13.00276,21.92775 l -1.55945,0.76571 -11.64167,0.0529 c -9.40194,0.0427 -11.83191,-0.018 -12.63052,-0.31572 z m 16.12601,-6.89323 c 0.85844,-0.56247 7.22905,-13.54 7.39727,-15.06895 0.21771,-1.97861 -0.39461,-2.52605 -5.63913,-5.04163 -2.56208,-1.22892 -4.79227,-2.23047 -4.95598,-2.22566 -0.16371,0.005 -0.6164,0.71476 -1.00599,1.57766 -0.98485,2.18137 -0.70141,2.90481 1.57767,4.02679 0.91754,0.45171 1.97323,1.18373 2.34599,1.62672 0.96172,1.14294 0.77721,2.78113 -0.65688,5.83211 -1.02225,2.17479 -1.08299,2.42449 -0.78817,3.2398 0.28063,0.77609 0.2536,0.97194 -0.22253,1.61235 -0.71473,0.9613 -2.20104,1.13399 -2.98787,0.34715 -1.02218,-1.02218 -0.48833,-2.94753 0.91493,-3.29972 0.52954,-0.13291 0.87761,-0.60865 1.59156,-2.17529 1.46226,-3.20872 1.62802,-3.95565 1.02583,-4.62244 -0.27758,-0.30735 -1.17346,-0.89671 -1.99084,-1.30968 -1.30107,-0.65734 -1.60033,-0.71581 -2.40296,-0.46948 -0.81074,0.24882 -1.05988,0.56938 -2.15341,2.77075 -1.14759,2.31021 -1.22462,2.5913 -1.07017,3.9054 0.14354,1.22126 0.0892,1.49329 -0.39534,1.97779 -0.95697,0.95697 -2.45247,0.70785 -3.08419,-0.51377 -0.50707,-0.98055 -0.14101,-1.96795 0.95404,-2.57342 0.60217,-0.33296 1.16403,-1.13749 2.13209,-3.05295 1.15605,-2.28742 1.29444,-2.73432 1.14839,-3.70827 -0.13422,-0.89502 -0.0569,-1.24617 0.40304,-1.83091 0.31301,-0.39793 0.77304,-0.7235 1.02228,-0.7235 0.29379,0 0.74768,-0.59722 1.29051,-1.69802 l 0.83733,-1.69802 -0.5821,-0.36361 c -2.35524,-1.47123 -4.05267,-1.55759 -5.2872,-0.26902 -0.68755,0.71764 -6.88383,13.12118 -7.21606,14.4449 -0.11273,0.44913 0.0227,1.08307 0.396,1.85429 0.45094,0.93153 0.84986,1.30787 1.94517,1.83509 0.75784,0.36478 3.81868,1.84734 6.80186,3.29457 2.98317,1.44724 5.60255,2.70421 5.82083,2.79328 0.60851,0.24829 2.09688,-0.0113 2.83403,-0.49431 z M 97.378665,144.59056 c -1.279471,-3.02598 -3.267081,-10.70601 -3.817474,-14.75053 -0.158424,-1.16416 -0.353302,-2.51902 -0.433064,-3.01079 l -0.14502,-0.89413 -1.767526,0.12688 c -2.118076,0.15204 -3.56039,0.82782 -4.876822,2.28495 -1.134998,1.25631 -1.518552,2.47058 -1.516297,4.80039 0.0044,4.53561 2.302197,8.44265 6.002101,10.20556 1.797975,0.8567 4.600374,1.66216 5.861688,1.68477 0.746844,0.0134 0.857034,-0.0578 0.692414,-0.4471 z"
       id="path826"
       inkscape:connector-curvature="0" />
  </g>
</svg>
