<?xml version="1.0" encoding="UTF-8" standalone="no"?>
<!-- Created with Inkscape (http://www.inkscape.org/) -->

<svg
   xmlns:dc="http://purl.org/dc/elements/1.1/"
   xmlns:cc="http://creativecommons.org/ns#"
   xmlns:rdf="http://www.w3.org/1999/02/22-rdf-syntax-ns#"
   xmlns:svg="http://www.w3.org/2000/svg"
   xmlns="http://www.w3.org/2000/svg"
   xmlns:sodipodi="http://sodipodi.sourceforge.net/DTD/sodipodi-0.dtd"
   xmlns:inkscape="http://www.inkscape.org/namespaces/inkscape"
   width="217.83977mm"
   height="74.157867mm"
   viewBox="0 0 217.83977 74.157867"
   version="1.1"
   id="svg8"
   inkscape:version="0.92.3 (2405546, 2018-03-11)"
   sodipodi:docname="groupwise.svg">
  <defs
     id="defs2" />
  <sodipodi:namedview
     id="base"
     pagecolor="#ffffff"
     bordercolor="#666666"
     borderopacity="1.0"
     inkscape:pageopacity="0.0"
     inkscape:pageshadow="2"
     inkscape:zoom="0.7"
     inkscape:cx="389.43082"
     inkscape:cy="193.48065"
     inkscape:document-units="mm"
     inkscape:current-layer="layer1"
     showgrid="false"
     fit-margin-top="0"
     fit-margin-left="0"
     fit-margin-right="0"
     fit-margin-bottom="0"
     inkscape:window-width="1920"
     inkscape:window-height="1052"
     inkscape:window-x="1920"
     inkscape:window-y="0"
     inkscape:window-maximized="1" />
  <metadata
     id="metadata5">
    <rdf:RDF>
      <cc:Work
         rdf:about="">
        <dc:format>image/svg+xml</dc:format>
        <dc:type
           rdf:resource="http://purl.org/dc/dcmitype/StillImage" />
        <dc:title />
      </cc:Work>
    </rdf:RDF>
  </metadata>
  <g
     inkscape:label="Ebene 1"
     inkscape:groupmode="layer"
     id="layer1"
     transform="translate(-3.6979752,-82.289215)">
    <rect
       style="opacity:1;fill:#ffffff;fill-opacity:1;stroke:none;stroke-width:0.76499999;stroke-linecap:round;stroke-linejoin:round;stroke-miterlimit:4;stroke-dasharray:none;stroke-dashoffset:0;stroke-opacity:1"
       id="rect824"
       width="217.83977"
       height="74.157867"
       x="3.6979752"
       y="82.289215"
       ry="14.13414" />
    <path
       style="fill:#0073e7;fill-opacity:1;stroke-width:0.21313107"
       d="m 28.746852,123.31108 v -16.41242 h 3.836359 3.83636 v -3.94293 -3.942916 h 16.411093 16.411093 v 16.411086 16.41109 h -3.831551 -3.831551 l -0.05809,3.88965 -0.05809,3.88964 -16.357811,0.0546 -16.35781,0.0546 z m 32.609055,-3.94425 V 107.11179 H 48.994305 36.632702 v 12.25504 12.25503 h 12.361603 12.361602 z m 63.200753,19.84795 c -0.7214,-0.72141 -0.78102,-1.49943 -0.70991,-9.26333 l 0.0631,-6.89213 0.598,-0.51418 0.598,-0.51417 h 7.46409 7.4641 l 0.623,0.62299 c 0.61004,0.61005 0.623,0.66989 0.623,2.87727 v 2.25427 h -1.81162 -1.81161 v -1.06565 -1.06566 h -5.11515 -5.11514 v 5.22171 5.22172 h 5.11514 5.11515 v -1.06566 -1.06565 h 1.81161 1.81162 v 2.01471 c 0,1.1081 -0.11458,2.2662 -0.25463,2.57356 -0.51306,1.12605 -0.8129,1.16626 -8.69598,1.16626 h -7.26673 z m 46.15097,-0.0555 c -0.37909,-0.48193 -0.44174,-0.85975 -0.44174,-2.66414 v -2.10257 h 1.81162 1.81161 v 0.85253 0.85252 h 5.00858 5.00858 v -1.70505 -1.70505 h -6.15206 c -5.90115,0 -6.17496,-0.018 -6.71362,-0.44173 l -0.56157,-0.44173 v -4.44481 -4.44482 l 0.56157,-0.44173 c 0.54369,-0.42767 0.79769,-0.44173 7.98052,-0.44173 h 7.41897 l 0.59172,0.50898 c 0.56536,0.4863 0.59546,0.60979 0.67546,2.77071 l 0.0837,2.26172 h -1.83579 -1.83579 v -0.95909 -0.95909 h -5.11514 -5.11515 v 1.70505 1.70504 h 6.27549 6.27548 l 0.59799,0.51402 0.598,0.51402 0.0721,3.692 c 0.0455,2.33265 -0.0164,3.98703 -0.16803,4.49332 -0.42752,1.42691 -0.52836,1.4432 -8.93604,1.4432 h -7.4547 z m -91.874974,-8.4965 v -8.84494 h 8.631809 8.631808 v 1.91818 1.91818 h -6.92676 -6.92676 v 1.59848 1.59848 h 5.115146 5.115146 v 1.91818 1.91818 h -5.115146 -5.115146 v 3.4101 3.4101 h -1.705049 -1.705048 z m 22.514074,8.40321 -0.56157,-0.44173 v -7.87039 c 0,-7.58621 0.0154,-7.88577 0.42626,-8.29664 0.4104,-0.4104 0.71044,-0.42626 8.06183,-0.42626 h 7.63557 l 0.46342,0.49328 c 0.45832,0.48787 0.46341,0.57866 0.46341,8.27496 v 7.78168 l -0.49328,0.46341 c -0.4871,0.4576 -0.58698,0.46341 -7.96368,0.46341 -7.23487,0 -7.48809,-0.0139 -8.03196,-0.44173 z m 12.86569,-8.19008 v -5.22171 h -5.00858 -5.00858 v 5.22171 5.22171 h 5.00858 5.00858 z m 33.61848,8.36539 c -0.72472,-0.55033 -0.79629,-1.38972 -0.79629,-9.33836 v -7.87197 h 1.81161 1.81161 v 7.03332 7.03333 h 5.11515 5.11515 v -7.03333 -7.03332 h 1.81161 1.81161 v 8.00299 c 0,8.40366 -0.0611,8.99311 -0.96863,9.34136 -0.18976,0.0728 -3.72361,0.13239 -7.853,0.13239 -5.67719,0 -7.59354,-0.065 -7.85882,-0.26641 z M 78.832656,107.85775 v -8.844936 l 1.758331,0.0061 1.758332,0.0061 2.770704,4.057876 c 1.523887,2.23183 2.866613,4.13746 2.983835,4.23473 0.130626,0.10839 1.359409,-1.46479 3.174265,-4.06395 l 2.961135,-4.240802 h 1.781032 1.781037 v 8.844932 8.84494 h -1.811619 -1.811614 l -6.4e-4,-5.70125 -6.39e-4,-5.70126 -2.376358,3.56995 -2.376152,3.56994 -1.19305,-0.003 -1.193053,-0.003 -2.397724,-3.55233 -2.397725,-3.55233 v 5.68704 5.68704 h -1.705049 -1.705048 z m 27.493914,0 v -8.844936 h 1.81161 1.81162 v 8.844936 8.84494 h -1.81162 -1.81161 z m 12.88474,8.3218 -0.52314,-0.52314 v -7.88007 -7.880064 l 0.56157,-0.441731 c 0.54377,-0.427728 0.79744,-0.441731 8.00211,-0.441731 h 7.44053 l 0.52314,0.52314 c 0.49228,0.492286 0.52314,0.661996 0.52314,2.877266 v 2.35413 h -1.81161 -1.81162 v -1.06566 -1.06565 h -5.00858 -5.00858 v 5.22171 5.22171 h 5.00858 5.00858 v -1.06566 -1.06565 h 1.81162 1.81161 v 2.35413 c 0,2.21527 -0.0309,2.38499 -0.52314,2.87727 l -0.52314,0.52314 h -7.47896 -7.47897 z m 40.18283,0.36462 -2.23994,-0.068 -2.55551,-3.50554 -2.5555,-3.50554 -1.97147,-0.004 -1.97146,-0.004 v 3.51666 3.51666 h -1.81161 -1.81162 v -8.73837 -8.738372 h 8.19008 8.19008 l 0.44173,0.56157 c 0.41134,0.522942 0.44173,0.837472 0.44173,4.572282 0,2.48544 -0.09,4.20823 -0.23663,4.53008 -0.34341,0.75369 -1.05837,0.99262 -2.97036,0.99262 -0.93226,0 -1.69502,0.0517 -1.69502,0.11485 0,0.0632 1.03568,1.52578 2.30151,3.25025 2.16174,2.94498 2.71721,3.73114 2.5598,3.62296 -0.0362,-0.0249 -1.07384,-0.0759 -2.30581,-0.11326 z m -1.27672,-12.20308 v -1.70505 h -5.00858 -5.00858 v 1.70505 1.70504 h 5.00858 5.00858 z m 12.85303,11.84729 -0.59799,-0.51431 v -7.81618 -7.81618 l 0.59799,-0.514446 0.598,-0.51445 h 7.43582 7.43582 l 0.59799,0.514374 0.598,0.514372 v 7.81619 7.81619 l -0.598,0.51437 -0.59799,0.51438 h -7.43582 -7.43582 z m 13.14896,-8.33063 v -5.22171 h -5.11514 -5.11515 v 5.22171 5.22171 h 5.11515 5.11514 z m 8.20555,-2.25297 c -1.90012,-0.60335 -2.79576,-2.86876 -1.84913,-4.67711 0.44413,-0.84843 1.90222,-1.701907 2.90666,-1.701394 0.93118,4.76e-4 2.05528,0.632368 2.61473,1.469824 0.62812,0.94023 0.65895,2.60915 0.0662,3.58136 -0.69134,1.13384 -2.41756,1.74673 -3.73842,1.32732 z m 2.53309,-0.85625 c 1.071,-0.84245 1.47996,-2.22858 0.95753,-3.24544 -0.84043,-1.635835 -2.17254,-2.165869 -3.64812,-1.45155 -1.11096,0.5378 -1.65411,1.388 -1.65411,2.58917 0,0.75896 0.12812,1.02612 0.82745,1.72545 0.73976,0.73976 0.93999,0.82745 1.88943,0.82745 0.75424,0 1.22596,-0.12898 1.62782,-0.44508 z m -2.85279,-2.21906 v -2.02474 l 1.01238,0.003 c 0.5568,0.002 1.15144,0.0912 1.32141,0.19877 0.4424,0.27988 0.40428,1.70476 -0.0525,1.96035 -0.33595,0.18801 -0.33113,0.26181 0.0683,1.0447 0.41394,0.81138 0.4151,0.8424 0.0315,0.8424 -0.25844,0 -0.53318,-0.29926 -0.78266,-0.85252 -0.21144,-0.46889 -0.51374,-0.85252 -0.67176,-0.85252 -0.19313,0 -0.28733,0.27949 -0.28733,0.85252 0,0.61571 -0.0888,0.85252 -0.3197,0.85252 -0.26174,0 -0.3197,-0.36705 -0.3197,-2.02474 z m 1.81162,-0.95908 c 0,-0.3903 -0.12828,-0.55105 -0.47955,-0.60094 -0.40992,-0.0582 -0.47954,0.029 -0.47954,0.60094 0,0.5719 0.0696,0.65915 0.47954,0.60093 0.35127,-0.0499 0.47955,-0.21064 0.47955,-0.60093 z"
       id="path826"
       inkscape:connector-curvature="0" />
  </g>
</svg>
