<?xml version="1.0" encoding="UTF-8" standalone="no"?>
<!-- Created with Inkscape (http://www.inkscape.org/) -->

<svg
   xmlns:dc="http://purl.org/dc/elements/1.1/"
   xmlns:cc="http://creativecommons.org/ns#"
   xmlns:rdf="http://www.w3.org/1999/02/22-rdf-syntax-ns#"
   xmlns:svg="http://www.w3.org/2000/svg"
   xmlns="http://www.w3.org/2000/svg"
   xmlns:sodipodi="http://sodipodi.sourceforge.net/DTD/sodipodi-0.dtd"
   xmlns:inkscape="http://www.inkscape.org/namespaces/inkscape"
   width="273.94092mm"
   height="202.5675mm"
   viewBox="0 0 273.94092 202.5675"
   version="1.1"
   id="svg8"
   inkscape:version="0.92.3 (2405546, 2018-03-11)"
   sodipodi:docname="jitsi.svg">
  <defs
     id="defs2" />
  <sodipodi:namedview
     id="base"
     pagecolor="#ffffff"
     bordercolor="#666666"
     borderopacity="1.0"
     inkscape:pageopacity="0.0"
     inkscape:pageshadow="2"
     inkscape:zoom="0.35"
     inkscape:cx="-191.38068"
     inkscape:cy="277.75769"
     inkscape:document-units="mm"
     inkscape:current-layer="layer1"
     showgrid="false"
     fit-margin-top="0"
     fit-margin-left="0"
     fit-margin-right="0"
     fit-margin-bottom="0"
     inkscape:window-width="1853"
     inkscape:window-height="1025"
     inkscape:window-x="67"
     inkscape:window-y="48"
     inkscape:window-maximized="1" />
  <metadata
     id="metadata5">
    <rdf:RDF>
      <cc:Work
         rdf:about="">
        <dc:format>image/svg+xml</dc:format>
        <dc:type
           rdf:resource="http://purl.org/dc/dcmitype/StillImage" />
        <dc:title></dc:title>
      </cc:Work>
    </rdf:RDF>
  </metadata>
  <g
     inkscape:label="Ebene 1"
     inkscape:groupmode="layer"
     id="layer1"
     transform="translate(63.890649,-19.755889)">
    <path
       style="fill:#000000;stroke-width:0.26458332"
       d="m -50.477259,208.93371 c -7.67082,-14.42021 -8.58493,-16.33786 -9.97369,-20.92314 -3.29619,-10.88302 -4.41484,-27.08152 -2.51426,-36.40779 2.24765,-11.02943 7.91579,-19.56446 15.51714,-23.36555 2.76715,-1.38372 4.64647,-1.79231 7.78966,-1.69354 l 2.65854,0.0836 -0.12648,-0.66146 c -0.0696,-0.3638 -0.44262,-2.09021 -0.82901,-3.83646 -0.85997,-3.88658 -1.15583,-7.75455 -0.9006,-11.77396 0.87733,-13.81601 10.62093,-24.38104 26.20351,-28.4126 l 2.46599,-0.638 0.16825,-3.40023 c 0.3714004,-7.5058 2.3431004,-15.14401 4.9073504,-19.01063 3.31832,-5.00369 7.88822,-8.36415 14.75439,-10.84961 4.5173896,-1.63523 8.2370596,-3.92699 9.3828896,-5.78099 0.76652,-1.24024 1.34369,-5.27651 1.34858,-9.43086 0.006,-5.19814 0.72359,-7.37564 3.26801,-9.91819 4.35404,-4.35082 11.36576,-4.18586 15.58049,0.36655 1.7528,1.89323 3.39154,5.01454 5.22315,9.94852 3.56948,9.61546 4.30568,14.65923 3.03517,20.79442 -0.52663,2.54305 -1.78387,5.81235 -3.13808,8.16014 l -1.18546,2.05524 0.62066,1.9576 c 0.34136,1.07668 0.70193,2.50235 0.80126,3.16816 l 0.18061,1.21057 2.02741,0.59284 c 6.703173,1.9601 12.386563,6.7473 15.582785,13.12561 2.816442,5.62043 4.004011,13.41047 3.488976,22.88646 -0.932037,17.14823 -4.775255,30.66977 -11.647911,40.98067 -3.308633,4.96387 -6.53446,8.35928 -10.96345,11.53978 -3.43503,2.46673 -7.72065,4.36497 -9.85474,4.36497 -0.80895,0 -1.17233,0.27384 -3.14698,2.3715 -5.80725,6.16902 -13.30129,10.90349 -21.5607796,13.62134 -12.55868,4.13253 -25.1703504,3.48605 -35.7496604,-1.83256 l -2.85416,-1.43489 -1.21967,1.64095 c -1.60915,2.16497 -3.01023,5.18344 -4.13899,8.91699 -0.50595,1.67349 -2.48659,10.18646 -4.40143,18.91771 -1.91484,8.73125 -3.50404,15.95615 -3.53155,16.05531 -0.0275,0.0992 -3.29808,-5.92561 -7.26792,-13.38842 z m 4.5426,-18.21116 c 2.5425,-10.79281 5.1385,-16.31193 9.75904,-20.74783 2.6547,-2.54862 6.20791,-5.03493 6.70189,-4.68955 0.18551,0.1297 0.96963,0.73216 1.74249,1.3388 7.3953,5.80481 17.40133,7.91533 27.91113043,5.88715 C 11.917941,170.24591 22.083831,163.4447 27.806921,154.028 l 0.95172,-1.56594 1.53139,1.03936 c 0.84227,0.57165 1.84274,1.03819 2.22329,1.03677 1.88567,-0.007 5.89674,-2.62358 9.30979,-6.07305 7.70047,-7.78263 12.482398,-19.91024 14.118073,-35.80532 1.194837,-11.61112 0.618564,-18.4488 -2.022721,-24.0003 -0.868235,-1.82487 -1.475189,-2.64866 -3.218714,-4.36861 -3.449648,-3.40301 -6.360528,-4.55646 -12.156218,-4.81693 l -3.39293,-0.15249 0.21793,-1.35026 c 0.67199,-4.16352 -0.0849,-8.60064 -2.17868,-12.77259 l -1.14405,-2.27955 1.43002,-1.68564 c 4.01928,-4.73769 5.76284,-10.2478 4.88774,-15.4465 -0.36148,-2.14738 -2.4604,-8.673 -3.84743,-11.96178 -1.77259,-4.20299 -2.66358,-5.17167 -3.96971,-4.31586 -0.62469,0.40931 -0.6485,0.53424 -0.6485,3.40232 0,5.28656 -0.89316,10.721 -2.18297,13.28227 -2.01427,3.99988 -7.78671,8.23131 -14.61807,10.71562 -5.0952496,1.85296 -7.7417396,3.59868 -9.7748896,6.44789 -1.42729,2.00017 -2.01731,3.5906 -2.92250997,7.87786 -1.21874,5.7723 -1.3204,11.2431 -0.28328,15.24548 0.22713,0.87654 0.41297,1.773 0.41297,1.99214 0,0.44961 -0.63795,0.61887 -6.21771003,1.64963 -14.6859004,2.71295 -22.4083204,9.35262 -23.7094604,20.38515 -1.22938,10.42403 5.03428,24.88258 12.26623,28.31445 0.84263,0.39986 0.99219,0.59883 0.99219,1.32 0,2.07562 -1.72109,5.95538 -2.72786,6.14927 -0.62497,0.12035 -3.09377,-1.27124 -8.42241,-4.7475 -2.46134,-1.60571 -5.45405,-3.37671 -6.65047,-3.93557 -2.44478,-1.14196 -5.78673,-1.93237 -7.11431,-1.68259 -5.71115,1.0745 -11.13138,8.9022 -12.78043,18.45704 -1.45764,8.44577 -0.21103,22.70305 2.80039,32.0276 0.75656,2.3426 3.617,8.61166 3.92933,8.61166 0.0868,0 0.61362,-1.93477 1.17068,-4.29948 z m -2.56944,-14.27533 c -1.10863,-7.00002 -1.40201,-11.66372 -0.99525,-15.82102 0.52901,-5.40684 2.14565,-10.68389 4.29597,-14.02292 1.20472,-1.87069 3.11374,-3.96851 4.17006,-4.58246 l 0.82828,-0.48141 0.45721,1.01058 c 0.39423,0.87137 0.46026,1.97639 0.47941,8.02204 0.019,6.00174 0.0875,7.16387 0.47594,8.06979 0.54192,1.26403 2.0622,2.8883 3.10936,3.32205 l 0.75431,0.31245 -1.78275,1.34958 c -4.62503,3.50123 -8.78643,8.95761 -10.52584,13.80134 -0.26128,0.7276 -0.55611,1.41768 -0.65517,1.53352 -0.0991,0.11583 -0.37424,-1.01526 -0.61153,-2.51354 z m 35.41256,-8.95423 c -5.57272,-0.87482 -10.75077,-3.2142 -14.29284,-6.45733 -0.80771,-0.73955 -0.96435,-1.00692 -0.66145,-1.12905 1.1576,-0.46676 4.42143,-2.273 6.12592,-3.39013 1.06912,-0.70072 3.08568,-2.41637 4.48122,-3.81256 2.89383,-2.89515 4.5401,-5.45707 5.8377,-9.0846 0.75977,-2.124 0.92115,-2.37138 1.7863404,-2.73839 2.84475,-1.20674 7.60131,-2.92343 17.20523,-6.20953 l 10.6978796,-3.66041 1.21224,1.13391 c 0.66674,0.62365 1.74629,1.44547 2.39901,1.82627 1.28424,0.74923 4.69378,1.78419 5.87779,1.78419 0.68952,0 0.73292,0.0688 0.73292,1.1614 0,1.67867 -0.71764,5.20936 -1.50364,7.39776 -1.62347,4.52006 -4.04772,8.35587 -7.61096,12.04254 -5.31558,5.49974 -11.4049696,8.93077 -18.90760957,10.65339 -2.62918003,0.60367 -10.74388043,0.89632 -13.37975043,0.48254 z m -20.31849,-10.68129 c -0.7018,-0.7018 -0.74764,-2.15874 -0.20046,-6.37118 0.29566,-2.27616 0.53757,-4.54694 0.53757,-5.04619 0,-0.49924 0.0495,-0.90772 0.11007,-0.90772 0.0605,0 1.45952,0.85705 3.10885,1.90455 1.64934,1.0475 4.03872,2.45433 5.30974,3.12629 l 2.31094,1.22174 -1.84483,1.40252 c -2.33428,1.77461 -3.81283,2.71158 -6.03736,3.8259 -2.40289,1.20368 -2.82642,1.31219 -3.29452,0.84409 z m 65.34838,-7.76977 -0.96423,-0.98745 0.64648,-2.09532 c 0.56512,-1.83161 1.06009,-4.60829 1.58986,-8.91878 l 0.15099,-1.22853 1.2448,-0.18554 c 2.46595,-0.36756 7.24173,-1.70552 9.366,-2.62393 1.19214,-0.51541 2.2135,-0.89113 2.26971,-0.83492 0.1538,0.1538 -2.64098,5.66639 -3.7772,7.45037 -2.29211,3.59885 -5.3598,7.06944 -8.35254,9.44953 l -1.20965,0.96203 z m -47.84874,-15.40547 c -1.47266,-0.77815 -3.6893,-3.41528 -5.04406,-6.00094 -3.1033,-5.92282 -4.37079,-13.29246 -3.23328,-18.79949 1.55136,-7.51059 7.81431,-11.36953 22.8449404,-14.07596 4.61869,-0.83165 4.65546,-0.82562 6.51045,1.06671 3.07074,3.13257 5.9348496,4.98559 7.7247396,4.99777 2.6831,0.0183 7.63236,-2.96135 13.78449,-8.29869 1.55329,-1.34756 3.59806,-3.01983 4.54395,-3.71615 1.66306,-1.22429 5.29166,-3.22396 5.29166,-2.91617 0,0.0831 -0.12674,0.96793 -0.28164,1.9663 -0.37672,2.42802 0.0234,5.19398 1.24385,8.59806 6.13819,17.12096 9.10672,28.27603 7.85718,29.52557 -0.43153,0.43153 -1.73406,-0.32088 -6.59724,-3.81091 -6.77177,-4.85973 -10.74664,-7.12653 -15.84819,-9.03796 -8.42882,-3.15809 -16.1395996,-3.76464 -23.65144957,-1.86049 -6.47007003,1.64008 -10.88594043,3.78714 -16.23853043,7.89543 -2.30458,1.76884 -2.71499,2.54116 -1.82387,3.43227 l 0.55664,0.55664 3.90985,-0.97949 c 5.7424904,-1.43858 8.8260404,-1.84171 12.9056904,-1.68722 3.66455,0.13878 5.38115,0.49579 8.64852,1.79868 3.4482496,1.37502 8.6109096,4.85471 7.8390196,5.28358 -0.63647,0.35363 -12.9820896,3.7218 -17.4135796,4.75083 -4.83501,1.12273 -9.3091904,1.84921 -11.2787504,1.83134 -0.74,-0.007 -1.69843,-0.22805 -2.25039,-0.51971 z m 41.63413,-2.50315 c -1.69942,-0.53068 -2.27171,-0.98634 -6.01228,-4.78697 -4.60724,-4.68121 -7.94983,-6.87877 -13.0379996,-8.57173 -2.60481,-0.86667 -5.48769,-1.32591 -8.47854,-1.3506 -2.50825,-0.0207 -2.02962,-0.2628 2.13881003,-1.08181 3.83434997,-0.75337 9.95179957,-0.81175 13.68918957,-0.13063 7.48438,1.36398 12.84498,4.1216 22.93738,11.79955 l 3.63467,2.76513 -1.57821,0.47759 c -4.05842,1.22814 -10.75719,1.67133 -13.29302,0.87947 z m 23.68553,-9.82145 c -0.10822,-0.10823 -0.19677,-0.46417 -0.19677,-0.79098 0,-0.96416 -2.02058,-8.68584 -3.28319,-12.54677 -0.64245,-1.96453 -2.14019,-6.36984 -3.32832,-9.78959 -2.154,-6.19978 -2.15987,-6.22399 -2.03715,-8.39764 0.12866,-2.2788 0.90291,-4.38723 1.81101,-4.93175 0.79838,-0.47872 2.50718,0.27918 4.00378,1.77578 1.66157,1.66157 3.07018,4.2451 4.068721,7.46242 0.731552,2.35709 0.736026,2.41691 0.741347,9.91203 0.0042,5.8395 -0.102214,8.31658 -0.471469,10.98021 -0.610328,4.40261 -1.059429,6.57481 -1.307959,6.32629 z M 10.655521,93.95904 C 6.6391514,91.27293 3.7041714,86.28974 3.7041714,82.15662 c 0,-1.22748 0.0956,-1.46373 0.86622,-2.14033 1.2758,-1.12017 4.61209,-2.76729 8.6587796,-4.27484 5.39365,-2.00933 4.88306,-2.04259 5.41598,0.35279 0.54419,2.44601 1.03042,3.67461 1.92131,4.85477 0.78237,1.03639 3.45504,2.83565 4.57879,3.08247 0.42782,0.094 0.84302,0.27628 0.92266,0.40515 0.21315,0.34489 -0.99581,2.59783 -2.23587,4.16663 -1.95474,2.47293 -7.63981,5.93626 -10.33829,6.29806 -1.08339,0.14526 -1.33901,0.0604 -2.83823,-0.94228 z m 15.35729,-14.54497 c -1.98119,-0.89949 -3.33258,-3.86061 -2.74974,-6.02513 0.15766,-0.58548 0.53948,-1.38592 0.84849,-1.77878 0.62196,-0.79069 4.99378,-4.38189 5.33439,-4.38189 0.11835,0 0.58286,0.7857 1.03224,1.746 1.90056,4.06142 0.87755,9.35704 -2.04339,10.57748 -1.1204,0.46814 -1.08293,0.47027 -2.42199,-0.13768 z M 4.1295714,74.53122 c 0.58897,-4.13653 1.9129,-8.04705 3.09999,-9.15647 1.30448,-1.21915 5.0069996,-3.30297 9.3271296,-5.24942 4.07318,-1.83518 6.95884,-3.52927 9.21544,-5.41011 l 1.29817,-1.08201 -0.19362,0.77826 c -1.05063,4.22314 -5.16066,11.34962 -8.03371,13.92982 -1.33669,1.20045 -2.10113,1.59434 -6.7956,3.50159 -2.03244,0.82573 -4.6801596,2.01259 -5.8838296,2.63746 l -2.18849,1.13613 z M 30.341691,56.38036 c 0.93111,-2.47303 2.73123,-9.10522 2.73123,-10.06269 0,-0.26918 0.13739,-0.57433 0.3053,-0.6781 0.50862,-0.31435 0.0865,4.77405 -0.57269,6.90433 -0.56583,1.82841 -1.87212,4.40131 -2.88812,5.68854 -0.39067,0.49496 -0.28387,0.0288 0.42428,-1.85208 z m 60.674978,116.63631 c -2.512526,-0.35677 -4.303588,-1.26 -5.206238,-2.62548 -0.693444,-1.04901 -0.745533,-1.31101 -0.727943,-3.66149 0.01511,-2.02044 0.139528,-2.80659 0.616132,-3.89335 l 0.597186,-1.36172 1.500537,0.54366 c 1.100619,0.39877 2.346719,0.57208 4.675534,0.65031 2.867565,0.0963 3.259804,0.0533 4.050818,-0.44451 1.864593,-1.17339 1.755333,0.5755 1.902307,-30.44932 0.123531,-26.07625 0.163115,-27.97241 0.597804,-28.63564 0.773232,-1.17976 1.847344,-1.54204 5.320714,-1.7946 1.76528,-0.12836 3.78083,-0.23702 4.47899,-0.24148 l 1.26938,-0.008 -0.0999,29.83177 c -0.0888,26.51881 -0.14837,30.04948 -0.53658,31.79217 -1.25743,5.64466 -4.72366,9.23984 -9.854995,10.22163 -2.212936,0.4234 -5.907503,0.45618 -8.583784,0.0762 z m 56.303351,-19.27408 c -2.85038,-0.44944 -5.17926,-2.05202 -6.27682,-4.31928 -1.36575,-2.82126 -1.41955,-3.58012 -1.53665,-21.67159 l -0.10917,-16.86719 H 136.37369 133.35 l 0.002,-3.63802 c 0.002,-4.24565 0.26932,-5.53726 1.22229,-5.89958 0.36441,-0.13859 1.6074,-0.25198 2.7621,-0.25198 h 2.09944 l 0.004,-8.00365 c 0.003,-5.84147 0.0928,-8.18234 0.33282,-8.66511 0.67369,-1.35481 2.00511,-1.70545 6.87318,-1.81014 l 4.43177,-0.0953 v 9.2871 9.2871 h 4.23333 4.23333 l -0.0153,1.52135 c -0.0321,3.19648 -0.45444,7.48091 -0.77561,7.8679 -0.26745,0.32227 -1.04979,0.40033 -4.01193,0.40033 h -3.67968 l 0.0741,16.03033 0.0741,16.03033 0.7796,0.67045 c 0.68863,0.59222 0.95105,0.6546 2.24896,0.53461 0.80814,-0.0747 2.16031,-0.38001 3.0048,-0.67842 1.72448,-0.60937 1.60777,-0.705 2.02433,1.65869 0.38077,2.16055 0.34643,4.23324 -0.0873,5.27136 -0.49393,1.18215 -2.04989,2.40825 -3.69731,2.91348 -1.67778,0.51455 -6.13052,0.7476 -8.16241,0.42722 z m 25.58519,0.10724 c -5.04636,-0.51279 -7.59273,-1.63547 -8.75487,-3.85997 -0.72107,-1.38024 -0.38957,-4.79859 0.71415,-7.36426 l 0.53657,-1.24729 1.7677,0.73917 c 2.05316,0.85853 5.29634,1.57602 7.11436,1.57391 2.83018,-0.003 4.8161,-1.21982 5.33129,-3.26581 0.3925,-1.55878 -0.0639,-4.08591 -0.98333,-5.44419 -0.38433,-0.5678 -3.02051,-3.49288 -5.85816,-6.50017 -5.41642,-5.74022 -7.25744,-8.12118 -8.17432,-10.57176 -1.92344,-5.14086 -0.98354,-10.62481 2.35647,-13.749 2.94665,-2.75624 6.97044,-3.91203 13.62306,-3.91308 4.72177,-7.9e-4 7.11222,0.37906 9.50235,1.50978 2.17642,1.02961 2.9027,2.11512 3.02413,4.51999 0.0831,1.646 -0.004,2.14562 -0.60462,3.45699 -0.38599,0.8431 -0.88895,1.73971 -1.11769,1.99248 -0.39416,0.43553 -0.47071,0.4316 -1.46426,-0.0753 -2.73421,-1.39488 -8.57687,-2.05231 -10.62691,-1.19575 -1.83201,0.76546 -2.47251,2.53862 -1.63825,4.5353 0.21198,0.50733 2.77371,3.40226 5.75469,6.50319 5.9883,6.22925 6.70316,7.11766 8.19261,10.18142 0.84982,1.74808 1.08717,2.59227 1.30181,4.63021 0.93571,8.88433 -2.95617,14.85464 -11.0293,16.9194 -1.92589,0.49256 -6.87504,0.83734 -8.96748,0.62472 z m -55.94444,-24.99804 c 0.0111,-18.01564 0.0955,-24.41886 0.33073,-25.10185 0.38826,-1.12729 1.64899,-2.01341 3.15305,-2.21619 0.62232,-0.0839 2.70907,-0.23223 4.63722,-0.32963 l 3.50573,-0.17708 v 25.55693 c 0,25.31502 -0.005,25.55963 -0.53096,25.8411 -0.2934,0.15703 -2.89778,0.35744 -5.82084,0.44793 l -5.28986,0.16376 0.0149,-24.18497 z m 80.96249,0 c 0.0111,-18.01564 0.0955,-24.41886 0.33073,-25.10185 0.38827,-1.12729 1.64898,-2.01341 3.15306,-2.21619 0.62233,-0.0839 2.70907,-0.23223 4.63722,-0.32963 l 3.50573,-0.17708 v 25.55693 c 0,25.31502 -0.005,25.55963 -0.53097,25.8411 -0.29339,0.15703 -2.89777,0.35744 -5.82083,0.44793 l -5.28987,0.16376 0.0149,-24.18497 z M 101.71918,93.85711 c -1.05359,-0.47654 -2.142206,-1.79011 -2.505286,-3.02299 -0.552178,-1.87499 -0.63209,-6.11621 -0.150649,-7.99543 0.8933,-3.48682 2.499315,-4.76282 5.993725,-4.76209 2.60695,5.3e-4 3.60852,0.5007 4.46532,2.22985 0.53612,1.08196 0.66539,1.80421 0.75856,4.23836 0.17239,4.5037 -0.68488,7.2047 -2.79834,8.81673 -0.80983,0.6177 -1.23601,0.73195 -2.95148,0.79123 -1.27797,0.0442 -2.29756,-0.063 -2.81185,-0.29566 z m 18.78541,0 c -1.05358,-0.47654 -2.1422,-1.79011 -2.50528,-3.02299 -0.55218,-1.87499 -0.63209,-6.11621 -0.15065,-7.99543 0.8933,-3.48682 2.49932,-4.76282 5.99373,-4.76209 2.60694,5.3e-4 3.60851,0.5007 4.46532,2.22985 0.53612,1.08196 0.66539,1.80421 0.75856,4.23836 0.17238,4.5037 -0.68488,7.2047 -2.79834,8.81673 -0.80983,0.6177 -1.23601,0.73195 -2.95149,0.79123 -1.27797,0.0442 -2.29755,-0.063 -2.81185,-0.29566 z m 80.96249,0 c -1.05357,-0.47654 -2.14219,-1.79011 -2.50527,-3.02299 -0.55218,-1.87499 -0.63209,-6.11621 -0.15065,-7.99543 0.8933,-3.48682 2.49932,-4.76282 5.99372,-4.76209 2.60694,5.3e-4 3.60852,0.5007 4.46532,2.22985 0.53613,1.08196 0.6654,1.80421 0.75856,4.23836 0.1724,4.5037 -0.68487,7.2047 -2.79834,8.81673 -0.80983,0.6177 -1.236,0.73195 -2.95148,0.79123 -1.27796,0.0442 -2.29756,-0.063 -2.81186,-0.29566 z"
       id="path826"
       inkscape:connector-curvature="0"
       sodipodi:nodetypes="cscccccccccscscccsssccccccsssssssscccsccccsccsccccssssccsccccscsscsccssscscsccscscsccscccccccccscccccccscccssccccscsscscccscccscccsscccccssccccsccsccssccccssscccsccscscsccscsccsccsccsccccccccccccscccsccccccsccscsccccccccccccscsccssccccsscccccscccccccccccsccccccsccccccccccscscscccccccsscsscccccccscsccccccccscsccccscccsccccccccsccccsccccccc" />
  </g>
</svg>
