<?xml version="1.0" encoding="UTF-8" standalone="no"?>
<svg
   id="Guides"
   viewBox="0 0 247.65134 207.9501"
   version="1.1"
   width="247.65134"
   height="207.9501"
   xmlns="http://www.w3.org/2000/svg"
   xmlns:svg="http://www.w3.org/2000/svg"
   xmlns:rdf="http://www.w3.org/1999/02/22-rdf-syntax-ns#"
   xmlns:cc="http://creativecommons.org/ns#"
   xmlns:dc="http://purl.org/dc/elements/1.1/">
  <defs
     id="defs7">
    <style
       id="style2">.cls-1{fill:none;}.cls-2{clip-path:url(#clip-path);}.cls-3{fill:#4d4d4d;}.cls-4{fill:#e1e1e1;}.cls-5{fill:#c8c8c8;}.cls-6{fill:#c2c2c2;}.cls-7{fill:#c7c7c7;}.cls-8{fill:#cecece;}.cls-9{fill:#d3d3d3;}.cls-10{fill:#c6c6c6;}.cls-11{fill:#d5d5d5;}.cls-12{fill:#d0d0d0;}.cls-13{fill:#bfbfbf;}.cls-14{fill:#d9d9d9;}.cls-15{fill:#d4d4d4;}.cls-16{fill:#d8d8d8;}.cls-17{fill:#e2e2e2;}.cls-18{fill:#e4e4e4;}.cls-19{fill:#dedede;}.cls-20{fill:#c5c5c5;}.cls-21{fill:#d1d1d1;}.cls-22{fill:#ddd;}.cls-23{fill:#e3e3e3;}.cls-24{fill:#00b8e3;}.cls-25{fill:#33c6e9;}.cls-26{fill:#008aaa;}</style>
    <clipPath
       id="clip-path">
      <rect
         class="cls-1"
         x="0.02"
         y="0.02"
         width="255.98"
         height="255.98"
         id="rect4" />
    </clipPath>
  </defs>
  <title
     id="title9">keycloak_deliverables</title>
  <g
     class="cls-2"
     clip-path="url(#clip-path)"
     id="g83"
     transform="translate(-8.3486607,-23.999945)">
    <path
       class="cls-3"
       d="m 219.24,76 a 1.9,1.9 0 0 1 -1.66,-0.95 L 188.7,25 A 2,2 0 0 0 187,24 H 69.18 a 1.9,1.9 0 0 0 -1.66,0.95 l -30,52 -28.92,50.1 a 1.94,1.94 0 0 0 0,1.91 l 28.9,50.04 30,52 a 1.9,1.9 0 0 0 1.66,0.95 H 187 a 2,2 0 0 0 1.68,-0.95 l 28.92,-50 a 1.9,1.9 0 0 1 1.66,-0.95 h 36 a 2.16,2.16 0 0 0 2.16,-2.16 V 78.17 A 2.16,2.16 0 0 0 255.22,76 h -36 z"
       id="path11" />
    <path
       class="cls-1"
       d="m 255.23,76 h -216 a 2,2 0 0 0 -1.66,0.93 c 0,0 0,0 0,0 L 36.5,78.78 23.22,101.75 8.61,127.06 a 1.9,1.9 0 0 0 0,1.92 l 3.17,5.5 25.73,44.52 a 1.92,1.92 0 0 0 1.67,1 h 216.08 a 2.14,2.14 0 0 0 2.12,-2.14 V 78.18 A 2.16,2.16 0 0 0 255.23,76 Z"
       id="path13" />
    <path
       class="cls-4"
       d="M 44.06,122.76 11.78,134.48 8.61,129 a 1.9,1.9 0 0 1 0,-1.92 l 14.61,-25.31 z"
       id="path15" />
    <polygon
       class="cls-5"
       points="257.38,153.75 236.11,132.11 257.38,129.07 "
       id="polygon17" />
    <path
       class="cls-6"
       d="m 236.11,132.11 21.27,21.64 v 24.1 a 2.14,2.14 0 0 1 -2.12,2.14 H 230.5 Z"
       id="path19" />
    <polygon
       class="cls-7"
       points="200.74,179.99 191.71,158.27 236.11,132.11 230.5,179.99 "
       id="polygon21" />
    <polygon
       class="cls-8"
       points="257.38,129.07 236.11,132.11 257.38,106.21 "
       id="polygon23" />
    <path
       class="cls-9"
       d="m 257.38,78.17 v 28 L 236.11,132.07 220.06,76 h 35.16 a 2.16,2.16 0 0 1 2.16,2.17 z"
       id="path25" />
    <polygon
       class="cls-10"
       points="180.96,174.16 191.71,158.27 200.74,179.99 185.03,179.99 "
       id="polygon27" />
    <polygon
       class="cls-11"
       points="208.19,76.02 220.06,76.02 236.11,132.11 177.22,107.22 "
       id="polygon29" />
    <path
       class="cls-12"
       d="m 177.22,107.22 14.49,51.05 44.4,-26.16 z"
       id="path31" />
    <polygon
       class="cls-13"
       points="180.96,174.16 185.03,179.99 180.77,179.99 "
       id="polygon33" />
    <polygon
       class="cls-14"
       points="171.63,79.31 183.59,76.02 208.19,76.02 177.22,107.22 "
       id="polygon35" />
    <path
       class="cls-15"
       d="M 177.22,107.22 105.74,123.7 181,174.16 Z"
       id="path37" />
    <path
       class="cls-12"
       d="m 177.22,107.22 3.78,66.94 10.75,-15.89 z"
       id="path39" />
    <path
       class="cls-14"
       d="m 171.63,79.31 -65.89,44.39 71.48,-16.48 z"
       id="path41" />
    <polygon
       class="cls-16"
       points="57.11,179.99 44.06,122.76 105.74,123.7 74.76,179.99 "
       id="polygon43" />
    <path
       class="cls-17"
       d="M 74,76 44.06,122.76 36.44,78.83 37.51,77 c 0,0 0,0 0,0 a 2,2 0 0 1 1.67,-1 z"
       id="path45" />
    <path
       class="cls-16"
       d="M 57.11,180 H 39.18 a 1.92,1.92 0 0 1 -1.67,-1 L 11.78,134.48 44.06,122.76 Z"
       id="path47" />
    <polygon
       class="cls-18"
       points="36.44,78.83 44.06,122.76 23.22,101.74 "
       id="polygon49" />
    <polygon
       class="cls-19"
       points="86.2,76.02 105.74,123.7 171.63,79.31 151.77,76.02 138.4,76.02 117.78,76.02 "
       id="polygon51" />
    <polygon
       class="cls-19"
       points="44.06,122.76 105.74,123.7 86.2,76.02 78.06,76.02 73.98,76.02 "
       id="polygon53" />
    <polygon
       class="cls-20"
       points="180.77,179.99 180.96,174.16 166.62,179.99 178.12,179.99 "
       id="polygon55" />
    <polygon
       class="cls-12"
       points="119.29,179.99 138.4,179.99 166.62,179.99 180.96,174.16 105.74,123.7 "
       id="polygon57" />
    <polygon
       class="cls-21"
       points="117.78,179.99 119.29,179.99 105.74,123.7 74.76,179.99 78.06,179.99 "
       id="polygon59" />
    <polygon
       class="cls-22"
       points="183.59,76.02 178.12,76.02 171.83,76.02 171.63,79.31 "
       id="polygon61" />
    <polygon
       class="cls-23"
       points="169.79,76.02 151.77,76.02 171.63,79.31 "
       id="polygon63" />
    <polygon
       class="cls-17"
       points="171.83,76.02 169.79,76.02 171.63,79.31 "
       id="polygon65" />
    <path
       class="cls-24"
       d="m 117.58,76.91 -29.06,50.33 a 1.69,1.69 0 0 0 -0.21,0.82 H 68 L 107.91,59 a 1.57,1.57 0 0 1 0.59,0.58 l 0.05,0.05 9,15.7 a 1.74,1.74 0 0 1 0.03,1.58 z"
       id="path67" />
    <path
       class="cls-25"
       d="m 117.55,181 -9,15.63 a 1.75,1.75 0 0 1 -0.61,0.58 L 68,128.08 v 0 h 20.31 a 1.54,1.54 0 0 0 0.19,0.79 0.18,0.18 0 0 0 0,0.09 l 29,50.29 a 1.7,1.7 0 0 1 0.05,1.75 z"
       id="path69" />
    <path
       class="cls-26"
       d="M 107.91,59 68,128.06 v 0 0 L 58,145.4 48.45,128.84 a 1.54,1.54 0 0 1 -0.19,-0.79 1.69,1.69 0 0 1 0.21,-0.82 l 9.67,-16.75 29.4,-50.86 A 1.7,1.7 0 0 1 89,58.75 h 18 a 1.79,1.79 0 0 1 0.91,0.25 z"
       id="path71" />
    <path
       class="cls-24"
       d="m 107.91,197.16 a 1.79,1.79 0 0 1 -0.86,0.23 H 89 a 1.7,1.7 0 0 1 -1.49,-0.87 L 60.69,150 58,145.4 68,128.07 Z"
       id="path73" />
    <path
       class="cls-26"
       d="m 188.1,128.06 -39.9,69.1 a 1.87,1.87 0 0 1 -0.59,-0.58 v -0.05 l -9,-15.67 a 1.74,1.74 0 0 1 0,-1.61 l 29,-50.32 a 1.69,1.69 0 0 0 0.24,-0.87 z"
       id="path75" />
    <path
       class="cls-24"
       d="m 207.84,128.06 a 1.69,1.69 0 0 1 -0.24,0.87 l -39.06,67.65 a 1.71,1.71 0 0 1 -1.45,0.8 h -18 a 1.86,1.86 0 0 1 -0.87,-0.23 l 39.9,-69.1 10,-17.31 9.49,16.45 a 1.68,1.68 0 0 1 0.23,0.87 z"
       id="path77" />
    <path
       class="cls-24"
       d="m 188.1,128.06 h -20.28 a 1.68,1.68 0 0 0 -0.24,-0.86 l -29,-50.27 a 1.7,1.7 0 0 1 0,-1.73 l 9,-15.65 A 1.87,1.87 0 0 1 148.2,59 Z"
       id="path79" />
    <path
       class="cls-25"
       d="m 198.1,110.73 v 0 l -10,17.31 L 148.2,59 a 1.86,1.86 0 0 1 0.87,-0.23 h 18 a 1.71,1.71 0 0 1 1.45,0.8 z"
       id="path81" />
  </g>
  <metadata
     id="metadata903">
    <rdf:RDF>
      <cc:Work
         rdf:about="">
        <dc:title>keycloak_deliverables</dc:title>
      </cc:Work>
    </rdf:RDF>
  </metadata>
</svg>
