<?xml version="1.0" encoding="UTF-8" standalone="no"?>
<!-- Created with Inkscape (http://www.inkscape.org/) -->

<svg
   xmlns:dc="http://purl.org/dc/elements/1.1/"
   xmlns:cc="http://creativecommons.org/ns#"
   xmlns:rdf="http://www.w3.org/1999/02/22-rdf-syntax-ns#"
   xmlns:svg="http://www.w3.org/2000/svg"
   xmlns="http://www.w3.org/2000/svg"
   xmlns:sodipodi="http://sodipodi.sourceforge.net/DTD/sodipodi-0.dtd"
   xmlns:inkscape="http://www.inkscape.org/namespaces/inkscape"
   width="106.16255mm"
   height="78.347862mm"
   viewBox="0 0 106.16255 78.347862"
   version="1.1"
   id="svg8"
   inkscape:version="0.92.3 (2405546, 2018-03-11)"
   sodipodi:docname="support.svg">
  <defs
     id="defs2" />
  <sodipodi:namedview
     id="base"
     pagecolor="#ffffff"
     bordercolor="#666666"
     borderopacity="1.0"
     inkscape:pageopacity="0.0"
     inkscape:pageshadow="2"
     inkscape:zoom="0.70710678"
     inkscape:cx="56.780286"
     inkscape:cy="281.32351"
     inkscape:document-units="mm"
     inkscape:current-layer="layer1"
     showgrid="false"
     inkscape:window-width="1920"
     inkscape:window-height="1052"
     inkscape:window-x="1920"
     inkscape:window-y="0"
     inkscape:window-maximized="1"
     fit-margin-top="0"
     fit-margin-left="0"
     fit-margin-right="0"
     fit-margin-bottom="0"
     inkscape:snap-global="false">
    <inkscape:grid
       type="xygrid"
       id="grid915"
       originx="-27.677474"
       originy="-182.86498" />
  </sodipodi:namedview>
  <metadata
     id="metadata5">
    <rdf:RDF>
      <cc:Work
         rdf:about="">
        <dc:format>image/svg+xml</dc:format>
        <dc:type
           rdf:resource="http://purl.org/dc/dcmitype/StillImage" />
        <dc:title />
      </cc:Work>
    </rdf:RDF>
  </metadata>
  <g
     inkscape:label="Ebene 1"
     inkscape:groupmode="layer"
     id="layer1"
     transform="translate(-27.677474,-35.787166)">
    <path
       sodipodi:nodetypes="ccccccccccccccccccccccccc"
       inkscape:connector-curvature="0"
       id="path959"
       d="m 55.980321,36.36532 c -5.830308,0.02045 -11.661946,-0.02177 -17.491365,0.07032 -1.029036,0.06003 -1.793063,0.948849 -1.920701,1.933623 -0.161954,2.76519 -0.08084,5.545431 -0.125452,8.316394 -0.03329,15.091722 -0.116766,30.184092 0.0073,45.275544 0.05867,1.283087 -0.03824,2.595422 0.17907,3.860258 0.40704,0.557035 1.214464,0.237694 1.79039,0.319698 2.186041,-0.08264 4.384387,-0.03412 6.56126,-0.255841 0.446796,-0.06824 0.678751,-0.56511 1.173607,-0.530053 3.046867,-0.33465 6.129705,-0.227015 9.193783,-0.297664 18.704423,-0.09024 37.409382,-0.108924 56.113947,-0.05705 1.80306,0.04964 3.62683,-0.03656 5.41257,0.200609 0.54739,0.03047 0.28447,0.849961 0.82885,0.901753 2.83687,0.09012 5.68353,0.101037 8.51905,-0.01532 0.15186,-0.735256 0.0249,-1.593638 0.0762,-2.371212 0.0889,-18.646761 0.027,-37.289316 0.0755,-55.936207 -0.36015,-0.673502 -0.8424,-0.944676 -1.32199,-1.380522 -23.024,-0.01193 -46.047998,-0.04234 -69.072005,-0.03433 z m 25.562671,3.494802 H 123.68162 V 92.85984 H 39.404369 V 39.860122 Z"
       style="opacity:1;fill:#cfcfcf;fill-opacity:1;stroke:none;stroke-width:0.19843748;stroke-linecap:round;stroke-linejoin:round;stroke-miterlimit:4;stroke-dasharray:none;stroke-dashoffset:0;stroke-opacity:1" />
    <path
       style="fill:#666666;stroke-width:0.26458332"
       d="m 28.277742,113.87706 c -0.522955,-0.21021 -0.595312,-0.42882 -0.595312,-1.79867 0,-1.71245 -0.333848,-0.99908 4.478671,-9.57017 1.348174,-2.4011 2.739533,-4.812695 3.091913,-5.359095 l 0.640691,-0.99346 -0.0069,-28.979328 c -0.0076,-32.148413 -0.116393,-30.197043 1.726575,-30.967084 1.335802,-0.558134 86.20664,-0.565022 87.54192,-0.0071 1.88178,0.786259 1.74587,-1.602965 1.74587,30.691509 0,24.692723 0.0565,29.153753 0.37396,29.508313 0.20568,0.22974 1.7617,3.51333 3.45781,7.296875 2.65435,5.92109 3.08685,7.07828 3.10546,8.3088 0.0166,1.10003 -0.0907,1.51178 -0.46567,1.78594 -0.40475,0.29596 -9.29523,0.35346 -52.493472,0.33953 -30.346596,-0.01 -52.254139,-0.11642 -52.601516,-0.25605 z m 45.772917,-0.52917 c -0.327422,-0.13161 -0.595312,-0.4204 -0.595312,-0.64176 0,-0.35656 -2.580426,-0.41035 -22.621899,-0.47154 l -22.621899,-0.0691 2.4e-5,0.57326 c 1.3e-5,0.3153 0.148852,0.63332 0.330753,0.70672 0.181901,0.0734 10.629635,0.13531 23.217187,0.13757 13.902672,0.002 22.652776,-0.0898 22.291146,-0.23517 z m 59.145581,-0.52092 0.0774,-0.66146 -22.50079,0.0691 c -19.932672,0.0612 -22.500792,0.11503 -22.500792,0.47155 0,0.22135 -0.2679,0.51049 -0.59532,0.64252 -0.36172,0.14587 8.43692,0.22039 22.423442,0.18992 l 23.01874,-0.0502 z m -45.612002,-0.14378 c 0.23276,-0.23275 0.42319,-0.53308 0.42319,-0.66738 0,-0.14678 8.99906,-0.27119 22.555732,-0.31183 22.3344,-0.067 22.5563,-0.0728 22.61507,-0.5968 0.0326,-0.29105 -1.33849,-3.6248 -3.04696,-7.40834 l -3.10632,-6.879165 -4.60627,-0.0726 c -2.88962,-0.0455 -4.70729,0.0284 -4.87731,0.19844 -0.17632,0.17632 -5.03745,0.29292 -13.91029,0.33366 l -13.639272,0.0626 14.009022,0.1358 14.00901,0.13581 0.99741,3.042705 c 0.54857,1.67349 1.00131,3.2564 1.00608,3.51758 0.008,0.43068 -0.30521,0.47797 -3.36476,0.50823 -6.22665,0.0616 -7.85459,-0.007 -7.96381,-0.33444 -0.0747,-0.22411 -0.16549,-0.21197 -0.3232,0.0432 -0.25051,0.40534 -3.92287,0.68281 -4.67616,0.35332 -0.25543,-0.11173 -0.54716,-0.18643 -0.64827,-0.16601 -0.25793,0.0521 -3.955012,0.11661 -4.493112,0.0784 -0.24399,-0.0173 -0.49807,-0.23986 -0.56462,-0.49453 -0.0921,-0.35224 -0.12834,-0.32217 -0.15169,0.12567 l -0.0307,0.58869 -21.971531,-2.6e-4 -21.971527,-2.7e-4 -0.236701,-0.58833 c -0.219001,-0.54433 -0.237959,-0.54875 -0.253466,-0.0592 -0.01627,0.51354 -0.171079,0.5268 -5.242293,0.44896 -2.874041,-0.0441 -5.374356,-0.12968 -5.556258,-0.19014 -0.181901,-0.0605 -0.330729,-0.28659 -0.330729,-0.50253 0,-0.62613 2.118254,-5.937795 2.533579,-6.353115 0.207261,-0.20726 0.376838,-0.57055 0.376838,-0.8073 0,-0.3868 -0.43616,-0.41342 -4.299479,-0.26245 -2.364714,0.0924 -4.430427,0.20749 -4.590471,0.25572 -0.455922,0.13741 -8.088566,13.860005 -7.990975,14.366835 0.08125,0.42193 1.612974,0.4569 22.771516,0.51998 13.635865,0.0406 22.684409,0.16503 22.684409,0.31183 0,0.13431 0.179438,0.42364 0.398751,0.64295 0.615577,0.61558 12.852217,0.63779 13.465557,0.0245 z m -22.230465,-2.0926 c -0.08111,-0.21136 0.07146,-1.43175 0.339032,-2.71198 l 0.4865,-2.32768 14.799663,-0.0684 c 11.66445,-0.0539 14.84445,0.002 15.01105,0.26458 0.11627,0.18313 0.21322,1.4343 0.21544,2.78037 l 0.004,2.44739 h -15.35414 c -13.18059,0 -15.375015,-0.0544 -15.501605,-0.38429 z m 30.271125,-2.32768 -0.0768,-2.18282 -14.46353,-0.0684 -14.463536,-0.0684 -0.266281,1.25902 c -0.146455,0.69247 -0.348383,1.70551 -0.448729,2.25121 l -0.182443,0.99219 h 14.989099 14.98911 z M 53.08243,103.2514 c 0,-0.11771 -2.024062,-0.21402 -4.497917,-0.21402 -2.473854,0 -4.497916,0.0498 -4.497916,0.11066 0,0.0609 -0.07112,0.29597 -0.158036,0.52248 -0.138385,0.36063 0.379807,0.4209 4.167188,0.48467 3.503474,0.059 4.388059,2.6e-4 4.655952,-0.30848 0.181901,-0.20971 0.330729,-0.4776 0.330729,-0.59531 z m 5.291667,0.57973 c 0,-0.4599 -0.17639,-0.52916 -1.347687,-0.52916 -1.114312,0 -1.371084,-0.0895 -1.482802,-0.51668 -0.123706,-0.47306 -0.190222,-0.45118 -0.78794,0.25917 -0.359055,0.42671 -0.577739,0.89734 -0.48596,1.04584 0.09178,0.1485 1.052812,0.27 2.135629,0.27 1.79237,0 1.96876,-0.0474 1.96876,-0.52917 z m 6.460212,0.0944 c 0.09176,-0.23911 0.132368,-0.4692 0.09025,-0.51132 -0.07065,-0.0707 -3.969179,-0.17168 -5.029113,-0.13034 -0.280612,0.011 -0.463021,0.22654 -0.463021,0.54723 0,0.49351 0.17639,0.52917 2.617526,0.52917 2.18395,0 2.645161,-0.072 2.784353,-0.43474 z m 26.083539,0.0379 c 0,-0.31794 -0.40784,-0.3985 -2.05052,-0.40501 -1.12779,-0.004 -6.72373,-0.0508 -12.435419,-0.10297 -10.038927,-0.0917 -10.384896,-0.0782 -10.384896,0.405 0,0.48299 0.419532,0.49985 12.435417,0.49985 10.877318,0 12.435418,-0.0497 12.435418,-0.39687 z m 6.35,-0.15173 c 0,-0.52521 -0.10771,-0.54344 -2.52674,-0.42777 -1.38971,0.0665 -2.60665,0.20073 -2.70432,0.2984 -0.40518,0.40518 0.74114,0.67011 2.91595,0.67392 2.16735,0.004 2.31511,-0.031 2.31511,-0.54455 z m 10.533782,-0.0467 c 0.0539,-0.28221 -0.0742,-0.46302 -0.32792,-0.46302 -0.22895,0 -0.42568,-0.14883 -0.43717,-0.33073 -0.0167,-0.26458 -0.0476,-0.26458 -0.15434,0 -0.0814,0.20164 -0.64118,0.33073 -1.43432,0.33073 -0.71547,0 -1.30086,0.0498 -1.30086,0.11065 0,0.0609 -0.0744,0.3045 -0.16531,0.54142 -0.14505,0.37801 0.0734,0.42117 1.78313,0.35237 1.60814,-0.0647 1.96387,-0.15927 2.03679,-0.54142 z m 5.14278,0.3684 c 0.10914,-0.0207 0.19844,-0.21627 0.19844,-0.43455 0,-0.31957 -0.41065,-0.39687 -2.10837,-0.39687 -1.72956,0 -2.082,0.0687 -1.96167,0.38225 0.1719,0.44796 2.47236,0.71485 3.8716,0.44917 z m -69.368584,-0.89757 c 0.31314,-0.71144 0.515512,-0.85375 1.172229,-0.82429 0.819269,0.0367 9.003131,0.12924 9.591146,0.10841 0.639619,-0.0227 0.322749,-0.54089 -0.330729,-0.54089 -0.450506,0 -0.664025,-0.14767 -0.669505,-0.46302 -0.0077,-0.44097 -0.02088,-0.44097 -0.27773,0 -0.23767,0.40805 -0.731412,0.46254 -4.159142,0.45897 -2.139201,-0.002 -4.042899,-0.1014 -4.230438,-0.22039 -0.25848,-0.16399 -0.273577,-0.39364 -0.06239,-0.94909 l 0.278593,-0.73276 3.303598,0.0932 c 2.516249,0.071 3.303585,0.0144 3.303537,-0.237485 -3.4e-5,-0.1819 -0.241924,-0.33073 -0.537532,-0.33073 -0.295611,0 -0.607349,-0.18209 -0.692751,-0.40465 -0.138205,-0.36015 -0.188846,-0.35875 -0.460534,0.0128 -0.240908,0.32946 -0.722325,0.40081 -2.283812,0.3385 l -1.978559,-0.079 0.07033,-0.88334 c 0.123454,-1.55053 -0.506064,-0.8039 -1.538172,1.824345 -0.539654,1.37422 -1.063262,2.76647 -1.163568,3.0939 -0.279572,0.91258 0.237863,0.70684 0.665429,-0.26459 z m 59.079374,0.46302 c 0.12752,-0.33231 -0.19067,-0.39687 -1.95607,-0.39687 -1.697712,0 -2.108362,0.0773 -2.108362,0.39687 0,0.31699 0.39372,0.39688 1.956062,0.39688 1.49465,0 1.99199,-0.0936 2.10837,-0.39688 z m 16.77113,0.0661 c -0.0677,-0.1819 -0.50064,-1.55112 -0.96205,-3.04271 l -0.83893,-2.711985 -11.56781,-0.003 c -6.362302,-0.001 -22.369542,-0.0799 -35.571662,-0.17452 l -24.003842,-0.17199 -0.236976,0.63754 c -0.232392,0.62521 -0.205804,0.63909 1.375161,0.71785 1.220631,0.0608 1.685123,-0.0195 1.912694,-0.33073 0.386958,-0.52908 1.432848,-0.53942 1.432848,-0.0141 0,0.31139 0.364332,0.39687 1.691484,0.39687 1.259467,0 1.730383,-0.10136 1.843781,-0.39687 0.08376,-0.21828 0.466426,-0.39688 0.850363,-0.39688 0.511805,0 0.657434,0.1059 0.545774,0.39688 -0.126253,0.32901 0.158129,0.39687 1.663179,0.39687 1.369677,0 1.852867,-0.0974 1.967767,-0.39687 0.08376,-0.21828 0.394155,-0.39688 0.689766,-0.39688 0.301361,0 0.53747,0.17435 0.53747,0.39688 0,0.31439 0.379031,0.39687 1.823775,0.39687 1.377059,0 1.861079,-0.0972 1.976073,-0.39687 0.08376,-0.21828 0.394155,-0.39688 0.689766,-0.39688 0.30136,0 0.537469,0.17435 0.537469,0.39688 0,0.31498 0.382175,0.39687 1.852083,0.39687 1.469909,0 1.852084,-0.0819 1.852084,-0.39687 0,-0.50535 1.026173,-0.52396 1.218755,-0.0221 0.164912,0.42975 2.440361,0.81749 3.263778,0.55615 0.299503,-0.0951 0.54455,-0.34341 0.54455,-0.55188 0,-0.58065 0.977715,-0.45133 1.134996,0.15012 0.12073,0.46167 0.360895,0.52917 1.882942,0.52917 1.308963,0 1.74456,-0.0914 1.74456,-0.36602 0,-0.20131 0.25129,-0.43173 0.55842,-0.51205 0.40331,-0.10546 0.5956,-0.004 0.69231,0.36602 0.11605,0.44378 0.37672,0.51205 1.95513,0.51205 1.39487,0 1.82123,-0.0877 1.82123,-0.37483 0,-0.20615 0.14882,-0.42674 0.33072,-0.49019 0.49254,-0.17181 0.99219,0.0782 0.99219,0.49645 0,0.27993 0.4454,0.36857 1.85209,0.36857 1.40668,0 1.85208,-0.0886 1.85208,-0.36857 0,-0.4136 0.71277,-0.77105 1.08221,-0.54272 0.13239,0.0818 0.24071,0.32033 0.24071,0.53003 0,0.29564 0.41588,0.38126 1.85208,0.38126 1.46991,0 1.85208,-0.0819 1.85208,-0.39688 0,-0.24694 0.24989,-0.39687 0.66146,-0.39687 0.41158,0 0.66146,0.14993 0.66146,0.39687 0,0.31434 0.37875,0.39688 1.82122,0.39688 1.59871,0 1.83814,-0.0647 1.95961,-0.52917 0.0761,-0.29104 0.27973,-0.52917 0.4525,-0.52917 0.172772,0 0.376402,0.23813 0.452512,0.52917 0.0915,0.34984 0.37449,0.53821 0.83512,0.55587 0.38321,0.0147 1.20276,0.0585 1.82123,0.0974 0.94683,0.0595 1.12448,-0.007 1.12448,-0.42357 0,-0.35082 0.19196,-0.49425 0.66145,-0.49425 0.48107,0 0.66146,0.14174 0.66146,0.51972 0,0.4713 0.18489,0.51876 1.98438,0.50936 1.77868,-0.009 1.98437,-0.0631 1.98437,-0.51972 0,-0.33297 0.18325,-0.50936 0.52917,-0.50936 0.34435,0 0.52917,0.17639 0.52917,0.50502 0,0.47236 0.21456,0.50231 3.31685,0.46302 2.69299,-0.0341 3.364,0.0326 3.56756,0.35487 0.43285,0.685175 0.12894,0.923505 -1.28283,1.006025 -1.89459,0.11073 -1.72464,0.58148 0.20993,0.58148 1.28952,0 1.62829,0.0936 1.85208,0.51178 0.62396,1.16587 0.40136,1.3403 -1.71048,1.3403 -1.5875,0 -1.98437,0.0794 -1.98437,0.39687 0,0.32524 0.45881,0.39688 2.54184,0.39688 1.92276,0 2.51187,-0.0805 2.41873,-0.33073 z m -49.476713,-0.97752 c 0.181902,-0.008 0.33073,-0.16807 0.33073,-0.35556 0,-0.24125 -0.57997,-0.36248 -1.984375,-0.41478 -1.617152,-0.0602 -1.984375,-8e-4 -1.984375,0.32148 0,0.47959 0.544843,0.6158 2.116666,0.52916 0.654844,-0.0361 1.339453,-0.0722 1.521354,-0.0803 z m 10.649481,-0.14696 c 0,-0.27718 -0.27928,-0.39688 -0.92604,-0.39688 -0.55331,0 -0.934453,-0.13312 -0.946934,-0.33072 -0.01672,-0.26459 -0.04758,-0.26459 -0.154339,0 -0.0734,0.1819 -0.54025,0.33072 -1.037444,0.33072 -0.856025,0 -1.120535,0.22444 -0.727605,0.61736 0.09701,0.097 0.989981,0.17639 1.984375,0.17639 1.430707,0 1.807987,-0.0828 1.807987,-0.39687 z m 5.21718,-0.0385 c 0.10984,-0.33244 -1.52458,-0.54469 -3.15255,-0.40941 -0.73761,0.0613 -0.94103,0.17782 -0.82739,0.47396 0.11762,0.30651 0.55981,0.37576 2.01524,0.31559 1.10245,-0.0456 1.90549,-0.20095 1.9647,-0.38014 z m 5.03023,-0.0107 c 0.11621,-0.35015 -1.29857,-0.53815 -2.90522,-0.38603 -0.65521,0.062 -0.99219,0.22637 -0.99219,0.48386 0,0.31534 0.36279,0.37329 1.89664,0.30294 1.15797,-0.0531 1.93719,-0.2092 2.00077,-0.40077 z m 5.36301,-0.10399 c 0,-0.13403 -0.89297,-0.24369 -1.98438,-0.24369 -1.41078,0 -1.98455,0.0956 -1.98499,0.33073 -5.3e-4,0.24297 0.52611,0.30763 1.98437,0.24369 1.09175,-0.0479 1.985,-0.19671 1.985,-0.33073 z m -36.247921,-0.11135 c 0,-0.26459 -0.264584,-0.39688 -0.79375,-0.39688 -0.447472,0 -0.802863,-0.14428 -0.814639,-0.33073 -0.01672,-0.26458 -0.04758,-0.26458 -0.15434,0 -0.07488,0.18558 -0.588272,0.33073 -1.169736,0.33073 -0.744754,0 -1.036285,0.11165 -1.036285,0.39688 0,0.3175 0.396875,0.39687 1.984375,0.39687 1.5875,0 1.984375,-0.0794 1.984375,-0.39687 z m 5.122764,0 c 0.127522,-0.33232 -0.190669,-0.39688 -1.956067,-0.39688 -1.697712,0 -2.108364,0.0773 -2.108364,0.39688 0,0.31699 0.393729,0.39687 1.956067,0.39687 1.494653,0 1.991993,-0.0936 2.108364,-0.39687 z m 10.355361,0.13229 c 0.09642,-0.15601 -0.250061,-0.28495 -0.84428,-0.3142 -2.776776,-0.13671 -3.256762,-0.0862 -3.256762,0.34251 0,0.32631 3.898506,0.2994 4.101042,-0.0283 z m 25.796878,0 c 0,-0.14552 -0.47625,-0.26459 -1.05833,-0.26459 -0.819862,0 -1.065252,-0.10433 -1.089032,-0.46302 -0.0292,-0.44097 -0.0365,-0.44097 -0.15169,0 -0.0805,0.30794 -0.38036,0.46302 -0.89535,0.46302 -0.4259,0 -0.77435,0.11907 -0.77435,0.26459 0,0.15287 0.83785,0.26458 1.98437,0.26458 1.146532,0 1.984382,-0.11171 1.984382,-0.26458 z m 5.02708,0.0266 c 0,-0.26826 -1.80646,-0.46618 -3.10885,-0.34061 -1.65555,0.15963 -0.84132,0.57855 1.12448,0.57855 1.0914,0 1.98437,-0.10707 1.98437,-0.23794 z m 11.57459,-0.0928 c -0.0842,-0.25052 -1.19645,-0.31559 -4.5861,-0.2683 -2.46122,0.0343 -4.74284,0.0641 -5.07026,0.0662 -0.32742,0.002 -0.59531,0.12278 -0.59531,0.2683 0,0.16738 1.90353,0.26458 5.18142,0.26458 4.02803,0 5.15667,-0.0736 5.07025,-0.33073 z m -39.741835,-1.00979 c 0.09592,-0.1552 0.09695,-0.35964 0.0024,-0.4543 -0.171953,-0.17196 -3.894124,-0.10095 -4.072768,0.0777 -0.371417,0.37132 0.534151,0.6588 2.075132,0.6588 1.004223,0 1.899071,-0.12656 1.995255,-0.28219 z m 4.833543,-0.18083 c -0.049,-0.25466 -0.17684,-0.43326 -0.28399,-0.39688 -0.10714,0.0364 -0.90918,0.0662 -1.78231,0.0662 -1.23472,0 -1.5875,0.0882 -1.5875,0.39687 0,0.31538 0.38433,0.39688 1.87148,0.39688 1.63995,0 1.86046,-0.0573 1.78232,-0.46302 z m 5.43772,0.0661 c 0.0928,-0.24175 5.3e-4,-0.39687 -0.23628,-0.39687 -0.21371,0 -0.39797,-0.14883 -0.40946,-0.33073 -0.0167,-0.26458 -0.0476,-0.26458 -0.15434,0 -0.0857,0.21228 -0.6941,0.33073 -1.6989,0.33073 -1.21513,0 -1.56545,0.0888 -1.56545,0.39687 0,0.31699 0.39372,0.39688 1.95606,0.39688 1.49465,0 1.99199,-0.0936 2.10837,-0.39688 z m 4.9314,0.1134 c 0,-0.15592 -0.1786,-0.46208 -0.39688,-0.68036 -0.21828,-0.21828 -0.39687,-0.26931 -0.39687,-0.11339 0,0.17009 -0.635,0.28348 -1.5875,0.28348 -1.23472,0 -1.5875,0.0882 -1.5875,0.39687 0,0.3175 0.39687,0.39688 1.98437,0.39688 1.23473,0 1.98438,-0.10709 1.98438,-0.28348 z m 5.02708,0 c 0,-0.15592 -0.17859,-0.46208 -0.39687,-0.68036 -0.21828,-0.21828 -0.39688,-0.26931 -0.39688,-0.11339 0,0.17009 -0.635,0.28348 -1.5875,0.28348 -1.23472,0 -1.5875,0.0882 -1.5875,0.39687 0,0.3175 0.39688,0.39688 1.98438,0.39688 1.23472,0 1.98437,-0.10709 1.98437,-0.28348 z m 5.291672,-0.1134 c 0,-0.21828 -0.1786,-0.39687 -0.39688,-0.39687 -0.21828,0 -0.40627,-0.14883 -0.41776,-0.33073 -0.0167,-0.26458 -0.0476,-0.26458 -0.15434,0 -0.0837,0.20745 -0.66765,0.33073 -1.56661,0.33073 -1.097532,0 -1.433162,0.0929 -1.433162,0.39687 0,0.3175 0.396872,0.39688 1.984372,0.39688 1.5875,0 1.98438,-0.0794 1.98438,-0.39688 z m 4.96182,-0.0661 c 0.0601,-0.1819 -0.0792,-0.33073 -0.30957,-0.33073 -0.2304,0 -0.42832,-0.14883 -0.43981,-0.33073 -0.0167,-0.26458 -0.0476,-0.26458 -0.15434,0 -0.0837,0.20745 -0.66764,0.33073 -1.56661,0.33073 -1.11561,0 -1.43316,0.0905 -1.43316,0.40846 0,0.33749 0.32968,0.39496 1.89707,0.33073 1.22379,-0.0502 1.93587,-0.19511 2.00642,-0.40846 z m 5.09235,0.12979 c 0,-0.18328 -0.23813,-0.48195 -0.52917,-0.6637 -0.31367,-0.19589 -0.52917,-0.22181 -0.52917,-0.0636 0,0.14704 -0.6533,0.26683 -1.45521,0.26683 -1.11713,0 -1.4552,0.0922 -1.4552,0.39687 0,0.3175 0.39687,0.39688 1.98437,0.39688 1.41906,0 1.98438,-0.0949 1.98438,-0.33323 z m -61.236427,-0.26582 c 0.02819,-0.0343 -0.0445,-0.30054 -0.161529,-0.59158 -0.16266,-0.40453 -0.217154,-0.42737 -0.23137,-0.0969 -0.01654,0.38426 -0.400166,0.41674 -3.458181,0.29271 -3.234682,-0.1312 -3.840914,-0.0238 -3.242767,0.57432 0.168066,0.16807 6.949387,-0.003 7.093847,-0.1785 z m 5.144754,0.0699 c 0,-0.14552 -0.178594,-0.26458 -0.396875,-0.26458 -0.218282,0 -0.410687,-0.20836 -0.427567,-0.46302 -0.02923,-0.44098 -0.03645,-0.44098 -0.151694,0 -0.09458,0.36194 -0.405556,0.46302 -1.424514,0.46302 -0.716936,0 -1.303517,0.11906 -1.303517,0.26458 0,0.15119 0.79375,0.26458 1.852083,0.26458 1.058334,0 1.852084,-0.11339 1.852084,-0.26458 z m 5.148074,0.0183 c 0.08373,-0.13546 0.06098,-0.2895 -0.05053,-0.34231 -0.41284,-0.19549 -3.774628,0.1132 -3.774628,0.34661 0,0.3187 3.628052,0.31463 3.825158,-0.004 z m 5.066692,-0.17221 c -0.08833,-0.23018 -0.164219,-0.5576 -0.168646,-0.7276 -0.0044,-0.17 -0.129402,-0.10073 -0.27773,0.15393 -0.209029,0.35888 -0.623779,0.46302 -1.844037,0.46302 -0.873181,0 -1.574353,0.11784 -1.574353,0.26458 0,0.1532 0.847283,0.26458 2.012682,0.26458 1.726602,0 1.989855,-0.0595 1.852084,-0.41851 z m 5.080354,0.13409 c -0.05214,-0.15644 -0.181128,-0.2755 -0.286631,-0.26459 -0.105502,0.0109 -0.965729,0.0199 -1.911614,0.0199 -0.97014,0 -1.719792,0.11533 -1.719792,0.26458 0,0.15313 0.845196,0.26458 2.006423,0.26458 1.313346,0 1.973675,-0.0982 1.911614,-0.28442 z m -16.88262,-1.170785 c 0,-0.21828 -0.178594,-0.39688 -0.396875,-0.39688 -0.218282,0 -0.410687,-0.20836 -0.427567,-0.46302 -0.02923,-0.44097 -0.03645,-0.44097 -0.151694,0 -0.08933,0.34182 -0.392956,0.46302 -1.15993,0.46302 -0.74711,0 -1.038934,0.11148 -1.038934,0.39688 0,0.308685 0.352777,0.396875 1.5875,0.396875 1.234723,0 1.5875,-0.0882 1.5875,-0.396875 z m 5.820833,0 c 0,-0.26459 -0.264583,-0.39688 -0.79375,-0.39688 -0.567873,0 -0.802484,-0.13176 -0.824442,-0.46302 -0.02923,-0.44097 -0.03645,-0.44097 -0.151693,0 -0.09459,0.36195 -0.405556,0.46302 -1.424514,0.46302 -0.982292,0 -1.303518,0.0978 -1.303518,0.39688 0,0.321655 0.426273,0.396875 2.248959,0.396875 1.822685,0 2.248958,-0.0752 2.248958,-0.396875 z m 5.027083,0.01681 c 0,-0.426955 -1.078769,-0.598825 -2.844271,-0.453135 -0.742979,0.0613 -1.124479,0.21839 -1.124479,0.463015 0,0.28435 0.460341,0.37023 1.984375,0.37023 1.548604,0 1.984375,-0.0835 1.984375,-0.38011 z m 5.027084,0.13655 c 0,-0.13396 -0.357188,-0.322005 -0.79375,-0.417895 -0.474456,-0.10421 -0.806096,-0.35213 -0.824442,-0.61633 -0.02711,-0.39041 -0.04481,-0.38796 -0.151694,0.021 -0.117191,0.44845 -0.507346,0.57491 -1.47126,0.47686 -0.263554,-0.0268 -0.463021,0.13104 -0.463021,0.36641 0,0.335565 0.34907,0.413495 1.852083,0.413495 1.018646,0 1.852084,-0.1096 1.852084,-0.24356 z m 5.027083,0.008 c 0,-0.1296 -0.403937,-0.282785 -0.897633,-0.340425 -1.284722,-0.14999 -3.09422,0.06 -2.921736,0.339125 0.190717,0.30859 3.819369,0.30982 3.819369,0.001 z m 5.027088,-0.029 c 0,-0.145515 -0.41672,-0.264585 -0.92605,-0.264585 -0.69386,0 -0.93373,-0.11608 -0.95673,-0.46302 -0.0292,-0.44097 -0.0365,-0.44097 -0.15169,0 -0.0855,0.32735 -0.38666,0.46302 -1.027642,0.46302 -0.498655,0 -0.906643,0.11907 -0.906643,0.264585 0,0.15287 0.837848,0.26458 1.984375,0.26458 1.14653,0 1.98438,-0.11171 1.98438,-0.26458 z m 5.02708,0.0278 c 0,-0.13024 -0.44649,-0.279065 -0.99219,-0.330725 -1.46591,-0.13879 -3.0098,0.0351 -2.83419,0.319235 0.19591,0.317 3.82638,0.3279 3.82638,0.0115 z m 4.88156,-0.005 c -0.45619,-0.439735 -3.96202,-0.460915 -3.69094,-0.0223 0.0899,0.14552 1.01375,0.26459 2.05291,0.26459 1.15028,0 1.79106,-0.0948 1.63803,-0.24229 z m 5.17261,-0.0223 c 0,-0.151185 -0.79375,-0.264585 -1.85209,-0.264585 -1.05833,0 -1.85208,0.1134 -1.85208,0.264585 0,0.15119 0.79375,0.26458 1.85208,0.26458 1.05834,0 1.85209,-0.11339 1.85209,-0.26458 z m 5.027082,0 c 0,-0.151185 -0.79375,-0.264585 -1.85208,-0.264585 -1.058342,0 -1.852092,0.1134 -1.852092,0.264585 0,0.15119 0.79375,0.26458 1.852092,0.26458 1.05833,0 1.85208,-0.11339 1.85208,-0.26458 z m 3.9852,-0.0237 c -0.67559,-0.132495 -1.51822,-0.130315 -1.98438,0.005 -0.64675,0.18792 -0.40987,0.23437 1.17418,0.23028 1.85534,-0.005 1.90802,-0.0201 0.8102,-0.23541 z m 6.02959,0.16069 c -0.22233,-0.22233 -3.66479,-0.297885 -3.66479,-0.0804 0,0.1144 0.85328,0.20801 1.89618,0.20801 1.0429,0 1.83877,-0.0574 1.76861,-0.12756 z m 4.07426,-0.0638 c -0.47294,-0.0587 -1.24685,-0.0587 -1.71979,0 -0.47293,0.0587 -0.086,0.10672 0.8599,0.10672 0.94588,0 1.33283,-0.048 0.85989,-0.10672 z M 88.073578,97.287955 c -0.61847,-0.0557 -1.6305,-0.0557 -2.24896,0 -0.61846,0.0557 -0.11245,0.10129 1.12448,0.10129 1.23693,0 1.74294,-0.0456 1.12448,-0.10129 z m 28.773432,-1.09611 c 0,-0.34396 -0.25356,-0.54681 -0.82683,-0.66146 -1.0957,-0.21914 -41.203547,-0.21206 -57.338024,0.0101 -12.125846,0.16698 -12.743476,0.19903 -12.743476,0.66145 0,0.46916 1.22678,0.48598 35.454168,0.48598 34.489902,0 35.454162,-0.0135 35.454162,-0.4961 z m -73.091143,-0.29629 c 1.206027,-0.001 1.653646,-0.0974 1.653646,-0.35631 0,-0.27894 1.114042,-0.39226 5.201923,-0.52917 6.62232,-0.22179 64.834154,-0.2296 65.937914,-0.009 0.57775,0.11555 0.82682,0.31673 0.82682,0.66785 0,0.47649 0.22935,0.49874 4.43177,0.42995 l 4.43177,-0.0725 0.0673,-29.123104 0.0673,-29.123106 -0.68391,-0.642518 -0.68391,-0.642518 -42.907342,-0.07573 c -23.599046,-0.04165 -43.299984,-0.0054 -43.779869,0.0805 -0.603706,0.108098 -1.031352,0.41673 -1.388073,1.001769 -0.502608,0.8243 -0.515583,1.563674 -0.516546,29.433769 -7.94e-4,22.510968 0.06932,28.661688 0.329739,28.933818 0.24905,0.26025 0.951492,0.30633 2.844271,0.18658 1.382448,-0.0875 3.257682,-0.15963 4.167187,-0.16039 z M 39.324097,66.392596 V 39.801971 H 81.525138 123.72617 V 66.392596 92.983215 H 81.525138 39.324097 Z m 83.872913,0 V 40.331138 H 81.525138 39.853263 v 26.061458 26.061449 h 41.671875 41.671872 z"
       id="path826"
       inkscape:connector-curvature="0" />
    <path
       style="opacity:1;fill:#008551;fill-opacity:1;stroke:none;stroke-width:3.77952743;stroke-linecap:round;stroke-linejoin:round;stroke-miterlimit:4;stroke-dasharray:none;stroke-dashoffset:0;stroke-opacity:1"
       d="m 150.37287,152.19248 c 0,65.71429 0,131.42858 0,197.14286 38.47265,0.46552 77.30341,0.0665 115.91379,0.1995 66.42857,0 132.85714,0 199.28571,0 0.46551,-38.47265 0.0665,-77.30341 0.1995,-115.91378 -0.13304,-27.1818 0.26604,-54.58401 -0.1995,-81.62807 -105,0 -210,0 -315,0 z"
       id="path909"
       inkscape:connector-curvature="0"
       transform="scale(0.26458333)" />
    <path
       style="fill:none;stroke:#000000;stroke-width:0.55562502;stroke-linecap:round;stroke-linejoin:miter;stroke-miterlimit:4;stroke-dasharray:none;stroke-opacity:1"
       d="M 46.302083,46.968751 H 116.41667"
       id="path917"
       inkscape:connector-curvature="0" />
    <path
       style="fill:none;stroke:#000000;stroke-width:0.55562502;stroke-linecap:round;stroke-linejoin:miter;stroke-miterlimit:4;stroke-dasharray:none;stroke-opacity:1"
       d="M 46.302083,53.583334 H 101.86458"
       id="path919"
       inkscape:connector-curvature="0" />
    <path
       style="fill:none;stroke:#000000;stroke-width:0.55562502;stroke-linecap:round;stroke-linejoin:miter;stroke-miterlimit:4;stroke-dasharray:none;stroke-opacity:1"
       d="M 46.302083,58.875001 H 115.09375"
       id="path921"
       inkscape:connector-curvature="0" />
    <rect
       style="opacity:1;fill:none;fill-opacity:1;stroke:#000000;stroke-width:0.55562502;stroke-linecap:round;stroke-linejoin:round;stroke-miterlimit:4;stroke-dasharray:none;stroke-dashoffset:0;stroke-opacity:1"
       id="rect923"
       width="29.104166"
       height="13.229166"
       x="68.791664"
       y="64.166664"
       ry="1.3229192" />
    <path
       style="fill:none;stroke:#000000;stroke-width:0.55562502;stroke-linecap:round;stroke-linejoin:miter;stroke-miterlimit:4;stroke-dasharray:none;stroke-opacity:1"
       d="M 44.979166,84.010417 H 91.281249"
       id="path925"
       inkscape:connector-curvature="0" />
    <path
       style="fill:none;stroke:#000000;stroke-width:0.55562502;stroke-linecap:round;stroke-linejoin:miter;stroke-miterlimit:4;stroke-dasharray:none;stroke-opacity:1"
       d="M 44.979166,89.302084 H 107.15625"
       id="path927"
       inkscape:connector-curvature="0" />
    <path
       style="opacity:1;fill:#cfcfcf;fill-opacity:1;stroke:none;stroke-width:1.06066012;stroke-linecap:round;stroke-linejoin:round;stroke-miterlimit:4;stroke-dasharray:none;stroke-dashoffset:0;stroke-opacity:1"
       d="m 160.50155,364.53521 c -7.84428,0.28793 -15.83488,-0.0228 -23.56694,1.35641 -3.18011,2.78829 -4.70519,7.12184 -7.07967,10.5852 -8.09898,14.33593 -16.46859,28.58914 -23.34821,43.55759 -0.16139,1.66615 2.75178,1.0096 3.79346,1.37085 29.82959,1.1468 59.70001,0.75012 89.54687,1.13851 26.08347,0.25603 52.17265,0.26518 78.24848,1.01039 2.04749,4.48929 7.84066,3.39349 11.81208,3.97353 13.19275,0.4785 26.48935,0.76262 39.62086,-0.7655 2.01348,-0.0577 2.78626,-2.4555 4.00395,-3.22191 53.8112,-1.354 107.65222,-0.70503 161.46673,-1.80222 2.76123,-0.47367 6.25635,0.42348 8.61294,-1.32188 -0.15821,-3.48623 -2.39076,-6.71866 -3.44675,-10.03461 -6.40534,-15.07477 -13.02514,-30.16048 -20.00576,-44.9171 -12.00977,0.24852 -24.10342,-0.55054 -36.06462,0.61359 -14.54279,1.25257 -29.23134,0.3035 -43.76308,1.6267 -1.36553,0.84426 1.36426,1.16983 1.92856,1.05948 14.50549,0.21613 29.01787,0.24606 43.51844,0.79313 2.37084,8.10994 5.89442,16.04438 7.26146,24.36401 -0.35027,1.54372 -2.93592,0.47473 -4.06034,0.92038 -12.14762,0.12027 -24.35543,0.50987 -36.47006,-0.19532 -1.17982,-0.0701 -2.30647,-2.05366 -3.20112,-0.43405 -4.38311,1.79841 -9.39725,1.75568 -14.07111,1.69279 -7.75889,-1.36537 -15.74555,0.0178 -23.48308,-1.00028 -0.63784,-0.94385 -2.46383,-1.76237 -2.29159,0.11936 -6.06374,1.07822 -12.53656,0.41225 -18.75188,0.68216 -48.97451,0.12382 -97.94935,0.0357 -146.92399,0.0626 -0.0327,-0.88078 -1.91514,-3.75594 -2.49973,-1.79243 -0.8186,2.13103 -4.1025,0.80802 -5.81331,1.2479 -11.53141,-0.11713 -23.16255,0.0945 -34.62535,-0.80694 -1.62784,-2.17868 0.68843,-5.0739 1.03679,-7.3611 2.36378,-6.97975 5.43418,-13.71903 8.79346,-20.23757 0.78382,-2.5018 -2.66725,-2.12972 -4.14355,-2.19162 -2.01046,-0.0699 -4.02221,-0.10808 -6.03394,-0.0921 z m 172.89392,34.73682 c 9.21771,0.22159 18.52604,-0.36441 27.69042,0.43208 2.83781,0.22303 1.41456,4.0146 1.96521,5.85605 0.22747,4.47413 0.33764,8.96199 0.50591,13.4424 -37.00777,-0.21015 -74.03182,0.22158 -111.02899,-0.54947 -1.49063,-0.40177 -4.14992,0.41221 -5.00439,-1.05948 0.1052,-6.05088 1.6572,-12.02145 2.918,-17.94106 27.65125,-0.0636 55.30247,-0.19734 82.95384,-0.18052 z"
       id="path929"
       inkscape:connector-curvature="0"
       transform="scale(0.26458333)" />
    <path
       style="opacity:1;fill:#cfcfcf;fill-opacity:1;stroke:none;stroke-width:1.06066012;stroke-linecap:round;stroke-linejoin:round;stroke-miterlimit:4;stroke-dasharray:none;stroke-dashoffset:0;stroke-opacity:1"
       d="m 427.38603,423.78599 c -30.15378,0.30245 -60.324,0.0286 -90.46525,0.98325 -2.64631,-0.72575 -4.45905,1.60067 -5.29406,3.73309 6.11703,1.19081 12.62707,0.42345 18.88212,0.71023 49.70621,0.0649 99.41696,0.49798 149.12085,-0.0335 1.28896,-0.38329 4.23365,0.72637 4.02877,-1.56752 1.00326,-2.98569 0.60226,-5.26118 -3.14583,-4.17372 -24.37554,0.11606 -48.75107,0.23211 -73.1266,0.34817 z"
       id="path931"
       inkscape:connector-curvature="0"
       transform="scale(0.26458333)" />
    <path
       style="opacity:1;fill:#cfcfcf;fill-opacity:1;stroke:none;stroke-width:1.06066012;stroke-linecap:round;stroke-linejoin:round;stroke-miterlimit:4;stroke-dasharray:none;stroke-dashoffset:0;stroke-opacity:1"
       d="m 106.32127,423.62026 c -0.17289,2.02015 -0.28017,5.34004 2.55004,5.45522 33.61301,0.50564 67.25938,0.1605 100.88503,0.21564 23.24968,-0.0962 46.50521,0.0135 69.75085,-0.35079 0.5559,-1.52305 -2.13004,-2.91927 -2.83415,-4.0564 -27.71367,-1.09045 -55.46451,-0.71787 -83.19447,-1.04682 -28.98531,-0.14712 -57.97071,-0.27709 -86.95606,-0.41711 z"
       id="path933"
       inkscape:connector-curvature="0"
       transform="scale(0.26458333)" />
    <path
       inkscape:connector-curvature="0"
       id="path937"
       d="m 28.277742,113.87706 c -0.522955,-0.21021 -0.595312,-0.42882 -0.595312,-1.79867 0,-1.71245 -0.333848,-0.99908 4.478671,-9.57017 1.348174,-2.4011 2.739533,-4.812695 3.091913,-5.359095 l 0.640691,-0.99346 -0.0069,-28.979328 c -0.0076,-32.148413 -0.116393,-30.197043 1.726575,-30.967084 1.335802,-0.558134 86.20664,-0.565022 87.54192,-0.0071 1.88178,0.786259 1.74587,-1.602965 1.74587,30.691509 0,24.692723 0.0565,29.153753 0.37396,29.508313 0.20568,0.22974 1.7617,3.51333 3.45781,7.296875 2.65435,5.92109 3.08685,7.07828 3.10546,8.3088 0.0166,1.10003 -0.0907,1.51178 -0.46567,1.78594 -0.40475,0.29596 -9.29523,0.35346 -52.493472,0.33953 -30.346596,-0.01 -52.254139,-0.11642 -52.601516,-0.25605 z m 45.772917,-0.52917 c -0.327422,-0.13161 -0.595312,-0.4204 -0.595312,-0.64176 0,-0.35656 -2.580426,-0.41035 -22.621899,-0.47154 l -22.621899,-0.0691 2.4e-5,0.57326 c 1.3e-5,0.3153 0.148852,0.63332 0.330753,0.70672 0.181901,0.0734 10.629635,0.13531 23.217187,0.13757 13.902672,0.002 22.652776,-0.0898 22.291146,-0.23517 z m 59.145581,-0.52092 0.0774,-0.66146 -22.50079,0.0691 c -19.932672,0.0612 -22.500792,0.11503 -22.500792,0.47155 0,0.22135 -0.2679,0.51049 -0.59532,0.64252 -0.36172,0.14587 8.43692,0.22039 22.423442,0.18992 l 23.01874,-0.0502 z m -45.612002,-0.14378 c 0.23276,-0.23275 0.42319,-0.53308 0.42319,-0.66738 0,-0.14678 8.99906,-0.27119 22.555732,-0.31183 22.3344,-0.067 22.5563,-0.0728 22.61507,-0.5968 0.0326,-0.29105 -1.33849,-3.6248 -3.04696,-7.40834 l -3.10632,-6.879165 -4.60627,-0.0726 c -2.88962,-0.0455 -4.70729,0.0284 -4.87731,0.19844 -0.17632,0.17632 -5.03745,0.29292 -13.91029,0.33366 l -13.639272,0.0626 14.009022,0.1358 14.00901,0.13581 0.99741,3.042705 c 0.54857,1.67349 1.00131,3.2564 1.00608,3.51758 0.008,0.43068 -0.30521,0.47797 -3.36476,0.50823 -6.22665,0.0616 -7.85459,-0.007 -7.96381,-0.33444 -0.0747,-0.22411 -0.16549,-0.21197 -0.3232,0.0432 -0.25051,0.40534 -3.92287,0.68281 -4.67616,0.35332 -0.25543,-0.11173 -0.54716,-0.18643 -0.64827,-0.16601 -0.25793,0.0521 -3.955012,0.11661 -4.493112,0.0784 -0.24399,-0.0173 -0.49807,-0.23986 -0.56462,-0.49453 -0.0921,-0.35224 -0.12834,-0.32217 -0.15169,0.12567 l -0.0307,0.58869 -21.971531,-2.6e-4 -21.971527,-2.7e-4 -0.236701,-0.58833 c -0.219001,-0.54433 -0.237959,-0.54875 -0.253466,-0.0592 -0.01627,0.51354 -0.171079,0.5268 -5.242293,0.44896 -2.874041,-0.0441 -5.374356,-0.12968 -5.556258,-0.19014 -0.181901,-0.0605 -0.330729,-0.28659 -0.330729,-0.50253 0,-0.62613 2.118254,-5.937795 2.533579,-6.353115 0.207261,-0.20726 0.376838,-0.57055 0.376838,-0.8073 0,-0.3868 -0.43616,-0.41342 -4.299479,-0.26245 -2.364714,0.0924 -4.430427,0.20749 -4.590471,0.25572 -0.455922,0.13741 -8.088566,13.860005 -7.990975,14.366835 0.08125,0.42193 1.612974,0.4569 22.771516,0.51998 13.635865,0.0406 22.684409,0.16503 22.684409,0.31183 0,0.13431 0.179438,0.42364 0.398751,0.64295 0.615577,0.61558 12.852217,0.63779 13.465557,0.0245 z m -22.230465,-2.0926 c -0.08111,-0.21136 0.07146,-1.43175 0.339032,-2.71198 l 0.4865,-2.32768 14.799663,-0.0684 c 11.66445,-0.0539 14.84445,0.002 15.01105,0.26458 0.11627,0.18313 0.21322,1.4343 0.21544,2.78037 l 0.004,2.44739 h -15.35414 c -13.18059,0 -15.375015,-0.0544 -15.501605,-0.38429 z m 30.271125,-2.32768 -0.0768,-2.18282 -14.46353,-0.0684 -14.463536,-0.0684 -0.266281,1.25902 c -0.146455,0.69247 -0.348383,1.70551 -0.448729,2.25121 l -0.182443,0.99219 h 14.989099 14.98911 z M 53.08243,103.2514 c 0,-0.11771 -2.024062,-0.21402 -4.497917,-0.21402 -2.473854,0 -4.497916,0.0498 -4.497916,0.11066 0,0.0609 -0.07112,0.29597 -0.158036,0.52248 -0.138385,0.36063 0.379807,0.4209 4.167188,0.48467 3.503474,0.059 4.388059,2.6e-4 4.655952,-0.30848 0.181901,-0.20971 0.330729,-0.4776 0.330729,-0.59531 z m 5.291667,0.57973 c 0,-0.4599 -0.17639,-0.52916 -1.347687,-0.52916 -1.114312,0 -1.371084,-0.0895 -1.482802,-0.51668 -0.123706,-0.47306 -0.190222,-0.45118 -0.78794,0.25917 -0.359055,0.42671 -0.577739,0.89734 -0.48596,1.04584 0.09178,0.1485 1.052812,0.27 2.135629,0.27 1.79237,0 1.96876,-0.0474 1.96876,-0.52917 z m 6.460212,0.0944 c 0.09176,-0.23911 0.132368,-0.4692 0.09025,-0.51132 -0.07065,-0.0707 -3.969179,-0.17168 -5.029113,-0.13034 -0.280612,0.011 -0.463021,0.22654 -0.463021,0.54723 0,0.49351 0.17639,0.52917 2.617526,0.52917 2.18395,0 2.645161,-0.072 2.784353,-0.43474 z m 26.083539,0.0379 c 0,-0.31794 -0.40784,-0.3985 -2.05052,-0.40501 -1.12779,-0.004 -6.72373,-0.0508 -12.435419,-0.10297 -10.038927,-0.0917 -10.384896,-0.0782 -10.384896,0.405 0,0.48299 0.419532,0.49985 12.435417,0.49985 10.877318,0 12.435418,-0.0497 12.435418,-0.39687 z m 6.35,-0.15173 c 0,-0.52521 -0.10771,-0.54344 -2.52674,-0.42777 -1.38971,0.0665 -2.60665,0.20073 -2.70432,0.2984 -0.40518,0.40518 0.74114,0.67011 2.91595,0.67392 2.16735,0.004 2.31511,-0.031 2.31511,-0.54455 z m 10.533782,-0.0467 c 0.0539,-0.28221 -0.0742,-0.46302 -0.32792,-0.46302 -0.22895,0 -0.42568,-0.14883 -0.43717,-0.33073 -0.0167,-0.26458 -0.0476,-0.26458 -0.15434,0 -0.0814,0.20164 -0.64118,0.33073 -1.43432,0.33073 -0.71547,0 -1.30086,0.0498 -1.30086,0.11065 0,0.0609 -0.0744,0.3045 -0.16531,0.54142 -0.14505,0.37801 0.0734,0.42117 1.78313,0.35237 1.60814,-0.0647 1.96387,-0.15927 2.03679,-0.54142 z m 5.14278,0.3684 c 0.10914,-0.0207 0.19844,-0.21627 0.19844,-0.43455 0,-0.31957 -0.41065,-0.39687 -2.10837,-0.39687 -1.72956,0 -2.082,0.0687 -1.96167,0.38225 0.1719,0.44796 2.47236,0.71485 3.8716,0.44917 z m -69.368584,-0.89757 c 0.31314,-0.71144 0.515512,-0.85375 1.172229,-0.82429 0.819269,0.0367 9.003131,0.12924 9.591146,0.10841 0.639619,-0.0227 0.322749,-0.54089 -0.330729,-0.54089 -0.450506,0 -0.664025,-0.14767 -0.669505,-0.46302 -0.0077,-0.44097 -0.02088,-0.44097 -0.27773,0 -0.23767,0.40805 -0.731412,0.46254 -4.159142,0.45897 -2.139201,-0.002 -4.042899,-0.1014 -4.230438,-0.22039 -0.25848,-0.16399 -0.273577,-0.39364 -0.06239,-0.94909 l 0.278593,-0.73276 3.303598,0.0932 c 2.516249,0.071 3.303585,0.0144 3.303537,-0.237485 -3.4e-5,-0.1819 -0.241924,-0.33073 -0.537532,-0.33073 -0.295611,0 -0.607349,-0.18209 -0.692751,-0.40465 -0.138205,-0.36015 -0.188846,-0.35875 -0.460534,0.0128 -0.240908,0.32946 -0.722325,0.40081 -2.283812,0.3385 l -1.978559,-0.079 0.07033,-0.88334 c 0.123454,-1.55053 -0.506064,-0.8039 -1.538172,1.824345 -0.539654,1.37422 -1.063262,2.76647 -1.163568,3.0939 -0.279572,0.91258 0.237863,0.70684 0.665429,-0.26459 z m 59.079374,0.46302 c 0.12752,-0.33231 -0.19067,-0.39687 -1.95607,-0.39687 -1.697712,0 -2.108362,0.0773 -2.108362,0.39687 0,0.31699 0.39372,0.39688 1.956062,0.39688 1.49465,0 1.99199,-0.0936 2.10837,-0.39688 z m 16.77113,0.0661 c -0.0677,-0.1819 -0.50064,-1.55112 -0.96205,-3.04271 l -0.83893,-2.711985 -11.56781,-0.003 c -6.362302,-0.001 -22.369542,-0.0799 -35.571662,-0.17452 l -24.003842,-0.17199 -0.236976,0.63754 c -0.232392,0.62521 -0.205804,0.63909 1.375161,0.71785 1.220631,0.0608 1.685123,-0.0195 1.912694,-0.33073 0.386958,-0.52908 1.432848,-0.53942 1.432848,-0.0141 0,0.31139 0.364332,0.39687 1.691484,0.39687 1.259467,0 1.730383,-0.10136 1.843781,-0.39687 0.08376,-0.21828 0.466426,-0.39688 0.850363,-0.39688 0.511805,0 0.657434,0.1059 0.545774,0.39688 -0.126253,0.32901 0.158129,0.39687 1.663179,0.39687 1.369677,0 1.852867,-0.0974 1.967767,-0.39687 0.08376,-0.21828 0.394155,-0.39688 0.689766,-0.39688 0.301361,0 0.53747,0.17435 0.53747,0.39688 0,0.31439 0.379031,0.39687 1.823775,0.39687 1.377059,0 1.861079,-0.0972 1.976073,-0.39687 0.08376,-0.21828 0.394155,-0.39688 0.689766,-0.39688 0.30136,0 0.537469,0.17435 0.537469,0.39688 0,0.31498 0.382175,0.39687 1.852083,0.39687 1.469909,0 1.852084,-0.0819 1.852084,-0.39687 0,-0.50535 1.026173,-0.52396 1.218755,-0.0221 0.164912,0.42975 2.440361,0.81749 3.263778,0.55615 0.299503,-0.0951 0.54455,-0.34341 0.54455,-0.55188 0,-0.58065 0.977715,-0.45133 1.134996,0.15012 0.12073,0.46167 0.360895,0.52917 1.882942,0.52917 1.308963,0 1.74456,-0.0914 1.74456,-0.36602 0,-0.20131 0.25129,-0.43173 0.55842,-0.51205 0.40331,-0.10546 0.5956,-0.004 0.69231,0.36602 0.11605,0.44378 0.37672,0.51205 1.95513,0.51205 1.39487,0 1.82123,-0.0877 1.82123,-0.37483 0,-0.20615 0.14882,-0.42674 0.33072,-0.49019 0.49254,-0.17181 0.99219,0.0782 0.99219,0.49645 0,0.27993 0.4454,0.36857 1.85209,0.36857 1.40668,0 1.85208,-0.0886 1.85208,-0.36857 0,-0.4136 0.71277,-0.77105 1.08221,-0.54272 0.13239,0.0818 0.24071,0.32033 0.24071,0.53003 0,0.29564 0.41588,0.38126 1.85208,0.38126 1.46991,0 1.85208,-0.0819 1.85208,-0.39688 0,-0.24694 0.24989,-0.39687 0.66146,-0.39687 0.41158,0 0.66146,0.14993 0.66146,0.39687 0,0.31434 0.37875,0.39688 1.82122,0.39688 1.59871,0 1.83814,-0.0647 1.95961,-0.52917 0.0761,-0.29104 0.27973,-0.52917 0.4525,-0.52917 0.172772,0 0.376402,0.23813 0.452512,0.52917 0.0915,0.34984 0.37449,0.53821 0.83512,0.55587 0.38321,0.0147 1.20276,0.0585 1.82123,0.0974 0.94683,0.0595 1.12448,-0.007 1.12448,-0.42357 0,-0.35082 0.19196,-0.49425 0.66145,-0.49425 0.48107,0 0.66146,0.14174 0.66146,0.51972 0,0.4713 0.18489,0.51876 1.98438,0.50936 1.77868,-0.009 1.98437,-0.0631 1.98437,-0.51972 0,-0.33297 0.18325,-0.50936 0.52917,-0.50936 0.34435,0 0.52917,0.17639 0.52917,0.50502 0,0.47236 0.21456,0.50231 3.31685,0.46302 2.69299,-0.0341 3.364,0.0326 3.56756,0.35487 0.43285,0.685175 0.12894,0.923505 -1.28283,1.006025 -1.89459,0.11073 -1.72464,0.58148 0.20993,0.58148 1.28952,0 1.62829,0.0936 1.85208,0.51178 0.62396,1.16587 0.40136,1.3403 -1.71048,1.3403 -1.5875,0 -1.98437,0.0794 -1.98437,0.39687 0,0.32524 0.45881,0.39688 2.54184,0.39688 1.92276,0 2.51187,-0.0805 2.41873,-0.33073 z m -49.476713,-0.97752 c 0.181902,-0.008 0.33073,-0.16807 0.33073,-0.35556 0,-0.24125 -0.57997,-0.36248 -1.984375,-0.41478 -1.617152,-0.0602 -1.984375,-8e-4 -1.984375,0.32148 0,0.47959 0.544843,0.6158 2.116666,0.52916 0.654844,-0.0361 1.339453,-0.0722 1.521354,-0.0803 z m 10.649481,-0.14696 c 0,-0.27718 -0.27928,-0.39688 -0.92604,-0.39688 -0.55331,0 -0.934453,-0.13312 -0.946934,-0.33072 -0.01672,-0.26459 -0.04758,-0.26459 -0.154339,0 -0.0734,0.1819 -0.54025,0.33072 -1.037444,0.33072 -0.856025,0 -1.120535,0.22444 -0.727605,0.61736 0.09701,0.097 0.989981,0.17639 1.984375,0.17639 1.430707,0 1.807987,-0.0828 1.807987,-0.39687 z m 5.21718,-0.0385 c 0.10984,-0.33244 -1.52458,-0.54469 -3.15255,-0.40941 -0.73761,0.0613 -0.94103,0.17782 -0.82739,0.47396 0.11762,0.30651 0.55981,0.37576 2.01524,0.31559 1.10245,-0.0456 1.90549,-0.20095 1.9647,-0.38014 z m 5.03023,-0.0107 c 0.11621,-0.35015 -1.29857,-0.53815 -2.90522,-0.38603 -0.65521,0.062 -0.99219,0.22637 -0.99219,0.48386 0,0.31534 0.36279,0.37329 1.89664,0.30294 1.15797,-0.0531 1.93719,-0.2092 2.00077,-0.40077 z m 5.36301,-0.10399 c 0,-0.13403 -0.89297,-0.24369 -1.98438,-0.24369 -1.41078,0 -1.98455,0.0956 -1.98499,0.33073 -5.3e-4,0.24297 0.52611,0.30763 1.98437,0.24369 1.09175,-0.0479 1.985,-0.19671 1.985,-0.33073 z m -36.247921,-0.11135 c 0,-0.26459 -0.264584,-0.39688 -0.79375,-0.39688 -0.447472,0 -0.802863,-0.14428 -0.814639,-0.33073 -0.01672,-0.26458 -0.04758,-0.26458 -0.15434,0 -0.07488,0.18558 -0.588272,0.33073 -1.169736,0.33073 -0.744754,0 -1.036285,0.11165 -1.036285,0.39688 0,0.3175 0.396875,0.39687 1.984375,0.39687 1.5875,0 1.984375,-0.0794 1.984375,-0.39687 z m 5.122764,0 c 0.127522,-0.33232 -0.190669,-0.39688 -1.956067,-0.39688 -1.697712,0 -2.108364,0.0773 -2.108364,0.39688 0,0.31699 0.393729,0.39687 1.956067,0.39687 1.494653,0 1.991993,-0.0936 2.108364,-0.39687 z m 10.355361,0.13229 c 0.09642,-0.15601 -0.250061,-0.28495 -0.84428,-0.3142 -2.776776,-0.13671 -3.256762,-0.0862 -3.256762,0.34251 0,0.32631 3.898506,0.2994 4.101042,-0.0283 z m 25.796878,0 c 0,-0.14552 -0.47625,-0.26459 -1.05833,-0.26459 -0.819862,0 -1.065252,-0.10433 -1.089032,-0.46302 -0.0292,-0.44097 -0.0365,-0.44097 -0.15169,0 -0.0805,0.30794 -0.38036,0.46302 -0.89535,0.46302 -0.4259,0 -0.77435,0.11907 -0.77435,0.26459 0,0.15287 0.83785,0.26458 1.98437,0.26458 1.146532,0 1.984382,-0.11171 1.984382,-0.26458 z m 5.02708,0.0266 c 0,-0.26826 -1.80646,-0.46618 -3.10885,-0.34061 -1.65555,0.15963 -0.84132,0.57855 1.12448,0.57855 1.0914,0 1.98437,-0.10707 1.98437,-0.23794 z m 11.57459,-0.0928 c -0.0842,-0.25052 -1.19645,-0.31559 -4.5861,-0.2683 -2.46122,0.0343 -4.74284,0.0641 -5.07026,0.0662 -0.32742,0.002 -0.59531,0.12278 -0.59531,0.2683 0,0.16738 1.90353,0.26458 5.18142,0.26458 4.02803,0 5.15667,-0.0736 5.07025,-0.33073 z m -39.741835,-1.00979 c 0.09592,-0.1552 0.09695,-0.35964 0.0024,-0.4543 -0.171953,-0.17196 -3.894124,-0.10095 -4.072768,0.0777 -0.371417,0.37132 0.534151,0.6588 2.075132,0.6588 1.004223,0 1.899071,-0.12656 1.995255,-0.28219 z m 4.833543,-0.18083 c -0.049,-0.25466 -0.17684,-0.43326 -0.28399,-0.39688 -0.10714,0.0364 -0.90918,0.0662 -1.78231,0.0662 -1.23472,0 -1.5875,0.0882 -1.5875,0.39687 0,0.31538 0.38433,0.39688 1.87148,0.39688 1.63995,0 1.86046,-0.0573 1.78232,-0.46302 z m 5.43772,0.0661 c 0.0928,-0.24175 5.3e-4,-0.39687 -0.23628,-0.39687 -0.21371,0 -0.39797,-0.14883 -0.40946,-0.33073 -0.0167,-0.26458 -0.0476,-0.26458 -0.15434,0 -0.0857,0.21228 -0.6941,0.33073 -1.6989,0.33073 -1.21513,0 -1.56545,0.0888 -1.56545,0.39687 0,0.31699 0.39372,0.39688 1.95606,0.39688 1.49465,0 1.99199,-0.0936 2.10837,-0.39688 z m 4.9314,0.1134 c 0,-0.15592 -0.1786,-0.46208 -0.39688,-0.68036 -0.21828,-0.21828 -0.39687,-0.26931 -0.39687,-0.11339 0,0.17009 -0.635,0.28348 -1.5875,0.28348 -1.23472,0 -1.5875,0.0882 -1.5875,0.39687 0,0.3175 0.39687,0.39688 1.98437,0.39688 1.23473,0 1.98438,-0.10709 1.98438,-0.28348 z m 5.02708,0 c 0,-0.15592 -0.17859,-0.46208 -0.39687,-0.68036 -0.21828,-0.21828 -0.39688,-0.26931 -0.39688,-0.11339 0,0.17009 -0.635,0.28348 -1.5875,0.28348 -1.23472,0 -1.5875,0.0882 -1.5875,0.39687 0,0.3175 0.39688,0.39688 1.98438,0.39688 1.23472,0 1.98437,-0.10709 1.98437,-0.28348 z m 5.291672,-0.1134 c 0,-0.21828 -0.1786,-0.39687 -0.39688,-0.39687 -0.21828,0 -0.40627,-0.14883 -0.41776,-0.33073 -0.0167,-0.26458 -0.0476,-0.26458 -0.15434,0 -0.0837,0.20745 -0.66765,0.33073 -1.56661,0.33073 -1.097532,0 -1.433162,0.0929 -1.433162,0.39687 0,0.3175 0.396872,0.39688 1.984372,0.39688 1.5875,0 1.98438,-0.0794 1.98438,-0.39688 z m 4.96182,-0.0661 c 0.0601,-0.1819 -0.0792,-0.33073 -0.30957,-0.33073 -0.2304,0 -0.42832,-0.14883 -0.43981,-0.33073 -0.0167,-0.26458 -0.0476,-0.26458 -0.15434,0 -0.0837,0.20745 -0.66764,0.33073 -1.56661,0.33073 -1.11561,0 -1.43316,0.0905 -1.43316,0.40846 0,0.33749 0.32968,0.39496 1.89707,0.33073 1.22379,-0.0502 1.93587,-0.19511 2.00642,-0.40846 z m 5.09235,0.12979 c 0,-0.18328 -0.23813,-0.48195 -0.52917,-0.6637 -0.31367,-0.19589 -0.52917,-0.22181 -0.52917,-0.0636 0,0.14704 -0.6533,0.26683 -1.45521,0.26683 -1.11713,0 -1.4552,0.0922 -1.4552,0.39687 0,0.3175 0.39687,0.39688 1.98437,0.39688 1.41906,0 1.98438,-0.0949 1.98438,-0.33323 z m -61.236427,-0.26582 c 0.02819,-0.0343 -0.0445,-0.30054 -0.161529,-0.59158 -0.16266,-0.40453 -0.217154,-0.42737 -0.23137,-0.0969 -0.01654,0.38426 -0.400166,0.41674 -3.458181,0.29271 -3.234682,-0.1312 -3.840914,-0.0238 -3.242767,0.57432 0.168066,0.16807 6.949387,-0.003 7.093847,-0.1785 z m 5.144754,0.0699 c 0,-0.14552 -0.178594,-0.26458 -0.396875,-0.26458 -0.218282,0 -0.410687,-0.20836 -0.427567,-0.46302 -0.02923,-0.44098 -0.03645,-0.44098 -0.151694,0 -0.09458,0.36194 -0.405556,0.46302 -1.424514,0.46302 -0.716936,0 -1.303517,0.11906 -1.303517,0.26458 0,0.15119 0.79375,0.26458 1.852083,0.26458 1.058334,0 1.852084,-0.11339 1.852084,-0.26458 z m 5.148074,0.0183 c 0.08373,-0.13546 0.06098,-0.2895 -0.05053,-0.34231 -0.41284,-0.19549 -3.774628,0.1132 -3.774628,0.34661 0,0.3187 3.628052,0.31463 3.825158,-0.004 z m 5.066692,-0.17221 c -0.08833,-0.23018 -0.164219,-0.5576 -0.168646,-0.7276 -0.0044,-0.17 -0.129402,-0.10073 -0.27773,0.15393 -0.209029,0.35888 -0.623779,0.46302 -1.844037,0.46302 -0.873181,0 -1.574353,0.11784 -1.574353,0.26458 0,0.1532 0.847283,0.26458 2.012682,0.26458 1.726602,0 1.989855,-0.0595 1.852084,-0.41851 z m 5.080354,0.13409 c -0.05214,-0.15644 -0.181128,-0.2755 -0.286631,-0.26459 -0.105502,0.0109 -0.965729,0.0199 -1.911614,0.0199 -0.97014,0 -1.719792,0.11533 -1.719792,0.26458 0,0.15313 0.845196,0.26458 2.006423,0.26458 1.313346,0 1.973675,-0.0982 1.911614,-0.28442 z m -16.88262,-1.170785 c 0,-0.21828 -0.178594,-0.39688 -0.396875,-0.39688 -0.218282,0 -0.410687,-0.20836 -0.427567,-0.46302 -0.02923,-0.44097 -0.03645,-0.44097 -0.151694,0 -0.08933,0.34182 -0.392956,0.46302 -1.15993,0.46302 -0.74711,0 -1.038934,0.11148 -1.038934,0.39688 0,0.308685 0.352777,0.396875 1.5875,0.396875 1.234723,0 1.5875,-0.0882 1.5875,-0.396875 z m 5.820833,0 c 0,-0.26459 -0.264583,-0.39688 -0.79375,-0.39688 -0.567873,0 -0.802484,-0.13176 -0.824442,-0.46302 -0.02923,-0.44097 -0.03645,-0.44097 -0.151693,0 -0.09459,0.36195 -0.405556,0.46302 -1.424514,0.46302 -0.982292,0 -1.303518,0.0978 -1.303518,0.39688 0,0.321655 0.426273,0.396875 2.248959,0.396875 1.822685,0 2.248958,-0.0752 2.248958,-0.396875 z m 5.027083,0.01681 c 0,-0.426935 -1.078769,-0.598805 -2.844271,-0.453115 -0.742979,0.0613 -1.124479,0.21839 -1.124479,0.463015 0,0.28435 0.460341,0.37021 1.984375,0.37021 1.548604,0 1.984375,-0.0835 1.984375,-0.38011 z m 5.027084,0.13657 c 0,-0.13396 -0.357188,-0.322005 -0.79375,-0.417895 -0.474456,-0.10421 -0.806096,-0.35213 -0.824442,-0.61633 -0.02711,-0.39041 -0.04481,-0.38796 -0.151694,0.021 -0.117191,0.44845 -0.507346,0.57491 -1.47126,0.47686 -0.263554,-0.0268 -0.463021,0.13104 -0.463021,0.36641 0,0.335545 0.34907,0.413485 1.852083,0.413485 1.018646,0 1.852084,-0.1096 1.852084,-0.24356 z m 5.027083,0.008 c 0,-0.12958 -0.403937,-0.282765 -0.897633,-0.340405 -1.284722,-0.14999 -3.09422,0.06 -2.921736,0.339115 0.190717,0.30859 3.819369,0.30982 3.819369,10e-4 z m 5.027088,-0.029 c 0,-0.145515 -0.41672,-0.264585 -0.92605,-0.264585 -0.69386,0 -0.93373,-0.11608 -0.95673,-0.46302 -0.0292,-0.44097 -0.0365,-0.44097 -0.15169,0 -0.0855,0.32735 -0.38666,0.46302 -1.027642,0.46302 -0.498655,0 -0.906643,0.11907 -0.906643,0.264585 0,0.15286 0.837848,0.26457 1.984375,0.26457 1.14653,0 1.98438,-0.11171 1.98438,-0.26457 z m 5.02708,0.0278 c 0,-0.13024 -0.44649,-0.279065 -0.99219,-0.330725 -1.46591,-0.13879 -3.0098,0.0351 -2.83419,0.319235 0.19591,0.31699 3.82638,0.32788 3.82638,0.0115 z m 4.88156,-0.005 c -0.45619,-0.439735 -3.96202,-0.460915 -3.69094,-0.0223 0.0899,0.14553 1.01375,0.26459 2.05291,0.26459 1.15028,0 1.79106,-0.0948 1.63803,-0.24227 z m 5.17261,-0.0223 c 0,-0.151165 -0.79375,-0.264565 -1.85209,-0.264565 -1.05833,0 -1.85208,0.1134 -1.85208,0.264565 0,0.15119 0.79375,0.26458 1.85208,0.26458 1.05834,0 1.85209,-0.11339 1.85209,-0.26458 z m 5.027082,0 c 0,-0.151165 -0.79375,-0.264565 -1.85208,-0.264565 -1.058342,0 -1.852092,0.1134 -1.852092,0.264565 0,0.15119 0.79375,0.26458 1.852092,0.26458 1.05833,0 1.85208,-0.11339 1.85208,-0.26458 z m 3.9852,-0.0237 c -0.67559,-0.132475 -1.51822,-0.130295 -1.98438,0.005 -0.64675,0.18793 -0.40987,0.23437 1.17418,0.23028 1.85534,-0.005 1.90802,-0.0201 0.8102,-0.23541 z m 6.02959,0.16071 c -0.22233,-0.22235 -3.66479,-0.297885 -3.66479,-0.0804 0,0.1144 0.85328,0.20799 1.89618,0.20799 1.0429,0 1.83877,-0.0574 1.76861,-0.12754 z m 4.07426,-0.0638 c -0.47294,-0.0587 -1.24685,-0.0587 -1.71979,0 -0.47293,0.0587 -0.086,0.10673 0.8599,0.10673 0.94588,0 1.33283,-0.048 0.85989,-0.10673 z M 88.073578,97.287955 c -0.61847,-0.0557 -1.6305,-0.0557 -2.24896,0 -0.61846,0.0557 -0.11245,0.10129 1.12448,0.10129 1.23693,0 1.74294,-0.0456 1.12448,-0.10129 z m 28.773432,-1.09611 c 0,-0.34396 -0.25356,-0.54681 -0.82683,-0.66146 -1.0957,-0.21914 -41.203547,-0.21206 -57.338024,0.0101 -12.125846,0.16698 -12.743476,0.19903 -12.743476,0.66145 0,0.46916 1.22678,0.48598 35.454168,0.48598 34.489902,0 35.454162,-0.0135 35.454162,-0.4961 z m -73.091143,-0.29629 c 1.206027,-0.001 1.653646,-0.0974 1.653646,-0.35631 0,-0.27894 1.114042,-0.39226 5.201923,-0.52917 6.62232,-0.22179 64.834154,-0.2296 65.937914,-0.009 0.57775,0.11555 0.82682,0.31673 0.82682,0.66785 0,0.47649 0.22935,0.49874 4.43177,0.42995 l 4.43177,-0.0725 0.0673,-29.123104 c 1.6e-4,-9.71327 0.80356,-24.172573 -0.21842,-29.080782 -0.24529,-1.178053 -0.62377,-0.935337 -1.0654,-1.177021 L 82.099148,36.419399 c -23.598755,-0.124288 -43.299984,-0.0054 -43.779869,0.0805 -0.603706,0.108098 -1.031352,0.41673 -1.388073,1.001769 -0.502608,0.8243 -0.515583,1.563674 -0.516546,29.433769 -7.94e-4,22.510968 0.06932,28.661688 0.329739,28.933818 0.24905,0.26025 0.951492,0.30633 2.844271,0.18658 1.382448,-0.0875 3.257682,-0.15963 4.167187,-0.16039 z M 39.324097,66.392596 V 39.801971 H 81.525138 123.72617 V 66.392596 92.983215 H 81.525138 39.324097 Z m 83.872913,0 V 40.331138 H 81.525138 39.853263 v 26.061458 26.061449 h 41.671875 41.671872 z"
       style="fill:#666666;stroke-width:0.26458332"
       sodipodi:nodetypes="csscccscsccccccccsccsscccccsscccccscccccccccccccccccccccccccccscsccccsccccccscccsccccccccccccssscccssscccsscccssccscssssscscscsccssccccsscccccsccccccccscccccscccssssscscccccccsscscscssscssssccscssccsscssscsssssscscccssscssscccscssscccscsccssccscsscccccccsccssccsssccsssscssscccsccssccssssscsscccsscccccsccccssscccsccssscssssssssssssssssccsssscsccssccscsssssscccccccssscssssccscccccssscccsssccssccssssssscssssscsssccsccsscccccccssccsssssccssscscsssssscssscccccccsccccscccsccccssccccscsccccsscssscccccccccccccccccccccc" />
    <path
       inkscape:connector-curvature="0"
       id="path939"
       d="m 39.821234,40.279286 c 0,17.386906 0,34.773812 0,52.160715 10.179222,0.123168 20.453193,0.01759 30.668856,0.05278 17.575892,0 35.15179,0 52.72768,0 0.12316,-10.179222 0.0176,-20.453194 0.0528,-30.668854 -0.0352,-7.191851 0.0704,-14.442019 -0.0528,-21.597427 -27.781253,0 -55.562502,0 -83.343752,0 z"
       style="opacity:1;fill:#008551;fill-opacity:1;stroke:none;stroke-width:0.99999994;stroke-linecap:round;stroke-linejoin:round;stroke-miterlimit:4;stroke-dasharray:none;stroke-dashoffset:0;stroke-opacity:1" />
    <path
       inkscape:connector-curvature="0"
       id="path953"
       d="m 42.466035,96.44994 c -2.075466,0.07618 -4.189646,-0.006 -6.23542,0.358883 -0.841404,0.737735 -1.244915,1.88432 -1.873163,2.800668 -2.142855,3.793049 -4.357314,7.564209 -6.177547,11.524609 -0.0427,0.44084 0.728075,0.26713 1.003687,0.36271 7.892412,0.30342 15.795627,0.19847 23.692609,0.30123 6.901251,0.0677 13.804013,0.0702 20.703243,0.26733 0.541732,1.18779 2.074508,0.89786 3.125279,1.05133 3.490582,0.1266 7.008641,0.20178 10.48302,-0.20254 0.532733,-0.0153 0.737198,-0.64968 1.059378,-0.85246 14.237549,-0.35825 28.482979,-0.18654 42.721409,-0.47684 0.73057,-0.12532 1.65532,0.11205 2.27884,-0.34975 -0.0419,-0.9224 -0.63256,-1.77764 -0.91196,-2.65499 -1.69474,-3.98853 -3.44623,-7.97996 -5.29319,-11.884314 -3.17758,0.06575 -6.37736,-0.145663 -9.54209,0.162346 -3.84778,0.331409 -7.73413,0.0803 -11.57899,0.430398 -0.36129,0.223377 0.36097,0.309517 0.51027,0.280321 3.83791,0.05718 7.67764,0.0651 11.51425,0.209849 0.62729,2.145755 1.55957,4.24508 1.92126,6.44631 -0.0927,0.40844 -0.77679,0.12561 -1.07429,0.24352 -3.21406,0.0318 -6.44404,0.1349 -9.64937,-0.0517 -0.31216,-0.0186 -0.61026,-0.54336 -0.84697,-0.11484 -1.15969,0.47583 -2.48635,0.46452 -3.72298,0.44788 -2.05287,-0.36125 -4.16601,0.005 -6.213229,-0.26466 -0.168762,-0.24972 -0.651889,-0.46629 -0.606317,0.0316 -1.604364,0.28528 -3.316965,0.10908 -4.961435,0.18049 -12.957839,0.0328 -25.915765,0.009 -38.873638,0.0166 -0.0087,-0.23304 -0.506714,-0.99376 -0.661387,-0.47425 -0.216588,0.56383 -1.085453,0.21379 -1.538105,0.33017 -3.051019,-0.031 -6.128425,0.025 -9.161291,-0.2135 -0.430699,-0.57644 0.182148,-1.34247 0.274318,-1.94763 0.625417,-1.84672 1.437793,-3.629822 2.326603,-5.354519 0.207385,-0.661935 -0.70571,-0.563489 -1.096314,-0.579866 -0.531935,-0.0185 -1.06421,-0.0286 -1.59648,-0.02437 z m 45.744849,9.19078 c 2.438852,0.0586 4.901681,-0.0964 7.326423,0.11432 0.750837,0.059 0.374269,1.0622 0.519962,1.54942 0.06018,1.18378 0.08933,2.37119 0.133855,3.55663 -9.791639,-0.0556 -19.587585,0.0586 -29.37642,-0.14538 -0.394395,-0.1063 -1.097999,0.10907 -1.324078,-0.28032 0.02783,-1.60096 0.438468,-3.18067 0.772054,-4.7469 7.31606,-0.0168 14.632112,-0.0522 21.948204,-0.0478 z"
       style="opacity:1;fill:#cfcfcf;fill-opacity:1;stroke:none;stroke-width:0.28063297;stroke-linecap:round;stroke-linejoin:round;stroke-miterlimit:4;stroke-dasharray:none;stroke-dashoffset:0;stroke-opacity:1" />
    <path
       inkscape:connector-curvature="0"
       id="path955"
       d="m 113.07922,112.12671 c -7.97819,0.08 -15.960726,0.008 -23.935598,0.26015 -0.70017,-0.19202 -1.17979,0.42351 -1.40072,0.98771 1.618464,0.31507 3.340912,0.11204 4.995894,0.18792 13.151434,0.0172 26.304074,0.13176 39.454894,-0.009 0.34103,-0.10141 1.12015,0.19219 1.06594,-0.41473 0.26545,-0.78997 0.15935,-1.39203 -0.83233,-1.1043 -6.44936,0.0307 -12.89872,0.0614 -19.34808,0.0921 z"
       style="opacity:1;fill:#cfcfcf;fill-opacity:1;stroke:none;stroke-width:0.28063297;stroke-linecap:round;stroke-linejoin:round;stroke-miterlimit:4;stroke-dasharray:none;stroke-dashoffset:0;stroke-opacity:1" />
    <path
       inkscape:connector-curvature="0"
       id="path957"
       d="m 28.130836,112.08286 c -0.04574,0.5345 -0.07413,1.41288 0.674698,1.44336 8.893442,0.13378 17.79571,0.0425 26.692497,0.0571 6.151478,-0.0254 12.304503,0.004 18.454912,-0.0928 0.147082,-0.40297 -0.563573,-0.77239 -0.749869,-1.07325 -7.332575,-0.28852 -14.674985,-0.18994 -22.01187,-0.27698 -7.66903,-0.0389 -15.338083,-0.0733 -23.007124,-0.11036 z"
       style="opacity:1;fill:#cfcfcf;fill-opacity:1;stroke:none;stroke-width:0.28063297;stroke-linecap:round;stroke-linejoin:round;stroke-miterlimit:4;stroke-dasharray:none;stroke-dashoffset:0;stroke-opacity:1" />
    <path
       inkscape:connector-curvature="0"
       style="fill:#ffffff;stroke-width:0.22033301"
       d="m 60.807193,62.195412 c -2.303133,0 -4.169361,1.86622 -4.169361,4.169361 0,2.30226 1.866228,4.168701 4.169361,4.168701 2.302267,0 4.168704,-1.866441 4.168704,-4.168701 0,-2.303361 -1.86622,-4.169361 -4.168704,-4.169361 z m 29.768542,18.94908 c -1.994239,1.15124 -2.676832,3.700052 -1.526031,5.693405 1.151458,1.994234 3.700054,2.677266 5.694285,1.526027 1.993573,-1.15102 2.676606,-3.699833 1.525365,-5.693846 -1.151017,-1.993353 -3.700046,-2.676606 -5.693619,-1.525586 z M 69.863326,66.364112 c 0,-4.120448 2.047553,-7.759908 5.17871,-9.96368 l -3.04809,-5.105776 c -3.648715,2.437764 -6.362779,6.164477 -7.490221,10.529274 1.316927,1.073463 2.158384,2.708113 2.158384,4.540623 0,1.832068 -0.841457,3.466719 -2.158609,4.539962 1.127225,4.365238 3.841514,8.09195 7.490229,10.529495 l 3.048307,-5.106218 c -3.131157,-2.203331 -5.17871,-5.842571 -5.17871,-9.96368 z M 82.042231,54.185204 c 6.362562,0 11.581586,4.878394 12.128673,11.098836 l 5.941916,-0.08681 c -0.292377,-4.592622 -2.298495,-8.716815 -5.381605,-11.747937 -1.585083,0.598866 -3.416269,0.508088 -4.998919,-0.405853 -1.584632,-0.914823 -2.579,-2.458035 -2.851327,-4.132787 -1.540571,-0.426344 -3.162003,-0.658795 -4.838513,-0.658795 -2.88328,0 -5.607254,0.676863 -8.026956,1.875474 l 2.896495,5.191047 c 1.5593,-0.725557 3.296843,-1.133174 5.130236,-1.133175 z m 0,24.358036 c -1.833609,0 -3.570936,-0.407616 -5.130452,-1.133173 l -2.896937,5.191487 c 2.419918,1.198171 5.144117,1.875254 8.027389,1.875254 1.676518,0 3.29795,-0.232451 4.838738,-0.658795 0.272327,-1.674752 1.266911,-3.217964 2.851768,-4.133448 1.582651,-0.913501 3.413837,-1.004278 4.998919,-0.405192 3.082899,-3.031342 5.089017,-7.155535 5.380954,-11.748157 l -5.941923,-0.08681 C 93.624042,73.665728 88.404793,78.54324 82.042231,78.54324 Z m 8.532838,-26.959728 c 1.994014,1.151681 4.543052,0.468429 5.693844,-1.524925 1.151462,-1.994234 0.468874,-4.543047 -1.525365,-5.694507 -1.99379,-1.151019 -4.542603,-0.467987 -5.694061,1.526247 -1.151025,1.993353 -0.467991,4.542386 1.525582,5.693185 z"
       id="path6" />
  </g>
</svg>
