<?xml version="1.0" encoding="UTF-8" standalone="no"?>
<!-- Created with Inkscape (http://www.inkscape.org/) -->

<svg
   width="37.657887mm"
   height="36.334972mm"
   viewBox="0 0 37.657887 36.334972"
   version="1.1"
   id="svg5"
   inkscape:version="1.2 (dc2aedaf03, 2022-05-15)"
   sodipodi:docname="share.svg"
   xmlns:inkscape="http://www.inkscape.org/namespaces/inkscape"
   xmlns:sodipodi="http://sodipodi.sourceforge.net/DTD/sodipodi-0.dtd"
   xmlns="http://www.w3.org/2000/svg"
   xmlns:svg="http://www.w3.org/2000/svg">
  <sodipodi:namedview
     id="namedview7"
     pagecolor="#ffffff"
     bordercolor="#666666"
     borderopacity="1.0"
     inkscape:showpageshadow="2"
     inkscape:pageopacity="0.0"
     inkscape:pagecheckerboard="0"
     inkscape:deskcolor="#d1d1d1"
     inkscape:document-units="mm"
     showgrid="true"
     inkscape:zoom="2.2047486"
     inkscape:cx="125.18434"
     inkscape:cy="102.50602"
     inkscape:window-width="1851"
     inkscape:window-height="1015"
     inkscape:window-x="69"
     inkscape:window-y="28"
     inkscape:window-maximized="1"
     inkscape:current-layer="g5349">
    <inkscape:grid
       type="xygrid"
       id="grid3287"
       originx="-34.087716"
       originy="-111.00798" />
  </sodipodi:namedview>
  <defs
     id="defs2" />
  <g
     inkscape:label="Ebene 1"
     inkscape:groupmode="layer"
     id="layer1"
     transform="translate(-34.087718,-111.00798)">
    <g
       id="g5349"
       style="stroke:#ffffff;stroke-opacity:1">
      <path
         style="color:#000000;fill:#008551;stroke:#ffffff;stroke-opacity:1;-inkscape-stroke:none"
         d="m 65.408203,115.07422 -29.298828,16.11328 29.466797,11.78711 1.138672,-2.8457 L 43.267578,130.75 66.884766,117.75977 Z"
         id="path2559" />
      <path
         style="fill:#008551;stroke:#ffffff;stroke-linecap:round;stroke-linejoin:bevel;stroke-opacity:1"
         id="path61-6"
         sodipodi:type="arc"
         sodipodi:cx="66.145836"
         sodipodi:cy="116.60777"
         sodipodi:rx="5.100565"
         sodipodi:ry="5.100565"
         sodipodi:start="5.1675883"
         sodipodi:end="5.1647767"
         sodipodi:open="true"
         sodipodi:arc-type="arc"
         d="m 68.388255,112.02658 a 5.100565,5.100565 0 0 1 2.340348,6.82039 5.100565,5.100565 0 0 1 -6.818744,2.34514 5.100565,5.100565 0 0 1 -2.349933,-6.81709 5.100565,5.100565 0 0 1 6.81544,-2.35473" />
      <path
         style="fill:#008551;stroke:#ffffff;stroke-linecap:round;stroke-linejoin:bevel;stroke-opacity:1"
         id="path61-3"
         sodipodi:type="arc"
         sodipodi:cx="66.145836"
         sodipodi:cy="141.74318"
         sodipodi:rx="5.100565"
         sodipodi:ry="5.100565"
         sodipodi:start="5.1675883"
         sodipodi:end="5.1647767"
         sodipodi:open="true"
         sodipodi:arc-type="arc"
         d="m 68.388255,137.16199 a 5.100565,5.100565 0 0 1 2.340348,6.82039 5.100565,5.100565 0 0 1 -6.818744,2.34514 5.100565,5.100565 0 0 1 -2.349933,-6.81709 5.100565,5.100565 0 0 1 6.81544,-2.35473" />
      <path
         style="fill:#008551;stroke:#ffffff;stroke-linecap:round;stroke-linejoin:bevel;stroke-opacity:1"
         id="path61"
         sodipodi:type="arc"
         sodipodi:cx="39.6875"
         sodipodi:cy="130.96875"
         sodipodi:rx="5.100565"
         sodipodi:ry="5.100565"
         sodipodi:start="5.1675883"
         sodipodi:end="5.1647767"
         sodipodi:open="true"
         sodipodi:arc-type="arc"
         d="m 41.929919,126.38756 a 5.100565,5.100565 0 0 1 2.340348,6.82039 5.100565,5.100565 0 0 1 -6.818744,2.34514 5.100565,5.100565 0 0 1 -2.349933,-6.81709 5.100565,5.100565 0 0 1 6.81544,-2.35473" />
    </g>
  </g>
</svg>
