<?xml version="1.0" encoding="UTF-8" standalone="no"?>
<!-- Created with Inkscape (http://www.inkscape.org/) -->

<svg
   width="94.19912mm"
   height="97.820976mm"
   viewBox="0 0 94.19912 97.820976"
   version="1.1"
   id="svg5"
   inkscape:version="1.1.2 (0a00cf5339, 2022-02-04)"
   sodipodi:docname="status.svg"
   xmlns:inkscape="http://www.inkscape.org/namespaces/inkscape"
   xmlns:sodipodi="http://sodipodi.sourceforge.net/DTD/sodipodi-0.dtd"
   xmlns="http://www.w3.org/2000/svg"
   xmlns:svg="http://www.w3.org/2000/svg">
  <sodipodi:namedview
     id="namedview7"
     pagecolor="#ffffff"
     bordercolor="#666666"
     borderopacity="1.0"
     inkscape:pageshadow="2"
     inkscape:pageopacity="0.0"
     inkscape:pagecheckerboard="0"
     inkscape:document-units="mm"
     showgrid="false"
     fit-margin-top="0"
     fit-margin-left="0"
     fit-margin-right="0"
     fit-margin-bottom="0"
     inkscape:zoom="0.54740758"
     inkscape:cx="154.36396"
     inkscape:cy="-186.33282"
     inkscape:window-width="1851"
     inkscape:window-height="1015"
     inkscape:window-x="69"
     inkscape:window-y="28"
     inkscape:window-maximized="1"
     inkscape:current-layer="g845"
     inkscape:snap-global="false" />
  <defs
     id="defs2" />
  <g
     inkscape:label="Ebene 1"
     inkscape:groupmode="layer"
     id="layer1"
     transform="translate(-23.595403,-22.377388)">
    <g
       id="g852">
      <g
         id="g845">
        <path
           style="color:#000000;fill:#878787;stroke-linecap:round;stroke-linejoin:bevel;-inkscape-stroke:none"
           d="m 89.275391,32.966797 c -0.183419,-0.01199 -0.341772,0.127111 -0.353516,0.310547 -0.339727,5.124445 0.819287,8.661623 2.237797,13.107372 0.226934,0.711233 0.06619,2.323395 0.32536,3.037872 0.148149,0.408414 -0.02585,0.253054 -0.113959,0.808056 -0.02067,0.130223 -0.197509,0.218329 -0.223035,0.351712 -0.25385,1.326458 0.243356,2.335172 -0.176749,3.986351 -0.56812,2.23294 -3.438735,6.141174 -3.745038,6.742538 -2.073879,4.071635 -5.302271,7.532197 -7.985773,9.46924 -0.624893,0.604888 -1.271892,-0.124702 -1.907845,-0.187518 l 2.148777,4.390213 c 3.211779,0.346165 16.086013,11.470685 24.22588,17.029732 0.15164,0.102603 0.36723,-2.330461 0.47047,-2.481661 0.10301,-0.151122 0.0646,-0.357064 -0.0859,-0.460938 -6.855351,-4.681764 -13.166057,-6.702381 -21.326645,-13.107518 -1.2967,-1.017762 -1.832396,-1.973151 -1.801941,-2.594329 0.02418,-0.493223 -0.714701,-0.687586 -1.068747,-1.044247 5.395214,-6.067599 8.408656,-10.896253 10.016856,-14.971428 0.274345,-0.69519 0.507795,-1.368453 0.705199,-2.022198 0.495525,-1.641041 0.524991,-2.782877 0.642925,-4.216075 0.01245,-0.151324 0.06324,-0.764591 0.112088,-0.883987 0.191275,-0.467536 0.181391,-1.430511 0.176842,-1.836561 -0.0075,-0.669452 -0.282435,-0.909299 -0.343288,-1.528555 -0.456855,-4.64905 -1.957129,-8.475522 -1.621169,-13.543149 0.01315,-0.183443 -0.125122,-0.342716 -0.308593,-0.355469 z"
           id="path1934"
           sodipodi:nodetypes="ccssssssccccccsscssssssccc" />
        <path
           style="color:#000000;fill:#878787;stroke-linecap:round;stroke-linejoin:bevel;-inkscape-stroke:none"
           d="m 41.482422,63.412109 c -0.179072,-0.04105 -0.357499,0.0709 -0.398438,0.25 -0.04095,0.179686 0.07206,0.3584 0.251953,0.398438 6.418642,1.455958 13.09056,0.464851 19.542969,0.691406 5.765703,0.202444 10.69856,1.309005 15.467793,6.232014 0.186024,0.192022 0.372466,0.617953 0.479083,0.857316 0.182918,0.410668 0.315029,0.631637 1.137655,0.77748 -6.914073,9.724135 -9.85717,21.565343 -9.426328,30.658577 0.21724,4.585 1.560435,8.44077 4.275391,10.82813 2.714956,2.38736 6.769356,3.24705 12.236328,1.93945 0.178459,-0.0427 0.288596,-0.22189 0.246094,-0.40039 -0.0427,-0.17846 -0.221887,-0.28859 -0.400391,-0.24609 -5.331938,1.2753 -9.11343,0.43295 -11.642578,-1.79102 -2.529148,-2.22397 -2.617084,-5.66762 -3.507469,-10.05625 -1.743699,-8.594552 2.363896,-20.233408 8.17125,-27.71809 0.604146,-0.77864 2.00007,-0.723435 2.422664,-1.365776 0.642512,-0.976614 -0.416524,-0.144233 0.113204,-0.880944 L 79.681641,72.138672 C 73.339994,66.15186 67.437575,64.317354 60.902344,64.087891 54.367113,63.858428 47.739497,64.831419 41.482422,63.412109 Z"
           id="path1936"
           sodipodi:nodetypes="cccssscsssccssssccsc" />
        <path
           style="color:#000000;fill:#878787;-inkscape-stroke:none"
           d="m 105.27539,62.294922 c -0.47099,1.49223 -0.92297,2.488498 -1.36523,3.109375 -0.44227,0.620876 -0.84551,0.863817 -1.30274,0.939453 -0.91445,0.151272 -2.21713,-0.511499 -4.052733,-1.085938 -1.835603,-0.574438 -3.205467,-1.068071 -6.34667,-0.268655 -3.141203,0.799416 -8.047567,2.877529 -12.987314,7.122171 l 1.834438,1.926221 c 0.955598,-5.304332 7.374013,-7.381421 11.042743,-8.047011 3.056247,-0.554472 4.945924,-0.568725 6.259538,-0.09796 2.782108,0.997033 3.083078,1.318551 4.359378,1.107422 0.63814,-0.105564 1.22314,-0.491296 1.73437,-1.208984 0.51123,-0.717689 0.97708,-1.770075 1.45899,-3.296875 z"
           id="path2948-6"
           sodipodi:nodetypes="cssssccsssscc" />
      </g>
      <path
         style="color:#000000;fill:#878787;-inkscape-stroke:none"
         d="m 78.182397,71.446052 c -0.363262,0.305272 -1.586201,-0.0281 -1.271882,0.586155 0.14481,0.282993 -0.3031,0.740715 -0.545723,0.946036 C 65.02692,82.572985 54.170736,92.600956 50.095703,105.70508 l 0.634766,0.19726 C 54.937059,92.375171 67.323927,83.227857 79.319198,73.147485 Z"
         id="path2948"
         sodipodi:nodetypes="csscccc" />
    </g>
    <circle
       style="fill:#ff0000;stroke:none;stroke-width:0.565;stroke-linecap:round;stroke-linejoin:round;stroke-miterlimit:4;stroke-dasharray:none"
       id="path850"
       cx="-33.781189"
       cy="-89.653015"
       r="11.478019"
       transform="rotate(131.34018)" />
    <circle
       style="fill:#008551;fill-opacity:1;stroke:none;stroke-width:2;stroke-linecap:round;stroke-linejoin:round;stroke-miterlimit:4;stroke-dasharray:none;stroke-opacity:1"
       id="path852"
       cx="9.2846231"
       cy="-72.652122"
       r="24.819136"
       transform="rotate(131.34018)" />
    <circle
       style="fill:#008551;fill-opacity:1;stroke:none;stroke-width:2;stroke-linecap:round;stroke-linejoin:round;stroke-miterlimit:4;stroke-dasharray:none;stroke-opacity:1"
       id="path854"
       cx="30.571825"
       cy="-140.27196"
       r="4.5913949"
       transform="rotate(131.34018)" />
    <circle
       style="fill:#008551;fill-opacity:1;stroke:none;stroke-width:0.564999;stroke-linecap:round;stroke-linejoin:round;stroke-miterlimit:4;stroke-dasharray:none"
       id="path958"
       cx="-1.5217806"
       cy="-134.74088"
       r="15.62574"
       transform="rotate(131.34018)" />
    <circle
       style="fill:#008551;fill-opacity:1;stroke:none;stroke-width:3.9953;stroke-linecap:round;stroke-linejoin:round;stroke-miterlimit:4;stroke-dasharray:none;stroke-opacity:1"
       id="path854-1"
       cx="46.104065"
       cy="-108.40352"
       r="9.1719952"
       transform="rotate(131.34018)" />
    <circle
       style="fill:#008551;fill-opacity:1;stroke:none;stroke-width:2.03125;stroke-linecap:round;stroke-linejoin:round;stroke-miterlimit:4;stroke-dasharray:none;stroke-opacity:1"
       id="path854-1-9"
       cx="24.93004"
       cy="-119.65324"
       r="4.6631384"
       transform="matrix(0.66052835,-0.75080111,-0.75080111,-0.66052835,0,0)" />
  </g>
</svg>
