<?xml version="1.0" encoding="UTF-8" standalone="no"?>
<!-- Created with Inkscape (http://www.inkscape.org/) -->

<svg
   width="166.6875mm"
   height="148.16667mm"
   viewBox="0 0 166.6875 148.16667"
   version="1.1"
   id="svg5"
   inkscape:version="1.1 (c68e22c387, 2021-05-23)"
   sodipodi:docname="untis.svg"
   xmlns:inkscape="http://www.inkscape.org/namespaces/inkscape"
   xmlns:sodipodi="http://sodipodi.sourceforge.net/DTD/sodipodi-0.dtd"
   xmlns="http://www.w3.org/2000/svg"
   xmlns:svg="http://www.w3.org/2000/svg">
  <sodipodi:namedview
     id="namedview7"
     pagecolor="#ffffff"
     bordercolor="#666666"
     borderopacity="1.0"
     inkscape:pageshadow="2"
     inkscape:pageopacity="0.0"
     inkscape:pagecheckerboard="0"
     inkscape:document-units="mm"
     showgrid="false"
     fit-margin-top="0"
     fit-margin-left="0"
     fit-margin-right="0"
     fit-margin-bottom="0"
     inkscape:zoom="0.62983305"
     inkscape:cx="360.41297"
     inkscape:cy="518.39134"
     inkscape:window-width="1851"
     inkscape:window-height="1020"
     inkscape:window-x="69"
     inkscape:window-y="28"
     inkscape:window-maximized="1"
     inkscape:current-layer="layer1" />
  <defs
     id="defs2" />
  <g
     inkscape:label="Ebene 1"
     inkscape:groupmode="layer"
     id="layer1"
     transform="translate(-9.7587118,-11.468877)">
    <rect
       style="fill:#fefefe;fill-opacity:1;stroke:none;stroke-width:0.564999"
       id="rect1248"
       width="166.6875"
       height="148.16667"
       x="9.7587118"
       y="11.468877" />
    <g
       id="g1108"
       transform="translate(-21.276847,-3.8959173)">
      <path
         style="fill:#f6da9f;stroke-width:0.264583"
         d="M 31.035559,89.448129 V 15.364794 h 83.343751 83.34375 V 89.448129 163.53146 H 114.37931 31.035559 Z M 123.34566,160.7481 c 4.19718,-0.56722 5.40489,-0.79624 9.00865,-1.7083 24.9894,-6.32442 45.38902,-26.71793 51.62296,-51.60748 3.01307,-12.029931 3.05067,-23.646404 0.11518,-35.578983 C 181.06578,59.550193 174.2819,47.675764 165.04666,38.515836 153.46452,27.028147 139.38301,20.221161 122.58139,17.98817 118.8977,17.498594 109.1233,17.564827 105.38348,18.104705 88.4247,20.552861 74.718574,27.368121 63.123585,39.118096 c -2.876409,2.914857 -4.186957,4.45769 -7.104207,8.363369 -3.532031,4.728766 -7.36396,12.060002 -9.488911,18.154163 -5.959754,17.092013 -5.313244,35.416912 1.848322,52.389522 5.750137,13.62758 16.672103,25.80973 30.414062,33.92327 8.204107,4.84388 19.811465,8.4156 29.897919,9.19995 3.71608,0.28897 11.03376,0.0891 14.65489,-0.40027 z m -10.25474,-3.5397 c -0.33208,-0.21037 -0.40355,-2.50501 -0.30367,-9.75037 0.003,-0.2302 0.52734,-0.33073 1.72435,-0.33073 h 1.71979 v 4.99877 c 0,5.53967 0.0734,5.32378 -1.80758,5.31593 -0.53379,-0.002 -1.1336,-0.10735 -1.33289,-0.2336 z M 66.411131,137.3927 c -0.538856,-0.55183 -0.979739,-1.1191 -0.979739,-1.26058 0,-0.14149 1.545061,-1.79888 3.433469,-3.6831 l 3.433466,-3.42584 0.717373,0.53559 c 0.394555,0.29458 0.95839,0.85841 1.252966,1.25297 l 0.535596,0.71737 -3.425846,3.43347 c -1.884217,1.88841 -3.55223,3.43347 -3.706696,3.43347 -0.154469,0 -0.721733,-0.45151 -1.260589,-1.00335 z m 91.184999,-2.22424 c -2.20711,-2.182 -3.26474,-3.41596 -3.26474,-3.80905 0,-0.5263 1.57518,-2.22378 2.06355,-2.22378 0.30227,0 6.93229,6.72116 6.93229,7.02759 0,0.32744 -1.90854,2.23283 -2.23652,2.23283 -0.12641,0 -1.69897,-1.45242 -3.49458,-3.22759 z M 109.9948,94.131336 c -0.32436,-0.181562 -0.37799,-4.766786 -0.37799,-32.315164 V 29.712594 l 1.04678,-1.551504 c 1.51298,-2.242485 3.41713,-4.594212 3.71987,-4.594212 0.28468,0 2.19393,2.3805 3.76616,4.695751 l 0.99219,1.461087 v 24.041373 c 0,13.222756 0.0889,24.041373 0.19766,24.041373 0.10872,0 7.70479,-7.506428 16.88017,-16.68095 l 16.6825,-16.680953 2.63286,-0.376283 c 1.44807,-0.206957 3.07934,-0.38006 3.62504,-0.384675 0.94578,-0.008 0.99194,0.03183 0.98694,0.851506 -0.005,0.806821 -0.32078,3.396343 -0.66967,5.490104 -0.13287,0.797325 -2.47232,3.246909 -16.83107,17.623346 -14.86776,14.886086 -16.60939,16.715341 -16.0557,16.863577 0.34158,0.09145 11.31001,0.167896 24.37428,0.169883 l 23.75322,0.0036 2.90355,2.145331 c 1.81158,1.338512 2.90355,2.323158 2.90355,2.618172 0,0.293348 -1.08862,1.285263 -2.86778,2.613014 l -2.86778,2.14017 -32.2084,0.0703 c -17.71462,0.03867 -32.37849,-0.02492 -32.58638,-0.141282 z M 46.704634,90.988454 c -0.445462,-0.445463 -0.414547,-2.722671 0.04211,-3.10166 0.252132,-0.209251 1.830469,-0.280787 5.09323,-0.230836 l 4.727879,0.07238 v 1.719792 1.719792 l -4.769988,0.07189 c -3.486814,0.05255 -4.856942,-0.01508 -5.093229,-0.251354 z M 68.801012,46.383513 c -1.85329,-1.857415 -3.36962,-3.500128 -3.36962,-3.650472 0,-0.343067 1.916086,-2.23283 2.263931,-2.23283 0.141486,0 1.786094,1.53225 3.654685,3.404997 3.017366,3.024079 3.365394,3.464873 3.111,3.940212 -0.298797,0.558311 -1.792584,1.915208 -2.10842,1.915208 -0.100076,0 -1.698284,-1.519703 -3.551576,-3.377115 z"
         id="path1126" />
      <path
         style="fill:#f2b457;stroke-width:0.264583"
         d="M 31.035559,89.448129 V 15.364794 h 83.343751 83.34375 V 89.448129 163.53146 H 114.37931 31.035559 Z m 91.150581,71.830541 c 8.75543,-1.02049 15.93695,-3.0722 23.62347,-6.74907 10.97183,-5.24842 21.0628,-13.92354 28.15355,-24.20335 17.14465,-24.85545 16.83918,-58.3293 -0.75607,-82.851871 -9.32951,-13.002582 -22.83602,-22.692848 -37.93974,-27.219935 -7.69987,-2.307907 -14.6367,-3.198383 -23.00471,-2.953099 -8.23575,0.241407 -14.450849,1.377765 -21.960414,4.015206 -17.963679,6.309038 -32.99062,19.837798 -41.189145,37.082599 -4.454949,9.370552 -6.615417,18.573107 -6.885564,29.329187 -0.345711,13.764733 2.818052,26.182353 9.707122,38.100003 7.640553,13.21766 20.397282,24.43697 34.398837,30.25315 2.211318,0.91856 7.930038,2.86341 9.789583,3.32928 3.346154,0.83831 8.784081,1.75541 12.435421,2.09723 2.75682,0.25808 10.57456,0.12652 13.62766,-0.22933 z m -8.79902,-4.27243 c -0.24731,-0.0998 -0.33073,-1.32911 -0.33073,-4.87391 v -4.74045 h 1.45521 1.45521 v 4.73419 c 0,4.07289 -0.0585,4.75663 -0.41852,4.89479 -0.4864,0.18666 -1.6824,0.17856 -2.16117,-0.0146 z m -46.902456,-19.80604 -0.902618,-0.93127 3.294139,-3.30206 c 1.81178,-1.81614 3.422481,-3.30207 3.579339,-3.30207 0.418981,0 1.707118,1.41907 1.707118,1.88063 0,0.42675 -6.098513,6.58603 -6.521053,6.58603 -0.139869,0 -0.660487,-0.41906 -1.156925,-0.93126 z m 91.332896,-2.32933 c -1.77187,-1.77614 -3.22158,-3.35309 -3.22158,-3.50434 0,-0.15126 0.41399,-0.67627 0.91999,-1.16671 l 0.92,-0.8917 3.07048,3.02261 c 1.68876,1.66244 3.18996,3.2422 3.336,3.51059 0.20664,0.37976 0.12848,0.63453 -0.35245,1.14878 -1.24225,1.32829 -1.22571,1.33579 -4.67244,-2.11923 z M 110.15311,93.557772 c -0.23929,-0.288332 -0.30211,-1.535274 -0.23341,-4.633357 0.0517,-2.331368 0.005,-4.238839 -0.10445,-4.238821 -0.10914,1.9e-5 -0.19844,-12.368898 -0.19844,-27.486483 V 29.712594 l 1.04678,-1.551504 c 1.51298,-2.242485 3.41713,-4.594212 3.71987,-4.594212 0.28468,0 2.19393,2.3805 3.76616,4.695751 l 0.99219,1.461087 V 54.22734 78.730967 l 16.99948,-16.994559 16.99948,-16.994555 3.1337,-0.429099 c 2.05431,-0.2813 3.22334,-0.33946 3.39394,-0.168854 0.27938,0.279376 -0.44083,5.946158 -0.84815,6.673474 -0.12274,0.219154 -7.67185,7.839512 -16.7758,16.934127 -9.10396,9.094616 -16.55265,16.683038 -16.55265,16.863161 0,0.257413 5.25143,0.342511 24.5401,0.397669 l 24.54011,0.07017 2.71198,2.06397 c 1.49159,1.135184 2.71198,2.172628 2.71198,2.305436 0,0.132805 -1.22039,1.168551 -2.71198,2.301655 l -2.71198,2.060189 -32.04575,0.06926 c -28.13377,0.0608 -32.08572,0.02109 -32.37316,-0.325242 z M 46.80887,90.623096 c -0.288848,-0.752726 -0.173402,-2.159786 0.202823,-2.472026 0.251316,-0.208574 1.761786,-0.280781 4.828646,-0.230833 l 4.462928,0.07268 v 1.455208 1.455208 l -4.665751,0.07213 c -4.08085,0.06308 -4.686173,0.01892 -4.828646,-0.352367 z m 21.976108,-44.54169 c -1.69895,-1.732531 -3.089002,-3.256989 -3.089002,-3.387682 0,-0.130694 0.403979,-0.629174 0.897728,-1.107738 0.724451,-0.702164 0.992569,-0.818515 1.389063,-0.602791 0.270235,0.147028 1.851506,1.649037 3.513942,3.337795 l 3.022608,3.070474 -0.891699,0.919999 c -0.490435,0.506 -1.085633,0.919998 -1.322666,0.919998 -0.237034,0 -1.821021,-1.417526 -3.519974,-3.150055 z"
         id="path1124" />
      <path
         style="fill:#fcd11b;stroke-width:0.264583"
         d="M 31.035559,89.448129 V 15.364794 h 83.343751 83.34375 V 89.448129 163.53146 H 114.37931 31.035559 Z m 91.148961,72.220211 c 11.62251,-1.18835 22.97995,-5.36979 33.11633,-12.19234 16.98548,-11.43253 28.62433,-30.49555 31.16919,-51.051352 0.54495,-4.401741 0.53854,-13.705163 -0.0124,-18.014225 -3.1441,-24.590813 -18.47366,-45.873104 -40.64397,-56.426732 -6.27828,-2.988618 -12.51315,-4.96862 -19.79268,-6.285539 -2.97271,-0.537783 -4.15046,-0.598793 -11.64167,-0.603063 -7.49129,-0.0043 -8.66359,0.05505 -11.58885,0.586452 -8.392556,1.524576 -14.961729,3.721464 -21.880943,7.317509 -14.547712,7.56072 -25.775538,19.401453 -32.762703,34.551162 -2.449532,5.311124 -4.365425,11.702288 -5.512374,18.388542 -0.693798,4.044564 -0.971481,14.856095 -0.49534,19.285924 1.566262,14.571882 7.694864,28.702022 17.154745,39.552062 3.176505,3.6433 4.259707,4.7195 7.725047,7.67506 5.167977,4.40774 8.18261,6.46896 13.626042,9.31666 8.682,4.54194 17.740778,7.18457 27.913546,8.14294 2.72841,0.25705 10.00422,0.12726 13.62604,-0.24306 z m -8.7974,-4.6621 c -0.24731,-0.0998 -0.33073,-1.32911 -0.33073,-4.87391 v -4.74045 h 1.45521 1.45521 v 4.73419 c 0,4.07289 -0.0585,4.75663 -0.41852,4.89479 -0.4864,0.18666 -1.6824,0.17856 -2.16117,-0.0146 z m -46.902456,-19.80604 -0.902618,-0.93127 3.294139,-3.30206 c 1.81178,-1.81614 3.422481,-3.30207 3.579339,-3.30207 0.418981,0 1.707118,1.41907 1.707118,1.88063 0,0.42675 -6.098513,6.58603 -6.521053,6.58603 -0.139869,0 -0.660487,-0.41906 -1.156925,-0.93126 z m 91.332896,-2.32933 c -1.77187,-1.77614 -3.22158,-3.35309 -3.22158,-3.50434 0,-0.15126 0.41399,-0.67627 0.91999,-1.16671 l 0.92,-0.8917 3.07048,3.02261 c 1.68876,1.66244 3.18996,3.2422 3.336,3.51059 0.20664,0.37976 0.12848,0.63453 -0.35245,1.14878 -1.24225,1.32829 -1.22571,1.33579 -4.67244,-2.11923 z m -47.3484,-41.409776 c -0.25481,-0.163508 -0.32009,-1.158624 -0.26458,-4.033243 l 0.0737,-3.81618 1.68516,-0.185854 c 2.26095,-0.249357 2.37164,-0.475605 0.23266,-0.475605 -0.95824,0 -1.93058,-0.07227 -2.16077,-0.160599 -0.37791,-0.145018 -0.41851,-2.824589 -0.41851,-27.61881 V 29.712594 l 1.04678,-1.551504 c 1.51298,-2.242485 3.41713,-4.594212 3.71987,-4.594212 0.28468,0 2.19393,2.3805 3.76616,4.695751 l 0.99219,1.461087 v 24.50161 24.501611 l 16.99948,-16.960268 16.99948,-16.960266 3.16149,-0.433581 c 1.73882,-0.238471 3.23987,-0.344162 3.33567,-0.234868 0.0958,0.109294 -0.007,1.627466 -0.22738,3.373716 l -0.40155,3.175 -17.15547,17.173279 c -9.43551,9.445305 -17.15547,17.214133 -17.15547,17.264063 0,0.04993 11.04764,0.09078 24.55031,0.09078 27.91288,0 24.81346,-0.271802 28.36636,2.487551 1.0914,0.847638 1.98437,1.634302 1.98437,1.748145 0,0.113842 -1.13109,1.082617 -2.51354,2.152832 l -2.51354,1.945847 -31.88229,0.06449 c -17.53526,0.03547 -32.03452,-0.03318 -32.22057,-0.152566 z M 46.80887,90.623096 c -0.288848,-0.752726 -0.173402,-2.159786 0.202823,-2.472026 0.251316,-0.208574 1.761786,-0.280781 4.828646,-0.230833 l 4.462928,0.07268 v 1.455208 1.455208 l -4.665751,0.07213 c -4.08085,0.06308 -4.686173,0.01892 -4.828646,-0.352367 z m 21.976108,-44.54169 c -1.69895,-1.732531 -3.089002,-3.256989 -3.089002,-3.387682 0,-0.130694 0.403979,-0.629174 0.897728,-1.107738 0.724451,-0.702164 0.992569,-0.818515 1.389063,-0.602791 0.270235,0.147028 1.851506,1.649037 3.513942,3.337795 l 3.022608,3.070474 -0.891699,0.919999 c -0.490435,0.506 -1.085633,0.919998 -1.322666,0.919998 -0.237034,0 -1.821021,-1.417526 -3.519974,-3.150055 z"
         id="path1122" />
      <path
         style="fill:#688aef;stroke-width:0.264583"
         d="M 31.035559,89.448129 V 15.364794 h 83.343751 83.34375 V 89.448129 163.53146 H 114.37931 31.035559 Z m 91.148961,72.219211 c 18.26576,-1.87458 35.69664,-11.1197 47.61737,-25.25567 9.09113,-10.78054 14.95417,-24.14251 16.66815,-37.987022 0.54495,-4.401741 0.53854,-13.705163 -0.0124,-18.014225 -3.1441,-24.590813 -18.47366,-45.873104 -40.64397,-56.426732 -6.27828,-2.988618 -12.51315,-4.96862 -19.79268,-6.285539 -2.97271,-0.537783 -4.15046,-0.598793 -11.64167,-0.603063 -7.49129,-0.0043 -8.66359,0.05505 -11.58885,0.586452 -8.392556,1.524576 -14.961729,3.721464 -21.880943,7.317509 -14.547712,7.56072 -25.775538,19.401453 -32.762703,34.551162 -2.449532,5.311124 -4.365425,11.702288 -5.512374,18.388542 -0.693798,4.044564 -0.971481,14.856095 -0.49534,19.285924 1.566262,14.571882 7.694864,28.702022 17.154745,39.552062 3.176505,3.6433 4.259707,4.7195 7.725047,7.67506 5.167977,4.40774 8.18261,6.46896 13.626042,9.31666 8.682,4.54194 17.740778,7.18457 27.913546,8.14294 2.73216,0.2574 10.01002,0.12704 13.62604,-0.24406 z m -8.7974,-4.6611 c -0.24731,-0.0998 -0.33073,-1.32911 -0.33073,-4.87391 v -4.74045 h 1.45521 1.45521 v 4.73419 c 0,4.07289 -0.0585,4.75663 -0.41852,4.89479 -0.4864,0.18666 -1.6824,0.17856 -2.16117,-0.0146 z m -46.902456,-19.80604 -0.902618,-0.93127 3.294139,-3.30206 c 1.81178,-1.81614 3.422481,-3.30207 3.579339,-3.30207 0.418981,0 1.707118,1.41907 1.707118,1.88063 0,0.42675 -6.098513,6.58603 -6.521053,6.58603 -0.139869,0 -0.660487,-0.41906 -1.156925,-0.93126 z m 91.332896,-2.32933 c -1.77187,-1.77614 -3.22158,-3.35309 -3.22158,-3.50434 0,-0.15126 0.41399,-0.67627 0.91999,-1.16671 l 0.92,-0.8917 3.07048,3.02261 c 1.68876,1.66244 3.18996,3.2422 3.336,3.51059 0.20664,0.37976 0.12848,0.63453 -0.35245,1.14878 -1.24225,1.32829 -1.22571,1.33579 -4.67244,-2.11923 z M 46.80887,90.623096 c -0.288848,-0.752726 -0.173402,-2.159786 0.202823,-2.472026 0.251316,-0.208574 1.761786,-0.280781 4.828646,-0.230833 l 4.462928,0.07268 v 1.455208 1.455208 l -4.665751,0.07213 c -4.08085,0.06308 -4.686173,0.01892 -4.828646,-0.352367 z m 66.11523,-5.594329 c -1.16417,-0.04374 -2.38456,-0.141113 -2.71198,-0.216376 l -0.59531,-0.136843 V 57.194071 29.712594 l 1.04678,-1.551504 c 1.51298,-2.242485 3.41713,-4.594212 3.71987,-4.594212 0.28468,0 2.19393,2.3805 3.76616,4.695751 l 0.99219,1.461087 v 24.50161 24.501611 l 16.99948,-16.960268 16.99948,-16.960266 3.16149,-0.433581 c 1.73882,-0.238471 3.23987,-0.344162 3.33567,-0.234868 0.0958,0.109294 -0.007,1.627466 -0.22855,3.373716 l -0.40271,3.175 -16.69128,16.739111 c -9.18021,9.206513 -17.06253,16.975341 -17.51627,17.264063 -0.74888,0.476525 -1.23702,0.520041 -5.29166,0.471707 -2.45668,-0.02929 -5.41919,-0.08904 -6.58336,-0.132784 z M 68.784978,46.081406 c -1.69895,-1.732531 -3.089002,-3.256989 -3.089002,-3.387682 0,-0.130694 0.403979,-0.629174 0.897728,-1.107738 0.724451,-0.702164 0.992569,-0.818515 1.389063,-0.602791 0.270235,0.147028 1.851506,1.649037 3.513942,3.337795 l 3.022608,3.070474 -0.891699,0.919999 c -0.490435,0.506 -1.085633,0.919998 -1.322666,0.919998 -0.237034,0 -1.821021,-1.417526 -3.519974,-3.150055 z"
         id="path1120" />
      <path
         style="fill:#fc9801;stroke-width:0.264583"
         d="M 31.035559,89.448129 V 15.364794 h 83.343751 83.34375 V 89.448129 163.53146 H 114.37931 31.035559 Z m 91.148961,72.219211 c 18.26576,-1.87458 35.69664,-11.1197 47.61737,-25.25567 9.09113,-10.78054 14.95417,-24.14251 16.66815,-37.987022 0.54495,-4.401741 0.53854,-13.705163 -0.0124,-18.014225 -3.1441,-24.590813 -18.47366,-45.873104 -40.64397,-56.426732 -6.27828,-2.988618 -12.51315,-4.96862 -19.79268,-6.285539 -2.97271,-0.537783 -4.15046,-0.598793 -11.64167,-0.603063 -7.49129,-0.0043 -8.66359,0.05505 -11.58885,0.586452 -8.392556,1.524576 -14.961729,3.721464 -21.880943,7.317509 -14.547712,7.56072 -25.775538,19.401453 -32.762703,34.551162 -2.449532,5.311124 -4.365425,11.702288 -5.512374,18.388542 -0.693798,4.044564 -0.971481,14.856095 -0.49534,19.285924 1.566262,14.571882 7.694864,28.702022 17.154745,39.552062 3.176505,3.6433 4.259707,4.7195 7.725047,7.67506 5.167977,4.40774 8.18261,6.46896 13.626042,9.31666 8.682,4.54194 17.740778,7.18457 27.913546,8.14294 2.73216,0.2574 10.01002,0.12704 13.62604,-0.24406 z m -9.06814,-9.43277 0.0723,-4.7104 h 1.32292 1.32292 v 4.63021 4.63021 l -1.39523,0.0802 -1.39522,0.0802 z M 66.632725,137.14198 c -0.369692,-0.3987 -0.672166,-0.84704 -0.672166,-0.99632 0,-0.35759 6.144112,-6.48086 6.502911,-6.48086 0.337359,0 1.699172,1.38675 1.699172,1.73029 0,0.37039 -6.159669,6.47179 -6.533594,6.47179 -0.178287,0 -0.626631,-0.3262 -0.996323,-0.7249 z m 91.067965,-2.38793 c -1.70759,-1.71205 -3.10471,-3.23759 -3.10471,-3.39008 0,-0.34172 1.3888,-1.69917 1.7384,-1.69917 0.34591,0 6.46368,6.1549 6.46368,6.50291 0,0.34171 -1.3888,1.69917 -1.73841,1.69917 -0.13983,0 -1.65136,-1.40077 -3.35896,-3.11283 z M 47.09298,90.865272 C 46.992649,90.764942 46.910559,90.11281 46.910559,89.416096 V 88.14934 l 4.524404,-0.07821 c 2.488422,-0.04301 4.638816,-0.0072 4.778653,0.07968 0.139837,0.08684 0.217214,0.741682 0.17195,1.455208 l -0.0823,1.297318 -4.513932,0.07218 c -2.482663,0.0397 -4.596023,-0.0099 -4.696354,-0.110244 z m 66.228,-5.901235 c -1.17695,-0.109104 -1.51101,-0.208587 -1.05834,-0.315177 0.43533,-0.102505 0.18659,-0.168069 -0.7276,-0.191783 l -1.38906,-0.03603 V 57.075357 29.729671 l 1.99063,-2.750668 c 1.09484,-1.512867 2.07711,-2.77689 2.18281,-2.80894 0.1057,-0.03205 1.11492,1.199852 2.2427,2.73756 l 2.05052,2.795832 v 24.48792 24.487918 l -2.83882,2.937021 -2.83881,2.937023 3.16954,-3.041909 c 1.74325,-1.673048 10.78955,-10.61611 20.10288,-19.873466 l 16.93334,-16.831559 3.16149,-0.433581 c 1.73882,-0.238471 3.23987,-0.344162 3.33567,-0.234868 0.0958,0.109294 -0.007,1.627466 -0.22855,3.373716 l -0.40271,3.175 -16.69128,16.739111 c -9.18021,9.206513 -17.06253,16.975341 -17.51627,17.264063 -0.74749,0.475644 -1.24452,0.520663 -5.29166,0.479284 -2.45668,-0.02512 -5.2406,-0.117408 -6.18648,-0.205091 z M 69.014525,46.067751 c -3.026881,-3.034789 -3.141429,-3.189941 -2.81101,-3.807336 0.18945,-0.353994 0.634087,-0.79863 0.988081,-0.988081 0.617395,-0.330421 0.772547,-0.21587 3.807336,2.81101 1.74004,1.735508 3.16371,3.283884 3.16371,3.440835 0,0.347758 -1.384308,1.707282 -1.738405,1.707282 -0.139832,0 -1.674204,-1.42367 -3.409712,-3.16371 z"
         id="path1118" />
      <path
         style="fill:#e05357;stroke-width:0.264583"
         d="m 113.11638,152.23457 0.0723,-4.7104 h 1.32292 1.32292 v 4.63021 4.63021 l -1.39523,0.0802 -1.39522,0.0802 z M 66.632725,137.14198 c -0.369692,-0.3987 -0.672166,-0.84704 -0.672166,-0.99632 0,-0.35759 6.144112,-6.48086 6.502911,-6.48086 0.337359,0 1.699172,1.38675 1.699172,1.73029 0,0.37039 -6.159669,6.47179 -6.533594,6.47179 -0.178287,0 -0.626631,-0.3262 -0.996323,-0.7249 z m 91.067965,-2.38793 c -1.70759,-1.71205 -3.10471,-3.23759 -3.10471,-3.39008 0,-0.34172 1.3888,-1.69917 1.7384,-1.69917 0.34591,0 6.46368,6.1549 6.46368,6.50291 0,0.34171 -1.3888,1.69917 -1.73841,1.69917 -0.13983,0 -1.65136,-1.40077 -3.35896,-3.11283 z M 47.09298,90.865272 C 46.992649,90.764942 46.910559,90.11281 46.910559,89.416096 V 88.14934 l 4.524404,-0.07821 c 2.488422,-0.04301 4.638816,-0.0072 4.778653,0.07968 0.139837,0.08684 0.217214,0.741682 0.17195,1.455208 l -0.0823,1.297318 -4.513932,0.07218 c -2.482663,0.0397 -4.596023,-0.0099 -4.696354,-0.110244 z m 65.16966,-6.157037 c 0.54583,-0.193458 0.41863,-0.239054 -0.7276,-0.260816 l -1.38906,-0.02637 V 57.075357 29.729671 l 1.99063,-2.750668 c 1.09484,-1.512867 2.07711,-2.77689 2.18281,-2.80894 0.1057,-0.03205 1.11492,1.199852 2.2427,2.73756 l 2.05052,2.795832 v 24.48792 24.487918 l -2.83882,2.937021 -2.83881,2.937023 3.16954,-3.041909 c 1.74325,-1.673048 10.78955,-10.61611 20.10288,-19.873466 l 16.93334,-16.831559 3.16149,-0.433581 c 1.73882,-0.238471 3.23987,-0.344162 3.33567,-0.234868 0.0958,0.109294 -0.007,1.627466 -0.22793,3.373716 l -0.40211,3.175 -16.97773,16.999479 -16.97773,16.99948 -4.87354,0.0019 c -2.68045,0.0011 -5.70698,0.05887 -6.72562,0.128524 -1.25903,0.08609 -1.64028,0.05157 -1.19063,-0.107799 z M 69.014525,46.067751 c -3.026881,-3.034789 -3.141429,-3.189941 -2.81101,-3.807336 0.18945,-0.353994 0.634087,-0.79863 0.988081,-0.988081 0.617395,-0.330421 0.772547,-0.21587 3.807336,2.81101 1.74004,1.735508 3.16371,3.283884 3.16371,3.440835 0,0.347758 -1.384308,1.707282 -1.738405,1.707282 -0.139832,0 -1.674204,-1.42367 -3.409712,-3.16371 z"
         id="path1116" />
      <path
         style="fill:#2b5dfb;stroke-width:0.264583"
         d="m 113.11638,152.23457 0.0723,-4.7104 h 1.32292 1.32292 v 4.63021 4.63021 l -1.39523,0.0802 -1.39522,0.0802 z M 66.632725,137.14198 c -0.369692,-0.3987 -0.672166,-0.84704 -0.672166,-0.99632 0,-0.35759 6.144112,-6.48086 6.502911,-6.48086 0.337359,0 1.699172,1.38675 1.699172,1.73029 0,0.37039 -6.159669,6.47179 -6.533594,6.47179 -0.178287,0 -0.626631,-0.3262 -0.996323,-0.7249 z m 91.067965,-2.38793 c -1.70759,-1.71205 -3.10471,-3.23759 -3.10471,-3.39008 0,-0.34172 1.3888,-1.69917 1.7384,-1.69917 0.34591,0 6.46368,6.1549 6.46368,6.50291 0,0.34171 -1.3888,1.69917 -1.73841,1.69917 -0.13983,0 -1.65136,-1.40077 -3.35896,-3.11283 z M 47.09298,90.865272 C 46.992649,90.764942 46.910559,90.11281 46.910559,89.416096 V 88.14934 l 4.524404,-0.07821 c 2.488422,-0.04301 4.638816,-0.0072 4.778653,0.07968 0.139837,0.08684 0.217214,0.741682 0.17195,1.455208 l -0.0823,1.297318 -4.513932,0.07218 c -2.482663,0.0397 -4.596023,-0.0099 -4.696354,-0.110244 z m 65.16966,-6.179643 c 0.52043,-0.166669 0.36529,-0.217459 -0.7276,-0.23821 l -1.38906,-0.02637 V 57.075357 29.729671 l 1.99063,-2.750668 c 1.09484,-1.512867 2.07711,-2.77689 2.18281,-2.80894 0.1057,-0.03205 1.11671,1.202283 2.24669,2.742963 l 2.05451,2.801236 -0.0701,24.682332 c -0.0466,16.398526 0.0187,24.632082 0.19444,24.532604 0.14552,-0.08235 -0.0241,0.167124 -0.37684,0.554392 -0.77925,0.8554 -1.09089,0.939622 -0.40263,0.10881 0.27125,-0.327422 -0.72233,0.593079 -2.20795,2.045557 -2.43746,2.383089 -3.37251,3.40509 -2.30424,2.518505 0.26024,-0.215984 0.39687,-0.230343 0.39687,-0.04171 0,0.397177 -0.89734,0.840888 -1.63625,0.809083 -0.60631,-0.0261 -0.6058,-0.02859 0.0487,-0.23821 z m 2.11667,-0.22075 c 0,-0.121412 0.56555,-0.763881 1.25677,-1.42771 1.1506,-1.104995 2.61938,-2.58961 3.21171,-3.246332 2.53472,-2.810267 34.22089,-34.321055 34.68985,-34.497849 0.82924,-0.312616 5.54562,-0.922851 5.72742,-0.741051 0.074,0.07397 -0.0563,1.42502 -0.2894,3.002325 l -0.4239,2.867824 -16.99299,17.088949 -16.993,17.088951 -5.09323,0.04282 c -2.80128,0.02355 -5.09323,-0.05651 -5.09323,-0.177927 z m 1.19062,-2.425083 c 1.01084,-1.018646 1.89743,-1.852084 1.97019,-1.852084 0.0728,0 -0.69476,0.833438 -1.7056,1.852084 -1.01084,1.018645 -1.89742,1.852083 -1.97019,1.852083 -0.0728,0 0.69476,-0.833438 1.7056,-1.852083 z M 69.014525,46.067751 c -3.026881,-3.034789 -3.141429,-3.189941 -2.81101,-3.807336 0.18945,-0.353994 0.634087,-0.79863 0.988081,-0.988081 0.617395,-0.330421 0.772547,-0.21587 3.807336,2.81101 1.74004,1.735508 3.16371,3.283884 3.16371,3.440835 0,0.347758 -1.384308,1.707282 -1.738405,1.707282 -0.139832,0 -1.674204,-1.42367 -3.409712,-3.16371 z"
         id="path1114" />
      <path
         style="fill:#e93d3d;stroke-width:0.264583"
         d="m 113.11638,152.23457 0.0723,-4.7104 h 1.32292 1.32292 v 4.63021 4.63021 l -1.39523,0.0802 -1.39522,0.0802 z M 66.632725,137.14198 c -0.369692,-0.3987 -0.672166,-0.84704 -0.672166,-0.99632 0,-0.35759 6.144112,-6.48086 6.502911,-6.48086 0.337359,0 1.699172,1.38675 1.699172,1.73029 0,0.37039 -6.159669,6.47179 -6.533594,6.47179 -0.178287,0 -0.626631,-0.3262 -0.996323,-0.7249 z m 91.067965,-2.38793 c -1.70759,-1.71205 -3.10471,-3.23759 -3.10471,-3.39008 0,-0.34172 1.3888,-1.69917 1.7384,-1.69917 0.34591,0 6.46368,6.1549 6.46368,6.50291 0,0.34171 -1.3888,1.69917 -1.73841,1.69917 -0.13983,0 -1.65136,-1.40077 -3.35896,-3.11283 z M 47.09298,90.865272 C 46.992649,90.764942 46.910559,90.11281 46.910559,89.416096 V 88.14934 l 4.524404,-0.07821 c 2.488422,-0.04301 4.638816,-0.0072 4.778653,0.07968 0.139837,0.08684 0.217214,0.741682 0.17195,1.455208 l -0.0823,1.297318 -4.513932,0.07218 c -2.482663,0.0397 -4.596023,-0.0099 -4.696354,-0.110244 z m 65.28893,-6.193711 c 0.43704,-0.130522 2.06518,-1.489091 3.69848,-3.086111 l 2.91775,-2.852946 -2.77244,2.910366 c -3.25773,3.419814 -3.11833,3.304419 -3.96306,3.280548 -0.62545,-0.01767 -0.61896,-0.03138 0.11927,-0.251857 z m 1.9974,-0.206682 c 0,-0.121412 0.56555,-0.763881 1.25677,-1.42771 1.1506,-1.104995 2.61938,-2.58961 3.21171,-3.246332 2.53472,-2.810267 34.22089,-34.321055 34.68985,-34.497849 0.82924,-0.312616 5.54562,-0.922851 5.72742,-0.741051 0.074,0.07397 -0.0563,1.42502 -0.2894,3.002325 l -0.4239,2.867824 -16.99299,17.088949 -16.993,17.088951 -5.09323,0.04282 c -2.80128,0.02355 -5.09323,-0.05651 -5.09323,-0.177927 z M 69.014525,46.067751 c -3.026881,-3.034789 -3.141429,-3.189941 -2.81101,-3.807336 0.18945,-0.353994 0.634087,-0.79863 0.988081,-0.988081 0.617395,-0.330421 0.772547,-0.21587 3.807336,2.81101 1.74004,1.735508 3.16371,3.283884 3.16371,3.440835 0,0.347758 -1.384308,1.707282 -1.738405,1.707282 -0.139832,0 -1.674204,-1.42367 -3.409712,-3.16371 z"
         id="path1112" />
      <path
         style="fill:#5a5a5a;stroke-width:0.264583"
         d="m 113.11638,152.23457 0.0723,-4.7104 h 1.32292 1.32292 v 4.63021 4.63021 l -1.39523,0.0802 -1.39522,0.0802 z M 66.632725,137.14198 c -0.369692,-0.3987 -0.672166,-0.84704 -0.672166,-0.99632 0,-0.35759 6.144112,-6.48086 6.502911,-6.48086 0.337359,0 1.699172,1.38675 1.699172,1.73029 0,0.37039 -6.159669,6.47179 -6.533594,6.47179 -0.178287,0 -0.626631,-0.3262 -0.996323,-0.7249 z m 91.067965,-2.38793 c -1.70759,-1.71205 -3.10471,-3.23759 -3.10471,-3.39008 0,-0.34172 1.3888,-1.69917 1.7384,-1.69917 0.34591,0 6.46368,6.1549 6.46368,6.50291 0,0.34171 -1.3888,1.69917 -1.73841,1.69917 -0.13983,0 -1.65136,-1.40077 -3.35896,-3.11283 z M 47.09298,90.865272 C 46.992649,90.764942 46.910559,90.11281 46.910559,89.416096 V 88.14934 l 4.524404,-0.07821 c 2.488422,-0.04301 4.638816,-0.0072 4.778653,0.07968 0.139837,0.08684 0.217214,0.741682 0.17195,1.455208 l -0.0823,1.297318 -4.513932,0.07218 c -2.482663,0.0397 -4.596023,-0.0099 -4.696354,-0.110244 z m 65.28893,-6.193711 c 0.43704,-0.130522 2.06518,-1.489091 3.69848,-3.086111 l 2.91775,-2.852946 -2.77244,2.910366 c -3.25773,3.419814 -3.11833,3.304419 -3.96306,3.280548 -0.62545,-0.01767 -0.61896,-0.03138 0.11927,-0.251857 z M 69.014525,46.067751 c -3.026881,-3.034789 -3.141429,-3.189941 -2.81101,-3.807336 0.18945,-0.353994 0.634087,-0.79863 0.988081,-0.988081 0.617395,-0.330421 0.772547,-0.21587 3.807336,2.81101 1.74004,1.735508 3.16371,3.283884 3.16371,3.440835 0,0.347758 -1.384308,1.707282 -1.738405,1.707282 -0.139832,0 -1.674204,-1.42367 -3.409712,-3.16371 z"
         id="path1110" />
    </g>
  </g>
</svg>
