<?xml version="1.0" encoding="UTF-8" standalone="no"?>
<!-- Generator: Adobe Illustrator 18.0.0, SVG Export Plug-In . SVG Version: 6.00 Build 0)  -->

<svg
   xmlns:dc="http://purl.org/dc/elements/1.1/"
   xmlns:cc="http://creativecommons.org/ns#"
   xmlns:rdf="http://www.w3.org/1999/02/22-rdf-syntax-ns#"
   xmlns:svg="http://www.w3.org/2000/svg"
   xmlns="http://www.w3.org/2000/svg"
   xmlns:sodipodi="http://sodipodi.sourceforge.net/DTD/sodipodi-0.dtd"
   xmlns:inkscape="http://www.inkscape.org/namespaces/inkscape"
   version="1.1"
   id="Capa_1"
   x="0px"
   y="0px"
   viewBox="0 0 429.98 429.98"
   style="enable-background:new 0 0 429.98 429.98;"
   xml:space="preserve"
   sodipodi:docname="whiteboard.svg"
   inkscape:version="0.92.3 (2405546, 2018-03-11)"><metadata
   id="metadata51"><rdf:RDF><cc:Work
       rdf:about=""><dc:format>image/svg+xml</dc:format><dc:type
         rdf:resource="http://purl.org/dc/dcmitype/StillImage" /></cc:Work></rdf:RDF></metadata><defs
   id="defs49" /><sodipodi:namedview
   pagecolor="#ffffff"
   bordercolor="#666666"
   borderopacity="1"
   objecttolerance="10"
   gridtolerance="10"
   guidetolerance="10"
   inkscape:pageopacity="0"
   inkscape:pageshadow="2"
   inkscape:window-width="1724"
   inkscape:window-height="865"
   id="namedview47"
   showgrid="false"
   inkscape:zoom="0.54886272"
   inkscape:cx="94.992755"
   inkscape:cy="210.81851"
   inkscape:window-x="67"
   inkscape:window-y="48"
   inkscape:window-maximized="0"
   inkscape:current-layer="g14" />
<g
   id="g14">
	<path
   d="M424.98,1.501H5c-2.762,0-5,2.239-5,5v298.288c0,2.761,2.238,5,5,5h159.239l-25.187,112.6   c-0.331,1.481,0.028,3.033,0.978,4.217s2.385,1.874,3.902,1.874h26.55c2.341,0,4.368-1.624,4.88-3.909l12.401-55.439h54.457   l12.401,55.439c0.512,2.285,2.539,3.909,4.88,3.909h26.549c1.518,0,2.953-0.689,3.902-1.874s1.309-2.736,0.978-4.217l-25.186-112.6   H424.98c2.762,0,5-2.239,5-5V6.501C429.98,3.74,427.742,1.501,424.98,1.501z M166.477,418.48h-16.303l24.313-108.691h16.302   L166.477,418.48z M228.945,309.789l6.496,29.04h-40.9l6.496-29.04H228.945z M189.999,359.132l2.304-10.303h45.374l2.304,10.303   H189.999z M279.806,418.48h-16.302l-24.312-108.691h16.302L279.806,418.48z M419.98,299.789H10V11.501h409.98V299.789z"
   id="path2" />
	<path
   d="M32.071,282.718h365.838c2.762,0,5-2.239,5-5V33.572c0-2.761-2.238-5-5-5H32.071c-2.762,0-5,2.239-5,5v244.146   C27.071,280.479,29.31,282.718,32.071,282.718z M37.071,38.572h355.838v234.146H37.071V38.572z"
   id="path4" />
	<path
   d="M217.335,208.277c55.285,0,100.263-55.838,100.263-124.472c0-2.761-2.238-5-5-5s-5,2.239-5,5   c0,63.12-40.491,114.472-90.263,114.472s-90.264-51.352-90.264-114.472c0-2.761-2.238-5-5-5s-5,2.239-5,5   C117.071,152.439,162.05,208.277,217.335,208.277z"
   id="path6" />
	<path
   d="M360.184,227.226l-22.087-14.709c-2.299-1.532-5.403-0.908-6.933,1.39c-1.531,2.298-0.909,5.402,1.39,6.933l8.33,5.548   H89.586V76.126l5.549,8.331c0.963,1.447,2.549,2.229,4.166,2.229c0.952,0,1.915-0.271,2.767-0.839   c2.299-1.531,2.921-4.635,1.39-6.933l-14.71-22.086c-0.927-1.392-2.488-2.229-4.161-2.229s-3.234,0.836-4.161,2.229L65.716,78.913   c-1.531,2.298-0.909,5.402,1.39,6.933c2.297,1.53,5.402,0.907,6.933-1.39l5.548-8.33v150.262H59.599c-2.762,0-5,2.239-5,5   s2.238,5,5,5h19.987v18.426c0,2.761,2.238,5,5,5s5-2.239,5-5v-18.426h251.298l-8.331,5.548c-2.299,1.531-2.921,4.635-1.39,6.933   c0.963,1.447,2.549,2.229,4.166,2.229c0.952,0,1.915-0.271,2.767-0.839l22.087-14.71c1.393-0.927,2.229-2.489,2.229-4.162   C362.412,229.715,361.576,228.154,360.184,227.226z"
   id="path8" />
	<path
   d="M383.041,44.998h-59.997c-2.762,0-5,2.239-5,5s2.238,5,5,5h59.997c2.762,0,5-2.239,5-5S385.803,44.998,383.041,44.998z"
   id="path10" />
	<path
   d="M383.041,59.998h-35.998c-2.762,0-5,2.239-5,5s2.238,5,5,5h35.998c2.762,0,5-2.239,5-5S385.803,59.998,383.041,59.998z"
   id="path12" />
<path
   style="opacity:1;fill:#ffffff;fill-opacity:1;stroke:none;stroke-width:2.63393593;stroke-linecap:round;stroke-linejoin:round;stroke-miterlimit:4;stroke-dasharray:none;stroke-dashoffset:0;stroke-opacity:1"
   d="m 181.39062,308.72406 c -2.82977,0.38469 -8.17391,-0.9471 -8.0013,3.54065 -8.06886,35.24487 -16.31409,70.49823 -23.64795,105.88127 3.70309,2.45343 9.21892,0.95169 13.55969,1.22321 4.77095,0.90916 4.4401,-4.59028 5.32113,-7.73248 7.657,-33.85703 15.61617,-67.6891 22.65393,-101.65829 -2.29495,-2.13167 -6.98807,-0.83546 -9.8855,-1.25436 z"
   id="path858"
   inkscape:connector-curvature="0" /><path
   style="opacity:1;fill:#ffffff;fill-opacity:1;stroke:none;stroke-width:2.63393593;stroke-linecap:round;stroke-linejoin:round;stroke-miterlimit:4;stroke-dasharray:none;stroke-dashoffset:0;stroke-opacity:1"
   d="m 242.796,308.81124 c -3.36841,-0.7401 -4.85073,2.50915 -3.18417,5.24765 7.60767,34.684 14.90842,69.48441 23.19892,103.98924 3.71311,2.98097 9.48753,0.75044 13.89558,1.42193 4.1018,1.11068 4.34875,-2.35448 2.88628,-5.46083 -7.74709,-34.76224 -15.54183,-69.51399 -23.32059,-104.26922 -3.88119,-1.44912 -9.17238,-0.58583 -13.47602,-0.92877 z"
   id="path860"
   inkscape:connector-curvature="0" /><path
   style="opacity:1;fill:#ffffff;fill-opacity:1;stroke:none;stroke-width:2.63393593;stroke-linecap:round;stroke-linejoin:round;stroke-miterlimit:4;stroke-dasharray:none;stroke-dashoffset:0;stroke-opacity:1"
   d="m 208.87465,347.87817 c -5.64756,0.6041 -12.07294,-0.98593 -17.31919,1.4145 -0.85804,3.45852 -2.4747,7.84638 -1.21167,11.0171 16.5465,-0.36944 33.25598,0.79946 49.71217,-0.87895 1.0597,-3.37771 -1.45837,-7.4295 -1.71164,-10.97973 -8.55405,-1.37538 -18.00196,-0.20682 -26.90221,-0.57807 -0.85582,0.002 -1.71164,0.003 -2.56746,0.005 z"
   id="path862"
   inkscape:connector-curvature="0" /><path
   style="opacity:1;fill:#ffffff;fill-opacity:1;stroke:none;stroke-width:2.63393593;stroke-linecap:round;stroke-linejoin:round;stroke-miterlimit:4;stroke-dasharray:none;stroke-dashoffset:0;stroke-opacity:1"
   d="m 9.4210326,11.561294 c 0,95.955986 0,191.911986 0,287.867976 5.9859374,1.80426 13.3740664,0.22334 19.8866464,0.75618 130.269371,0 260.538731,0 390.808101,0 1.80427,-5.98594 0.22335,-13.37406 0.75618,-19.88665 0,-89.57916 0,-179.15834 0,-268.737506 -5.98594,-1.8042666 -13.37406,-0.223343 -19.88664,-0.75618 -130.26937,0 -260.53874,0 -390.808107,0 L 9.5330563,11.44927 Z M 270.74442,29.634888 c 42.72238,0.294344 85.52702,-0.527687 128.19832,0.891402 4.00901,-0.235782 1.78115,5.586462 2.60878,7.922531 1.00832,80.444149 0.2687,160.903499 0.49956,241.353569 -5.21176,3.43162 -12.2864,1.13479 -18.30124,2.07498 -107.80127,0.67597 -215.60922,0.45106 -323.412047,0.15827 -10.09659,-0.34002 -20.58012,0.31953 -30.410935,-1.05361 -3.80556,-3.56293 -0.65772,-10.74587 -1.684948,-15.75523 0.248332,-76.84198 -0.571434,-153.69657 0.640124,-230.530288 -0.196238,-2.590254 0.0175,-5.272424 3.402326,-4.330354 79.47364,-1.243658 158.97778,-0.52703 238.46006,-0.73127 z"
   id="path864"
   inkscape:connector-curvature="0" /><path
   style="opacity:1;fill:#ffffff;fill-opacity:1;stroke:none;stroke-width:2.63393593;stroke-linecap:round;stroke-linejoin:round;stroke-miterlimit:4;stroke-dasharray:none;stroke-dashoffset:0;stroke-opacity:1"
   d="m 36.750271,38.890532 c 0,78.040158 0,156.080308 0,234.120468 5.985937,1.80427 13.374066,0.22335 19.886646,0.75619 112.049873,0 224.099753,0 336.149623,0 1.80427,-5.98595 0.22335,-13.37407 0.75619,-19.88665 0,-71.66334 0,-143.32667 0,-214.990008 -5.98594,-1.804267 -13.37407,-0.223343 -19.88665,-0.75618 -112.04988,0 -224.09975,0 -336.149629,0 l -0.644157,0.644156 z m 348.252069,7.133002 c 2.58533,2.137679 3.24112,6.527765 -0.47862,7.736168 -18.09771,1.570325 -36.47762,0.489682 -54.68873,0.658321 -3.91277,-0.003 -11.52487,0.587299 -10.80358,-5.517446 2.09863,-4.447155 8.51709,-1.883977 12.41012,-2.767768 17.85224,-0.203865 35.70768,-0.06978 53.56081,-0.109275 z M 84.966092,55.439311 c 4.690473,2.646344 6.945729,8.653287 10.339206,12.798126 2.500307,4.899138 7.425462,9.377105 7.800222,14.972365 -1.7153,4.244446 -7.403557,1.955308 -8.702301,-1.494567 -1.182212,-1.274472 -3.601281,-6.166703 -5.065517,-3.316517 -1.159767,49.370932 -0.461904,98.770202 -0.661879,148.152582 5.985937,1.80261 13.374067,0.21812 19.886647,0.74858 77.28101,-0.0303 154.56203,-0.0618 231.84304,-0.0938 1.5453,-2.38047 -4.25447,-3.99015 -5.71316,-6.10993 -3.24505,-1.73792 -5.09008,-6.76075 -0.62096,-8.26461 5.72594,0.85066 10.40425,5.58728 15.47135,8.28744 3.92149,3.13544 9.32098,5.22835 12.0447,9.46411 -0.8754,5.17409 -7.24987,7.16162 -10.83383,10.32676 -5.57023,2.92378 -10.48823,8.60027 -16.90464,9.01722 -4.31353,-1.81678 -2.63557,-7.42148 1.21701,-8.67917 1.30398,-1.48021 7.11761,-2.97441 4.7506,-5.07441 -83.45878,-0.63053 -166.92343,-0.24816 -250.384577,-0.35763 -2.075762,6.70426 0.469845,14.87363 -1.649363,21.92211 -3.260769,2.33968 -8.478095,-0.1428 -7.462162,-4.52108 -0.697538,-5.68629 0.839558,-12.1973 -0.909196,-17.40103 -7.498707,-0.7684 -15.805879,1.55423 -22.841976,-1.71519 -2.627737,-2.66503 -0.05664,-7.1624 3.66169,-6.50137 6.557216,-0.97141 13.893194,0.76152 19.936466,-1.04798 -0.282127,-48.99583 0.65553,-98.02058 -0.749063,-146.997851 -0.925859,-3.352784 -4.009299,1.309103 -4.837773,2.635065 -1.339616,4.341506 -8.375367,4.371238 -8.972744,-0.338057 4.953552,-9.324886 10.921098,-18.283106 17.689276,-26.297274 0.539019,-0.157458 1.113552,-0.16235 1.668934,-0.113872 z m 280.035728,5.159817 c 6.76819,0.66292 14.21015,-1.239761 20.58945,1.332656 3.97539,2.523688 0.0709,8.095963 -3.90011,6.996 -12.18924,-0.01432 -24.71054,0.914446 -36.81262,-0.528436 -3.82888,-2.017589 -1.8117,-7.595433 2.27921,-7.431916 5.89722,-0.536812 11.89228,-0.283714 17.84407,-0.368304 z m -51.65689,19.150038 c 4.31872,0.375599 2.62276,6.665383 2.96067,9.593701 -0.58969,41.894823 -20.61357,85.201413 -57.65805,106.684453 -25.9951,15.58368 -60.27679,14.89025 -85.64624,-1.6254 -32.79161,-20.46826 -50.71775,-58.60215 -54.3274,-96.221974 0.16622,-5.635013 -2.70943,-12.235771 0.62098,-17.276048 2.64341,-2.782413 6.96038,-0.198653 6.45689,3.423271 1.72347,28.835231 9.36015,58.496861 27.78472,81.437931 15.54727,19.79958 39.81881,34.27014 65.58482,32.86885 18.32144,0.60241 35.58679,-8.3134 49.33498,-19.77359 26.18948,-22.38992 38.50561,-57.15559 39.76714,-90.867396 0.49538,-3.061184 0.19245,-9.271747 5.12149,-8.243798 z"
   id="path866"
   inkscape:connector-curvature="0" /></g>
<g
   id="g16">
</g>
<g
   id="g18">
</g>
<g
   id="g20">
</g>
<g
   id="g22">
</g>
<g
   id="g24">
</g>
<g
   id="g26">
</g>
<g
   id="g28">
</g>
<g
   id="g30">
</g>
<g
   id="g32">
</g>
<g
   id="g34">
</g>
<g
   id="g36">
</g>
<g
   id="g38">
</g>
<g
   id="g40">
</g>
<g
   id="g42">
</g>
<g
   id="g44">
</g>
</svg>